# Created by Kenney (www.kenney.nl)

mtllib animal-pig.mtl

g body

v -0.3124999 0.18125 0.3125 1 1 1
v -0.3125 0.18125 -0.3125 1 1 1
v -0.5 0.30625 0.5 1 1 1
v -0.5 0.30625 -0.5000001 1 1 1
v 0.3125 0.18125 0.3125 1 1 1
v 0.3125 0.18125 -0.3125 1 1 1
v 0.5 0.30625 0.5 1 1 1
v 0.3125 0.49375 0.6249999 1 1 1
v -0.3125 0.49375 0.6249999 1 1 1
v 0.5 0.30625 -0.5000001 1 1 1
v -0.3125 0.49375 -0.6250001 1 1 1
v 0.3125 0.49375 -0.6250001 1 1 1
v 0.5 1.30625 -0.5000001 1 1 1
v 0.3125 1.43125 -0.3125 1 1 1
v -0.5 1.30625 -0.5000001 1 1 1
v -0.3125 1.43125 -0.3125 1 1 1
v -0.3125 1.43125 0.3125 1 1 1
v -0.5 1.30625 0.5 1 1 1
v 0.625 1.11875 -0.3125 1 1 1
v 0.5 1.30625 0.5 1 1 1
v 0.625 1.11875 0.3125 1 1 1
v -0.3125 1.11875 -0.6250001 1 1 1
v 0.3125 1.11875 -0.6250001 1 1 1
v 0.3125 1.43125 0.3125 1 1 1
v -0.625 0.49375 0.3125 1 1 1
v -0.625 1.11875 0.3125 1 1 1
v 0.625 0.49375 0.3125 1 1 1
v 0.3125 1.11875 0.6249999 1 1 1
v -0.3125 1.11875 0.6249999 1 1 1
v -0.625 1.11875 -0.3125 1 1 1
v 0.625 0.49375 -0.3125 1 1 1
v -0.625 0.49375 -0.3125 1 1 1
v 0.1414214 0.6673286 0.8249999 1 1 1
v 0.1414214 0.6673286 0.6249999 1 1 1
v 1.703944E-08 0.60875 0.8249999 1 1 1
v 1.44242E-08 0.60875 0.6249999 1 1 1
v -0.1414213 0.6673286 0.8249999 1 1 1
v -0.1414213 0.6673286 0.6249999 1 1 1
v -0.2 0.80875 0.6249999 1 1 1
v 0.2 0.80875 0.6249999 1 1 1
v -0.1414213 0.9501714 0.6249999 1 1 1
v 0.1414214 0.9501714 0.6249999 1 1 1
v 1.44242E-08 1.00875 0.6249999 1 1 1
v -0.1414213 0.9501714 0.8249999 1 1 1
v -0.2 0.80875 0.8249999 1 1 1
v 0.2 0.80875 0.8249999 1 1 1
v 0.1414214 0.9501714 0.8249999 1 1 1
v 1.703944E-08 1.00875 0.8249999 1 1 1
v 0.3897778 1.53125 0.4223543 1 1 1
v 0.4023859 1.503125 0.4694083 1 1 1
v 0.1000001 1.53125 0.5 1 1 1
v 0.319196 1.437565 0.6092579 1 1 1
v 0.2545777 1.437565 0.6265723 1 1 1
v 0.1126082 1.503125 0.547054 1 1 1
v 0.0482363 1.30625 0.3068148 1 1 1
v 0.06836666 1.48125 0.3819424 1 1 1
v 0.1000001 1.30625 0.5 1 1 1
v 0.08827971 1.53125 0.4562589 1 1 1
v 0.1000001 1.41875 0.5 1 1 1
v 0.1012752 1.41578 0.4996583 1 1 1
v 0.2416367 1.350962 0.578276 1 1 1
v 0.306255 1.350962 0.5609617 1 1 1
v 0.3780575 1.53125 0.3786131 1 1 1
v 0.3897778 1.41875 0.4223543 1 1 1
v 0.3897778 1.30625 0.4223543 1 1 1
v 0.3581444 1.48125 0.3042966 1 1 1
v 0.338014 1.30625 0.2291691 1 1 1
v 0.3885028 1.41578 0.4226959 1 1 1
v -0.1000001 1.53125 0.5 1 1 1
v -0.1126082 1.503125 0.547054 1 1 1
v -0.3897778 1.53125 0.4223543 1 1 1
v -0.2545776 1.437565 0.6265723 1 1 1
v -0.3191959 1.437565 0.6092579 1 1 1
v -0.4023859 1.503125 0.4694083 1 1 1
v -0.338014 1.30625 0.2291691 1 1 1
v -0.3581443 1.48125 0.3042966 1 1 1
v -0.3897778 1.30625 0.4223543 1 1 1
v -0.3780574 1.53125 0.3786131 1 1 1
v -0.3897778 1.41875 0.4223543 1 1 1
v -0.3885027 1.41578 0.4226959 1 1 1
v -0.306255 1.350962 0.5609617 1 1 1
v -0.2416367 1.350962 0.578276 1 1 1
v -0.08827968 1.53125 0.4562589 1 1 1
v -0.1000001 1.41875 0.5 1 1 1
v -0.1000001 1.30625 0.5 1 1 1
v -0.06836663 1.48125 0.3819424 1 1 1
v -0.04823627 1.30625 0.3068148 1 1 1
v -0.1012751 1.41578 0.4996583 1 1 1
v -0.05999999 0.76875 0.835 1 1 1
v -0.14 0.76875 0.835 1 1 1
v -0.05999999 0.8487499 0.835 1 1 1
v -0.14 0.8487499 0.835 1 1 1
v 0.14 0.76875 0.835 1 1 1
v 0.06000002 0.76875 0.835 1 1 1
v 0.14 0.8487499 0.835 1 1 1
v 0.06000002 0.8487499 0.835 1 1 1
v -0.0977082 0.80875 0.6349999 1 1 1
v -0.2677082 0.80875 0.6349999 1 1 1
v -0.06250003 0.89375 0.6349999 1 1 1
v -0.3029163 0.89375 0.6349999 1 1 1
v -0.0977082 0.97875 0.6349999 1 1 1
v -0.2677082 0.97875 0.6349999 1 1 1
v -0.1827082 1.013958 0.6349999 1 1 1
v 0.2677082 0.80875 0.6349999 1 1 1
v 0.09770823 0.80875 0.6349999 1 1 1
v 0.3029164 0.89375 0.6349999 1 1 1
v 0.06250006 0.89375 0.6349999 1 1 1
v 0.2677082 0.97875 0.6349999 1 1 1
v 0.09770823 0.97875 0.6349999 1 1 1
v 0.1827082 1.013958 0.6349999 1 1 1
v -0.1210787 1.035171 0.6349999 1 1 1
v -0.4039214 1.035171 0.6349999 1 1 1
v -0.2625 1.09375 0.6349999 1 1 1
v -0.4625 0.89375 0.6349999 1 1 1
v -0.4272918 0.80875 0.6349999 1 1 1
v 0.4272919 0.80875 0.6349999 1 1 1
v 0.4625001 0.89375 0.6349999 1 1 1
v 0.4039215 1.035171 0.6349999 1 1 1
v 0.1210787 1.035171 0.6349999 1 1 1
v 0.2625001 1.09375 0.6349999 1 1 1

vn -0.223241 -0.9488556 0.2232411
vn -0.223241 -0.9488556 -0.223241
vn -0.5773503 -0.5773503 0.5773503
vn -0.5773503 -0.5773503 -0.5773503
vn 0.2232411 -0.9488556 0.2232411
vn 0.2232411 -0.9488556 -0.2232411
vn 0.5773503 -0.5773503 0.5773503
vn 0.2232411 -0.2232411 0.9488556
vn -0.2232411 -0.2232411 0.9488556
vn 0.5773503 -0.5773503 -0.5773503
vn -0.2232411 -0.2232411 -0.9488556
vn 0.2232411 -0.2232411 -0.9488556
vn 0.5773503 0.5773503 -0.5773503
vn 0.223241 0.9488556 -0.2232411
vn -0.5773503 0.5773503 -0.5773503
vn -0.2232411 0.9488556 -0.2232411
vn -0.2232411 0.9488556 0.2232411
vn -0.5773503 0.5773503 0.5773503
vn 0.9488556 0.2232411 -0.2232411
vn 0.5773503 0.5773503 0.5773503
vn 0.9488556 0.2232411 0.2232411
vn -0.2232411 0.2232411 -0.9488556
vn 0.2232411 0.2232411 -0.9488556
vn 0.223241 0.9488556 0.2232411
vn -0.9488556 -0.2232411 0.2232411
vn -0.9488556 0.2232411 0.2232411
vn 0.9488556 -0.2232411 0.2232411
vn 0.2232411 0.2232411 0.9488556
vn -0.2232411 0.2232411 0.9488556
vn -0.9488556 0.2232411 -0.2232411
vn 0.9488556 -0.2232411 -0.2232411
vn -0.9488556 -0.2232411 -0.2232411
vn 0.5489851 -0.5489851 0.6302624
vn 0.7071068 -0.7071068 0
vn 0 -0.7763821 0.6302625
vn 0 -1 0
vn -0.5489851 -0.5489851 0.6302625
vn -0.7071068 -0.7071068 0
vn 0 0 -1
vn -0.7071068 0.7071068 0
vn -0.5489851 0.5489851 0.6302625
vn -1 0 0
vn -0.7763821 0 0.6302625
vn 0.7763821 0 0.6302624
vn 0.5489851 0.5489851 0.6302624
vn 0 0.7763821 0.6302625
vn 1 0 0
vn 0.7071068 0.7071068 0
vn 0 1 0
vn 0.1294095 0.8660254 0.4829629
vn -0.9659258 0 0.258819
vn -0.5730289 -0.3321819 0.7491949
vn -0.1912244 -0.45612 0.8691305
vn 0.6001704 -0.45612 0.6570768
vn -0.07354919 0.9587732 -0.2744893
vn 0.9659258 0 -0.258819
vn -0.2365118 0.4061384 -0.882674
vn -0.1968901 0.6490746 -0.7348037
vn 0.258819 0 0.9659258
vn -0.1294095 -0.8660254 -0.4829629
vn 0.870855 -0.3321819 0.3623074
vn -0.1294095 0.8660254 0.4829629
vn -0.9659258 0 -0.258819
vn -0.870855 -0.3321819 0.3623074
vn -0.6001704 -0.45612 0.6570768
vn 0.1912244 -0.45612 0.8691305
vn 0.07354919 0.9587732 -0.2744893
vn 0.9659258 0 0.258819
vn 0.2365118 0.4061384 -0.882674
vn 0.1968901 0.6490746 -0.7348037
vn -0.258819 0 0.9659258
vn 0.1294095 -0.8660254 -0.4829629
vn 0.5730289 -0.3321819 0.7491949
vn 0 0 1

vt 0.09375 0.025
vt 0.09375 0.045
vt 0.09375 0.025
vt 0.09375 0.075
vt 0.09375 0.205
vt 0.09375 0.225
vt 0.09375 0.175
vt 0.09375 0.1567157
vt 0.09375 0.145
vt 0.09375 0.185
vt 0.09375 0.2132843
vt 0.09375 0.175
vt 0.09375 0.1625
vt 0.09375 0.1333622
vt 0.09375 0.1527778
vt 0.09375 0.125
vt 0.09375 0.12368
vt 0.09375 0.0948722
vt 0.84375 0.04722222
vt 0.84375 0.225
vt 0.84375 0.168
vt 0.84375 0.185
vt 0.84375 0.202
vt 0.84375 0.2090416
vt 0.09375 0.452
vt 0.09375 0.4590416
vt 0.09375 0.4632843
vt 0.09375 0.475
vt 0.09375 0.435
vt 0.09375 0.418

usemtl colormap

f 3/2/3 2/1/2 1/1/1
f 2/1/2 3/2/3 4/2/4
f 1/1/1 6/3/6 5/3/5
f 6/3/6 1/1/1 2/1/2
f 8/4/8 3/2/3 7/2/7
f 3/2/3 8/4/8 9/4/9
f 11/4/11 10/2/10 4/2/4
f 10/2/10 11/4/11 12/4/12
f 15/5/15 14/6/14 13/5/13
f 14/6/14 15/5/15 16/6/16
f 16/6/16 18/5/18 17/6/17
f 18/5/18 16/6/16 15/5/15
f 20/5/20 19/7/19 13/5/13
f 19/7/19 20/5/20 21/7/21
f 3/2/3 5/3/5 7/2/7
f 5/3/5 3/2/3 1/1/1
f 15/5/15 11/4/11 4/2/4
f 11/4/11 15/5/15 22/7/22
f 7/2/7 6/3/6 10/2/10
f 6/3/6 7/2/7 5/3/5
f 22/7/22 12/4/12 11/4/11
f 12/4/12 22/7/22 23/7/23
f 14/6/14 17/6/17 24/6/24
f 17/6/17 14/6/14 16/6/16
f 3/2/3 26/7/26 25/4/25
f 26/7/26 3/2/3 18/5/18
f 20/5/20 27/4/27 21/7/21
f 27/4/27 20/5/20 7/2/7
f 28/7/28 9/4/9 8/4/8
f 9/4/9 28/7/28 29/7/29
f 30/7/30 18/5/18 15/5/15
f 18/5/18 30/7/30 26/7/26
f 20/5/20 29/7/29 28/7/28
f 29/7/29 20/5/20 18/5/18
f 31/4/31 7/2/7 10/2/10
f 7/2/7 31/4/31 27/4/27
f 20/5/20 8/4/8 7/2/7
f 8/4/8 20/5/20 28/7/28
f 12/4/12 13/5/13 10/2/10
f 13/5/13 12/4/12 23/7/23
f 32/4/32 15/5/15 4/2/4
f 15/5/15 32/4/32 30/7/30
f 21/7/21 31/4/31 19/7/19
f 31/4/31 21/7/21 27/4/27
f 6/3/6 4/2/4 10/2/10
f 4/2/4 6/3/6 2/1/2
f 3/2/3 32/4/32 4/2/4
f 32/4/32 3/2/3 25/4/25
f 24/6/24 18/5/18 20/5/20
f 18/5/18 24/6/24 17/6/17
f 19/7/19 10/2/10 13/5/13
f 10/2/10 19/7/19 31/4/31
f 15/5/15 23/7/23 22/7/22
f 23/7/23 15/5/15 13/5/13
f 9/4/9 18/5/18 3/2/3
f 18/5/18 9/4/9 29/7/29
f 25/4/25 30/7/30 32/4/32
f 30/7/30 25/4/25 26/7/26
f 14/6/14 20/5/20 13/5/13
f 20/5/20 14/6/14 24/6/24
f 35/9/35 34/8/34 33/8/33
f 34/8/34 35/9/35 36/9/36
f 37/8/37 36/9/36 35/9/35
f 36/9/36 37/8/37 38/8/38
f 38/8/39 34/8/39 36/9/39
f 34/8/39 38/8/39 39/10/39
f 34/8/39 39/10/39 40/10/39
f 40/10/39 39/10/39 41/11/39
f 40/10/39 41/11/39 42/11/39
f 42/11/39 41/11/39 43/6/39
f 39/10/42 44/11/41 41/11/40
f 44/11/41 39/10/42 45/10/43
f 33/8/33 37/8/37 35/9/35
f 37/8/37 33/8/33 45/10/43
f 45/10/43 33/8/33 46/10/44
f 45/10/43 46/10/44 47/11/45
f 45/10/43 47/11/45 44/11/41
f 44/11/41 47/11/45 48/6/46
f 46/10/44 34/8/34 40/10/47
f 34/8/34 46/10/44 33/8/33
f 42/11/48 48/6/46 47/11/45
f 48/6/46 42/11/48 43/6/49
f 37/8/37 39/10/42 38/8/38
f 39/10/42 37/8/37 45/10/43
f 42/11/48 46/10/44 40/10/47
f 46/10/44 42/11/48 47/11/45
f 43/6/49 44/11/41 48/6/46
f 44/11/41 43/6/49 41/11/40
f 51/12/50 50/13/50 49/12/50
f 50/13/50 51/12/50 52/14/50
f 52/14/50 51/12/50 53/14/50
f 53/14/50 51/12/50 54/13/50
f 57/4/51 56/15/51 55/4/51
f 56/15/51 57/4/51 58/12/51
f 58/12/51 57/4/51 51/12/51
f 51/12/51 57/4/51 59/16/51
f 51/12/51 59/16/51 54/13/51
f 61/18/53 59/16/52 60/17/52
f 59/16/52 61/18/53 54/13/52
f 54/13/52 61/18/53 53/14/53
f 52/14/54 61/18/53 62/18/54
f 61/18/53 52/14/54 53/14/53
f 58/12/55 49/12/49 63/12/55
f 49/12/49 58/12/55 51/12/49
f 50/13/56 64/16/56 49/12/56
f 65/4/56 49/12/56 64/16/56
f 65/4/56 63/12/56 49/12/56
f 65/4/56 66/15/56 63/12/56
f 66/15/56 65/4/56 67/4/56
f 57/4/36 67/4/36 65/4/36
f 67/4/36 57/4/36 55/4/36
f 56/15/58 67/4/57 55/4/57
f 67/4/57 56/15/58 66/15/58
f 68/17/59 65/4/59 64/16/59
f 65/4/59 68/17/59 57/4/59
f 57/4/59 68/17/59 60/17/59
f 59/16/59 57/4/59 60/17/59
f 62/18/60 60/17/60 68/17/60
f 60/17/60 62/18/60 61/18/60
f 64/16/61 62/18/54 68/17/61
f 62/18/54 64/16/61 50/13/61
f 62/18/54 50/13/61 52/14/54
f 56/15/58 63/12/55 66/15/58
f 63/12/55 56/15/58 58/12/55
f 71/12/62 70/13/62 69/12/62
f 70/13/62 71/12/62 72/14/62
f 72/14/62 71/12/62 73/14/62
f 73/14/62 71/12/62 74/13/62
f 77/4/63 76/15/63 75/4/63
f 76/15/63 77/4/63 78/12/63
f 78/12/63 77/4/63 71/12/63
f 71/12/63 77/4/63 79/16/63
f 71/12/63 79/16/63 74/13/63
f 81/18/65 79/16/64 80/17/64
f 79/16/64 81/18/65 74/13/64
f 74/13/64 81/18/65 73/14/65
f 72/14/66 81/18/65 82/18/66
f 81/18/65 72/14/66 73/14/65
f 78/12/67 69/12/49 83/12/67
f 69/12/49 78/12/67 71/12/49
f 70/13/68 84/16/68 69/12/68
f 85/4/68 69/12/68 84/16/68
f 85/4/68 83/12/68 69/12/68
f 85/4/68 86/15/68 83/12/68
f 86/15/68 85/4/68 87/4/68
f 77/4/36 87/4/36 85/4/36
f 87/4/36 77/4/36 75/4/36
f 76/15/70 87/4/69 75/4/69
f 87/4/69 76/15/70 86/15/70
f 88/17/71 85/4/71 84/16/71
f 85/4/71 88/17/71 77/4/71
f 77/4/71 88/17/71 80/17/71
f 79/16/71 77/4/71 80/17/71
f 82/18/72 80/17/72 88/17/72
f 80/17/72 82/18/72 81/18/72
f 70/13/73 88/17/73 84/16/73
f 88/17/73 70/13/73 82/18/66
f 82/18/66 70/13/73 72/14/66
f 76/15/70 83/12/67 86/15/70
f 83/12/67 76/15/70 78/12/67
f 91/20/74 90/19/74 89/19/74
f 90/19/74 91/20/74 92/20/74
f 95/20/74 94/19/74 93/19/74
f 94/19/74 95/20/74 96/20/74
f 99/22/74 98/21/74 97/21/74
f 98/21/74 99/22/74 100/22/74
f 100/22/74 99/22/74 101/23/74
f 100/22/74 101/23/74 102/23/74
f 102/23/74 101/23/74 103/24/74
f 106/22/74 105/21/74 104/21/74
f 105/21/74 106/22/74 107/22/74
f 107/22/74 106/22/74 108/23/74
f 107/22/74 108/23/74 109/23/74
f 109/23/74 108/23/74 110/24/74
f 111/27/74 103/26/74 101/25/74
f 112/27/74 103/26/74 111/27/74
f 112/27/74 111/27/74 113/28/74
f 112/27/74 102/25/74 103/26/74
f 114/29/74 102/25/74 112/27/74
f 114/29/74 100/29/74 102/25/74
f 114/29/74 98/30/74 100/29/74
f 98/30/74 114/29/74 115/30/74
f 117/29/74 104/30/74 116/30/74
f 104/30/74 117/29/74 106/29/74
f 106/29/74 117/29/74 118/27/74
f 106/29/74 118/27/74 108/25/74
f 108/25/74 118/27/74 110/26/74
f 119/27/74 110/26/74 118/27/74
f 119/27/74 118/27/74 120/28/74
f 110/26/74 119/27/74 109/25/74

g leg-back-left

v 0.35 0.30625 -0.09999999 1 1 1
v 0.4 0.30625 -0.15 1 1 1
v 0.375 0.0625 -0.06249999 1 1 1
v 0.4375001 0.0625 -0.125 1 1 1
v 0.125 0.0625 -0.06249996 1 1 1
v 0.15 0.30625 -0.09999996 1 1 1
v 0.35 0.30625 -0.4 1 1 1
v 0.375 0.0625 -0.4375001 1 1 1
v 0.4 0.30625 -0.35 1 1 1
v 0.4375 0.0625 -0.375 1 1 1
v 0.06249999 0.0625 -0.125 1 1 1
v 0.09999999 0.30625 -0.15 1 1 1
v 0.06249996 0.0625 -0.375 1 1 1
v 0.125 0.0625 -0.4375 1 1 1
v 0.09999996 0.30625 -0.35 1 1 1
v 0.15 0.30625 -0.4 1 1 1
v 0.3491116 0 -0.375 1 1 1
v 0.1508883 0 -0.375 1 1 1
v 0.375 0 -0.3491117 1 1 1
v 0.125 0 -0.3491116 1 1 1
v 0.375 0 -0.1508884 1 1 1
v 0.125 0 -0.1508883 1 1 1
v 0.1508884 0 -0.125 1 1 1
v 0.3491117 0 -0.125 1 1 1

vn 0.3681962 0.1781515 0.9125206
vn 0.9125207 0.1781515 0.368196
vn 0.371069 -0.2865149 0.883299
vn 0.8832991 -0.2865149 0.3710688
vn -0.3710688 -0.2865149 0.8832991
vn -0.368196 0.1781515 0.9125207
vn 0.368196 0.1781515 -0.9125207
vn 0.3710688 -0.2865149 -0.8832991
vn 0.9125206 0.1781515 -0.3681962
vn 0.883299 -0.2865149 -0.371069
vn -0.883299 -0.2865149 0.371069
vn -0.9125206 0.1781515 0.3681962
vn -0.8832991 -0.2865149 -0.3710688
vn -0.371069 -0.2865149 -0.883299
vn -0.9125207 0.1781515 -0.368196
vn -0.3681962 0.1781515 -0.9125206
vn 0.167502 -0.8991193 -0.4043857
vn -0.167502 -0.8991193 -0.4043856
vn 0.4043856 -0.8991193 -0.167502
vn -0.4043857 -0.8991193 -0.167502
vn 0.4043857 -0.8991193 0.167502
vn -0.4043856 -0.8991193 0.167502
vn -0.167502 -0.8991193 0.4043857
vn 0.167502 -0.8991193 0.4043856

vt 0.09375 0.1841837
vt 0.21875 0.475
vt 0.21875 0.4341837

usemtl colormap

f 123/31/77 122/1/76 121/1/75
f 122/1/76 123/31/77 124/31/78
f 123/31/77 126/1/80 125/31/79
f 126/1/80 123/31/77 121/1/75
f 129/1/83 128/31/82 127/1/81
f 128/31/82 129/1/83 130/31/84
f 125/31/79 132/1/86 131/31/85
f 132/1/86 125/31/79 126/1/80
f 135/1/89 134/31/88 133/31/87
f 134/31/88 135/1/89 136/1/90
f 129/1/83 124/31/78 130/31/84
f 124/31/78 129/1/83 122/1/76
f 136/1/90 128/31/82 134/31/88
f 128/31/82 136/1/90 127/1/81
f 135/1/49 127/1/49 136/1/49
f 127/1/49 135/1/49 129/1/49
f 129/1/49 135/1/49 132/1/49
f 129/1/49 132/1/49 122/1/49
f 122/1/49 132/1/49 126/1/49
f 122/1/49 126/1/49 121/1/49
f 132/1/86 133/31/87 131/31/85
f 133/31/87 132/1/86 135/1/89
f 139/32/93 138/32/92 137/32/91
f 138/32/92 139/32/93 140/32/94
f 140/32/94 139/32/93 141/32/95
f 140/32/94 141/32/95 142/32/96
f 142/32/96 141/32/95 143/32/97
f 143/32/97 141/32/95 144/32/98
f 128/33/82 138/32/92 134/33/88
f 138/32/92 128/33/82 137/32/91
f 138/32/92 133/33/87 134/33/88
f 133/33/87 138/32/92 140/32/94
f 124/33/78 144/32/98 141/32/95
f 144/32/98 124/33/78 123/33/77
f 143/32/97 123/33/77 125/33/79
f 123/33/77 143/32/97 144/32/98
f 131/33/85 140/32/94 142/32/96
f 140/32/94 131/33/85 133/33/87
f 130/33/84 141/32/95 139/32/93
f 141/32/95 130/33/84 124/33/78
f 143/32/97 131/33/85 142/32/96
f 131/33/85 143/32/97 125/33/79
f 130/33/84 137/32/91 128/33/82
f 137/32/91 130/33/84 139/32/93

g leg-back-right

v -0.125 0.0625 -0.4375001 1 1 1
v -0.1508884 0 -0.375 1 1 1
v -0.06249999 0.0625 -0.375 1 1 1
v -0.125 0 -0.3491117 1 1 1
v -0.3491117 0 -0.375 1 1 1
v -0.375 0 -0.3491116 1 1 1
v -0.375 0 -0.1508883 1 1 1
v -0.125 0 -0.1508884 1 1 1
v -0.1508883 0 -0.125 1 1 1
v -0.3491116 0 -0.125 1 1 1
v -0.375 0.0625 -0.4375 1 1 1
v -0.4375001 0.0625 -0.375 1 1 1
v -0.06249996 0.0625 -0.125 1 1 1
v -0.125 0.0625 -0.06249999 1 1 1
v -0.4375 0.0625 -0.125 1 1 1
v -0.375 0.0625 -0.06249996 1 1 1
v -0.4 0.30625 -0.35 1 1 1
v -0.35 0.30625 -0.4 1 1 1
v -0.09999999 0.30625 -0.35 1 1 1
v -0.09999996 0.30625 -0.15 1 1 1
v -0.15 0.30625 -0.4 1 1 1
v -0.4 0.30625 -0.15 1 1 1
v -0.35 0.30625 -0.09999996 1 1 1
v -0.15 0.30625 -0.09999999 1 1 1



usemtl colormap

f 147/33/84 146/32/91 145/33/82
f 146/32/91 147/33/84 148/32/93
f 148/32/93 149/32/92 146/32/91
f 149/32/92 148/32/93 150/32/94
f 150/32/94 148/32/93 151/32/96
f 151/32/96 148/32/93 152/32/95
f 151/32/96 152/32/95 153/32/98
f 151/32/96 153/32/98 154/32/97
f 149/32/92 156/33/87 155/33/88
f 156/33/87 149/32/92 150/32/94
f 157/33/78 153/32/98 152/32/95
f 153/32/98 157/33/78 158/33/77
f 154/32/97 159/33/85 151/32/96
f 159/33/85 154/32/97 160/33/79
f 145/33/82 149/32/92 155/33/88
f 149/32/92 145/33/82 146/32/91
f 154/32/97 158/33/77 160/33/79
f 158/33/77 154/32/97 153/32/98
f 159/33/85 150/32/94 151/32/96
f 150/32/94 159/33/85 156/33/87
f 147/33/84 152/32/95 148/32/93
f 152/32/95 147/33/84 157/33/78
f 161/1/89 155/31/88 156/31/87
f 155/31/88 161/1/89 162/1/90
f 163/1/83 157/31/78 147/31/84
f 157/31/78 163/1/83 164/1/76
f 161/1/49 165/1/49 162/1/49
f 165/1/49 161/1/49 163/1/49
f 163/1/49 161/1/49 166/1/49
f 163/1/49 166/1/49 164/1/49
f 164/1/49 166/1/49 167/1/49
f 164/1/49 167/1/49 168/1/49
f 162/1/90 145/31/82 155/31/88
f 145/31/82 162/1/90 165/1/81
f 160/31/79 166/1/86 159/31/85
f 166/1/86 160/31/79 167/1/80
f 164/1/76 158/31/77 157/31/78
f 158/31/77 164/1/76 168/1/75
f 166/1/86 156/31/87 159/31/85
f 156/31/87 166/1/86 161/1/89
f 163/1/83 145/31/82 165/1/81
f 145/31/82 163/1/83 147/31/84
f 158/31/77 167/1/80 160/31/79
f 167/1/80 158/31/77 168/1/75

g leg-front-left

v 0.35 0.30625 0.4 1 1 1
v 0.4 0.30625 0.35 1 1 1
v 0.375 0.0625 0.4375 1 1 1
v 0.4375001 0.0625 0.375 1 1 1
v 0.06249999 0.0625 0.375 1 1 1
v 0.09999999 0.30625 0.35 1 1 1
v 0.125 0.0625 0.4375001 1 1 1
v 0.15 0.30625 0.4 1 1 1
v 0.06249996 0.0625 0.125 1 1 1
v 0.09999996 0.30625 0.15 1 1 1
v 0.4375 0.0625 0.125 1 1 1
v 0.4 0.30625 0.15 1 1 1
v 0.125 0.0625 0.06249999 1 1 1
v 0.375 0.0625 0.06249996 1 1 1
v 0.15 0.30625 0.09999999 1 1 1
v 0.35 0.30625 0.09999996 1 1 1
v 0.1508883 0 0.125 1 1 1
v 0.3491116 0 0.125 1 1 1
v 0.1508884 0 0.375 1 1 1
v 0.3491117 0 0.375 1 1 1
v 0.125 0 0.3491117 1 1 1
v 0.125 0 0.1508884 1 1 1
v 0.375 0 0.1508883 1 1 1
v 0.375 0 0.3491116 1 1 1



usemtl colormap

f 171/31/77 170/1/76 169/1/75
f 170/1/76 171/31/77 172/31/78
f 175/31/79 174/1/86 173/31/85
f 174/1/86 175/31/79 176/1/80
f 174/1/86 177/31/87 173/31/85
f 177/31/87 174/1/86 178/1/89
f 171/31/77 176/1/80 175/31/79
f 176/1/80 171/31/77 169/1/75
f 180/1/83 172/31/78 179/31/84
f 172/31/78 180/1/83 170/1/76
f 183/1/90 182/31/82 181/31/88
f 182/31/82 183/1/90 184/1/81
f 180/1/83 182/31/82 184/1/81
f 182/31/82 180/1/83 179/31/84
f 178/1/49 184/1/49 183/1/49
f 184/1/49 178/1/49 180/1/49
f 180/1/49 178/1/49 174/1/49
f 180/1/49 174/1/49 170/1/49
f 170/1/49 174/1/49 176/1/49
f 170/1/49 176/1/49 169/1/49
f 178/1/89 181/31/88 177/31/87
f 181/31/88 178/1/89 183/1/90
f 182/33/82 185/32/92 181/33/88
f 185/32/92 182/33/82 186/32/91
f 187/32/97 171/33/77 175/33/79
f 171/33/77 187/32/97 188/32/98
f 187/32/97 173/33/85 189/32/96
f 173/33/85 187/32/97 175/33/79
f 173/33/85 190/32/94 189/32/96
f 190/32/94 173/33/85 177/33/87
f 179/33/84 186/32/91 182/33/82
f 186/32/91 179/33/84 191/32/93
f 191/32/93 185/32/92 186/32/91
f 185/32/92 191/32/93 190/32/94
f 190/32/94 191/32/93 189/32/96
f 189/32/96 191/32/93 192/32/95
f 189/32/96 192/32/95 187/32/97
f 187/32/97 192/32/95 188/32/98
f 179/33/84 192/32/95 191/32/93
f 192/32/95 179/33/84 172/33/78
f 185/32/92 177/33/87 181/33/88
f 177/33/87 185/32/92 190/32/94
f 172/33/78 188/32/98 192/32/95
f 188/32/98 172/33/78 171/33/77

g leg-front-right

v -0.06249999 0.0625 0.125 1 1 1
v -0.06249996 0.0625 0.375 1 1 1
v -0.09999999 0.30625 0.15 1 1 1
v -0.09999996 0.30625 0.35 1 1 1
v -0.15 0.30625 0.4 1 1 1
v -0.125 0.0625 0.4375 1 1 1
v -0.15 0.30625 0.09999996 1 1 1
v -0.125 0.0625 0.06249996 1 1 1
v -0.4375 0.0625 0.375 1 1 1
v -0.4 0.30625 0.35 1 1 1
v -0.375 0.0625 0.4375001 1 1 1
v -0.35 0.30625 0.4 1 1 1
v -0.35 0.30625 0.09999999 1 1 1
v -0.4 0.30625 0.15 1 1 1
v -0.4375001 0.0625 0.125 1 1 1
v -0.375 0.0625 0.06249999 1 1 1
v -0.375 0 0.3491117 1 1 1
v -0.375 0 0.1508884 1 1 1
v -0.3491117 0 0.125 1 1 1
v -0.1508884 0 0.125 1 1 1
v -0.125 0 0.1508883 1 1 1
v -0.125 0 0.3491116 1 1 1
v -0.1508883 0 0.375 1 1 1
v -0.3491116 0 0.375 1 1 1



usemtl colormap

f 195/1/83 194/31/78 193/31/84
f 194/31/78 195/1/83 196/1/76
f 198/31/77 196/1/76 197/1/75
f 196/1/76 198/31/77 194/31/78
f 195/1/83 200/31/82 199/1/81
f 200/31/82 195/1/83 193/31/84
f 203/31/79 202/1/86 201/31/85
f 202/1/86 203/31/79 204/1/80
f 206/1/49 199/1/49 205/1/49
f 199/1/49 206/1/49 195/1/49
f 195/1/49 206/1/49 196/1/49
f 196/1/49 206/1/49 202/1/49
f 196/1/49 202/1/49 204/1/49
f 196/1/49 204/1/49 197/1/49
f 202/1/86 207/31/87 201/31/85
f 207/31/87 202/1/86 206/1/89
f 206/1/89 208/31/88 207/31/87
f 208/31/88 206/1/89 205/1/90
f 205/1/90 200/31/82 208/31/88
f 200/31/82 205/1/90 199/1/81
f 198/31/77 204/1/80 203/31/79
f 204/1/80 198/31/77 197/1/75
f 201/33/85 210/32/94 209/32/96
f 210/32/94 201/33/85 207/33/87
f 200/33/82 211/32/92 208/33/88
f 211/32/92 200/33/82 212/32/91
f 193/33/84 214/32/95 213/32/93
f 214/32/95 193/33/84 194/33/78
f 194/33/78 215/32/98 214/32/95
f 215/32/98 194/33/78 198/33/77
f 216/32/97 201/33/85 209/32/96
f 201/33/85 216/32/97 203/33/79
f 211/32/92 207/33/87 208/33/88
f 207/33/87 211/32/92 210/32/94
f 193/33/84 212/32/91 200/33/82
f 212/32/91 193/33/84 213/32/93
f 213/32/93 211/32/92 212/32/91
f 211/32/92 213/32/93 210/32/94
f 210/32/94 213/32/93 209/32/96
f 209/32/96 213/32/93 214/32/95
f 209/32/96 214/32/95 216/32/97
f 216/32/97 214/32/95 215/32/98
f 216/32/97 198/33/77 203/33/79
f 198/33/77 216/32/97 215/32/98

