# Created by Kenney (www.kenney.nl)

mtllib animal-bunny.mtl

g leg-front-right

v -0.06249999 0.0625 0.125 1 1 1
v -0.06249996 0.0625 0.375 1 1 1
v -0.09999999 0.30625 0.15 1 1 1
v -0.09999996 0.30625 0.35 1 1 1
v -0.15 0.30625 0.4 1 1 1
v -0.125 0.0625 0.4375 1 1 1
v -0.15 0.30625 0.09999996 1 1 1
v -0.125 0.0625 0.06249996 1 1 1
v -0.4375 0.0625 0.375 1 1 1
v -0.4 0.30625 0.35 1 1 1
v -0.375 0.0625 0.4375001 1 1 1
v -0.35 0.30625 0.4 1 1 1
v -0.35 0.30625 0.09999999 1 1 1
v -0.4 0.30625 0.15 1 1 1
v -0.375 0 0.3491117 1 1 1
v -0.375 0 0.1508884 1 1 1
v -0.4375001 0.0625 0.125 1 1 1
v -0.375 0.0625 0.06249999 1 1 1
v -0.3491117 0 0.125 1 1 1
v -0.1508884 0 0.125 1 1 1
v -0.125 0 0.1508883 1 1 1
v -0.125 0 0.3491116 1 1 1
v -0.1508883 0 0.375 1 1 1
v -0.3491116 0 0.375 1 1 1

vn 0.883299 -0.2865149 -0.371069
vn 0.8832991 -0.2865149 0.3710688
vn 0.9125206 0.1781515 -0.3681962
vn 0.9125207 0.1781515 0.368196
vn 0.3681962 0.1781515 0.9125206
vn 0.371069 -0.2865149 0.883299
vn 0.368196 0.1781515 -0.9125207
vn 0.3710688 -0.2865149 -0.8832991
vn -0.883299 -0.2865149 0.371069
vn -0.9125206 0.1781515 0.3681962
vn -0.3710688 -0.2865149 0.8832991
vn -0.368196 0.1781515 0.9125207
vn 0 1 0
vn -0.4043856 -0.8991193 0.167502
vn -0.4043857 -0.8991193 -0.167502
vn -0.8832991 -0.2865149 -0.3710688
vn -0.371069 -0.2865149 -0.883299
vn -0.167502 -0.8991193 -0.4043856
vn 0.167502 -0.8991193 -0.4043857
vn -0.9125207 0.1781515 -0.368196
vn 0.4043856 -0.8991193 -0.167502
vn 0.4043857 -0.8991193 0.167502
vn 0.167502 -0.8991193 0.4043856
vn -0.3681962 0.1781515 -0.9125206
vn -0.167502 -0.8991193 0.4043857

vt 0.21875 0.4341837
vt 0.21875 0.275
vt 0.21875 0.475

usemtl colormap

f 3/2/3 2/1/2 1/1/1
f 2/1/2 3/2/3 4/2/4
f 6/1/6 4/2/4 5/2/5
f 4/2/4 6/1/6 2/1/2
f 3/2/3 8/1/8 7/2/7
f 8/1/8 3/2/3 1/1/1
f 11/1/11 10/2/10 9/1/9
f 10/2/10 11/1/11 12/2/12
f 14/2/13 7/2/13 13/2/13
f 7/2/13 14/2/13 3/2/13
f 3/2/13 14/2/13 4/2/13
f 4/2/13 14/2/13 10/2/13
f 4/2/13 10/2/13 12/2/13
f 4/2/13 12/2/13 5/2/13
f 9/1/9 16/3/15 15/3/14
f 16/3/15 9/1/9 17/1/16
f 8/1/8 19/3/18 18/1/17
f 19/3/18 8/1/8 20/3/19
f 10/2/10 17/1/16 9/1/9
f 17/1/16 10/2/10 14/2/20
f 1/1/1 22/3/22 21/3/21
f 22/3/22 1/1/1 2/1/2
f 2/1/2 23/3/23 22/3/22
f 23/3/23 2/1/2 6/1/6
f 14/2/20 18/1/17 17/1/16
f 18/1/17 14/2/20 13/2/24
f 24/3/25 9/1/9 15/3/14
f 9/1/9 24/3/25 11/1/11
f 19/3/18 17/1/16 18/1/17
f 17/1/16 19/3/18 16/3/15
f 1/1/1 20/3/19 8/1/8
f 20/3/19 1/1/1 21/3/21
f 13/2/24 8/1/8 18/1/17
f 8/1/8 13/2/24 7/2/7
f 6/1/6 12/2/12 11/1/11
f 12/2/12 6/1/6 5/2/5
f 20/3/19 16/3/15 19/3/18
f 16/3/15 20/3/19 21/3/21
f 16/3/15 21/3/21 22/3/22
f 16/3/15 22/3/22 15/3/14
f 15/3/14 22/3/22 23/3/23
f 15/3/14 23/3/23 24/3/25
f 24/3/25 6/1/6 11/1/11
f 6/1/6 24/3/25 23/3/23

g leg-front-left

v 0.35 0.30625 0.4 1 1 1
v 0.4 0.30625 0.35 1 1 1
v 0.375 0.0625 0.4375 1 1 1
v 0.4375001 0.0625 0.375 1 1 1
v 0.06249999 0.0625 0.375 1 1 1
v 0.09999999 0.30625 0.35 1 1 1
v 0.125 0.0625 0.4375001 1 1 1
v 0.15 0.30625 0.4 1 1 1
v 0.06249996 0.0625 0.125 1 1 1
v 0.09999996 0.30625 0.15 1 1 1
v 0.4375 0.0625 0.125 1 1 1
v 0.4 0.30625 0.15 1 1 1
v 0.125 0.0625 0.06249999 1 1 1
v 0.375 0.0625 0.06249996 1 1 1
v 0.15 0.30625 0.09999999 1 1 1
v 0.35 0.30625 0.09999996 1 1 1
v 0.1508883 0 0.125 1 1 1
v 0.3491116 0 0.125 1 1 1
v 0.1508884 0 0.375 1 1 1
v 0.3491117 0 0.375 1 1 1
v 0.125 0 0.3491117 1 1 1
v 0.125 0 0.1508884 1 1 1
v 0.375 0 0.1508883 1 1 1
v 0.375 0 0.3491116 1 1 1



usemtl colormap

f 27/1/6 26/2/4 25/2/5
f 26/2/4 27/1/6 28/1/2
f 31/1/11 30/2/10 29/1/9
f 30/2/10 31/1/11 32/2/12
f 30/2/10 33/1/16 29/1/9
f 33/1/16 30/2/10 34/2/20
f 27/1/6 32/2/12 31/1/11
f 32/2/12 27/1/6 25/2/5
f 36/2/3 28/1/2 35/1/1
f 28/1/2 36/2/3 26/2/4
f 39/2/24 38/1/8 37/1/17
f 38/1/8 39/2/24 40/2/7
f 36/2/3 38/1/8 40/2/7
f 38/1/8 36/2/3 35/1/1
f 38/1/8 41/3/18 37/1/17
f 41/3/18 38/1/8 42/3/19
f 43/3/25 27/1/6 31/1/11
f 27/1/6 43/3/25 44/3/23
f 34/2/13 40/2/13 39/2/13
f 40/2/13 34/2/13 36/2/13
f 36/2/13 34/2/13 30/2/13
f 36/2/13 30/2/13 26/2/13
f 26/2/13 30/2/13 32/2/13
f 26/2/13 32/2/13 25/2/13
f 43/3/25 29/1/9 45/3/14
f 29/1/9 43/3/25 31/1/11
f 29/1/9 46/3/15 45/3/14
f 46/3/15 29/1/9 33/1/16
f 35/1/1 42/3/19 38/1/8
f 42/3/19 35/1/1 47/3/21
f 34/2/20 37/1/17 33/1/16
f 37/1/17 34/2/20 39/2/24
f 42/3/19 46/3/15 41/3/18
f 46/3/15 42/3/19 47/3/21
f 46/3/15 47/3/21 48/3/22
f 46/3/15 48/3/22 45/3/14
f 45/3/14 48/3/22 44/3/23
f 45/3/14 44/3/23 43/3/25
f 35/1/1 48/3/22 47/3/21
f 48/3/22 35/1/1 28/1/2
f 41/3/18 33/1/16 37/1/17
f 33/1/16 41/3/18 46/3/15
f 28/1/2 44/3/23 48/3/22
f 44/3/23 28/1/2 27/1/6

g leg-back-right

v -0.125 0.0625 -0.4375001 1 1 1
v -0.1508884 0 -0.375 1 1 1
v -0.06249999 0.0625 -0.375 1 1 1
v -0.125 0 -0.3491117 1 1 1
v -0.3491117 0 -0.375 1 1 1
v -0.375 0 -0.3491116 1 1 1
v -0.125 0 -0.1508884 1 1 1
v -0.375 0 -0.1508883 1 1 1
v -0.1508883 0 -0.125 1 1 1
v -0.3491116 0 -0.125 1 1 1
v -0.4375001 0.0625 -0.375 1 1 1
v -0.375 0.0625 -0.4375 1 1 1
v -0.4 0.30625 -0.35 1 1 1
v -0.35 0.30625 -0.4 1 1 1
v -0.06249996 0.0625 -0.125 1 1 1
v -0.09999999 0.30625 -0.35 1 1 1
v -0.09999996 0.30625 -0.15 1 1 1
v -0.15 0.30625 -0.4 1 1 1
v -0.4 0.30625 -0.15 1 1 1
v -0.15 0.30625 -0.09999999 1 1 1
v -0.35 0.30625 -0.09999996 1 1 1
v -0.125 0.0625 -0.06249999 1 1 1
v -0.4375 0.0625 -0.125 1 1 1
v -0.375 0.0625 -0.06249996 1 1 1



usemtl colormap

f 51/1/1 50/3/19 49/1/8
f 50/3/19 51/1/1 52/3/21
f 52/3/21 53/3/18 50/3/19
f 53/3/18 52/3/21 54/3/15
f 54/3/15 52/3/21 55/3/22
f 54/3/15 55/3/22 56/3/14
f 56/3/14 55/3/22 57/3/23
f 56/3/14 57/3/23 58/3/25
f 61/2/20 60/1/17 59/1/16
f 60/1/17 61/2/20 62/2/24
f 53/3/18 59/1/16 60/1/17
f 59/1/16 53/3/18 54/3/15
f 64/2/3 63/1/2 51/1/1
f 63/1/2 64/2/3 65/2/4
f 61/2/13 66/2/13 62/2/13
f 66/2/13 61/2/13 64/2/13
f 64/2/13 61/2/13 65/2/13
f 65/2/13 61/2/13 67/2/13
f 65/2/13 67/2/13 68/2/13
f 68/2/13 67/2/13 69/2/13
f 63/1/2 57/3/23 55/3/22
f 57/3/23 63/1/2 70/1/6
f 58/3/25 71/1/9 56/3/14
f 71/1/9 58/3/25 72/1/11
f 49/1/8 53/3/18 60/1/17
f 53/3/18 49/1/8 50/3/19
f 58/3/25 70/1/6 72/1/11
f 70/1/6 58/3/25 57/3/23
f 71/1/9 54/3/15 56/3/14
f 54/3/15 71/1/9 59/1/16
f 62/2/24 49/1/8 60/1/17
f 49/1/8 62/2/24 66/2/7
f 72/1/11 67/2/10 71/1/9
f 67/2/10 72/1/11 69/2/12
f 65/2/4 70/1/6 63/1/2
f 70/1/6 65/2/4 68/2/5
f 51/1/1 55/3/22 52/3/21
f 55/3/22 51/1/1 63/1/2
f 67/2/10 59/1/16 71/1/9
f 59/1/16 67/2/10 61/2/20
f 64/2/3 49/1/8 66/2/7
f 49/1/8 64/2/3 51/1/1
f 70/1/6 69/2/12 72/1/11
f 69/2/12 70/1/6 68/2/5

g leg-back-left

v 0.35 0.30625 -0.09999999 1 1 1
v 0.4 0.30625 -0.15 1 1 1
v 0.375 0.0625 -0.06249999 1 1 1
v 0.4375001 0.0625 -0.125 1 1 1
v 0.125 0.0625 -0.06249996 1 1 1
v 0.15 0.30625 -0.09999996 1 1 1
v 0.35 0.30625 -0.4 1 1 1
v 0.375 0.0625 -0.4375001 1 1 1
v 0.4 0.30625 -0.35 1 1 1
v 0.4375 0.0625 -0.375 1 1 1
v 0.06249999 0.0625 -0.125 1 1 1
v 0.09999999 0.30625 -0.15 1 1 1
v 0.3491116 0 -0.375 1 1 1
v 0.1508883 0 -0.375 1 1 1
v 0.375 0 -0.3491117 1 1 1
v 0.125 0 -0.3491116 1 1 1
v 0.375 0 -0.1508884 1 1 1
v 0.125 0 -0.1508883 1 1 1
v 0.3491117 0 -0.125 1 1 1
v 0.1508884 0 -0.125 1 1 1
v 0.125 0.0625 -0.4375 1 1 1
v 0.06249996 0.0625 -0.375 1 1 1
v 0.09999996 0.30625 -0.35 1 1 1
v 0.15 0.30625 -0.4 1 1 1



usemtl colormap

f 75/1/6 74/2/4 73/2/5
f 74/2/4 75/1/6 76/1/2
f 75/1/6 78/2/12 77/1/11
f 78/2/12 75/1/6 73/2/5
f 81/2/3 80/1/8 79/2/7
f 80/1/8 81/2/3 82/1/1
f 77/1/11 84/2/10 83/1/9
f 84/2/10 77/1/11 78/2/12
f 87/3/21 86/3/18 85/3/19
f 86/3/18 87/3/21 88/3/15
f 88/3/15 87/3/21 89/3/22
f 88/3/15 89/3/22 90/3/14
f 90/3/14 89/3/22 91/3/23
f 90/3/14 91/3/23 92/3/25
f 80/1/8 86/3/18 93/1/17
f 86/3/18 80/1/8 85/3/19
f 86/3/18 94/1/16 93/1/17
f 94/1/16 86/3/18 88/3/15
f 76/1/2 91/3/23 89/3/22
f 91/3/23 76/1/2 75/1/6
f 92/3/25 75/1/6 77/1/11
f 75/1/6 92/3/25 91/3/23
f 83/1/9 88/3/15 90/3/14
f 88/3/15 83/1/9 94/1/16
f 95/2/20 93/1/17 94/1/16
f 93/1/17 95/2/20 96/2/24
f 81/2/3 76/1/2 82/1/1
f 76/1/2 81/2/3 74/2/4
f 82/1/1 89/3/22 87/3/21
f 89/3/22 82/1/1 76/1/2
f 96/2/24 80/1/8 93/1/17
f 80/1/8 96/2/24 79/2/7
f 95/2/13 79/2/13 96/2/13
f 79/2/13 95/2/13 81/2/13
f 81/2/13 95/2/13 74/2/13
f 74/2/13 95/2/13 84/2/13
f 74/2/13 84/2/13 78/2/13
f 74/2/13 78/2/13 73/2/13
f 92/3/25 83/1/9 90/3/14
f 83/1/9 92/3/25 77/1/11
f 82/1/1 85/3/19 80/1/8
f 85/3/19 82/1/1 87/3/21
f 84/2/10 94/1/16 83/1/9
f 94/1/16 84/2/10 95/2/20

g body

v -0.3124999 0.18125 0.3125 1 1 1
v -0.3125 0.18125 -0.3125 1 1 1
v -0.5 0.30625 0.5 1 1 1
v -0.5 0.30625 -0.5000001 1 1 1
v 0.3125 0.18125 0.3125 1 1 1
v 0.3125 0.18125 -0.3125 1 1 1
v 0.5 0.30625 0.5 1 1 1
v 0.3125 0.49375 0.6249999 1 1 1
v -0.3125 0.49375 0.6249999 1 1 1
v 0.5 0.30625 -0.5000001 1 1 1
v -0.3125 0.49375 -0.6250001 1 1 1
v 0.3125 0.49375 -0.6250001 1 1 1
v 0.5 1.30625 -0.5000001 1 1 1
v 0.3125 1.43125 -0.3125 1 1 1
v -0.5 1.30625 -0.5000001 1 1 1
v -0.3125 1.43125 -0.3125 1 1 1
v -0.3125 1.43125 0.3125 1 1 1
v -0.5 1.30625 0.5 1 1 1
v 0.625 1.11875 -0.3125 1 1 1
v 0.5 1.30625 0.5 1 1 1
v 0.625 1.11875 0.3125 1 1 1
v -0.3125 1.11875 -0.6250001 1 1 1
v 0.3125 1.11875 -0.6250001 1 1 1
v 0.3125 1.43125 0.3125 1 1 1
v -0.625 0.49375 0.3125 1 1 1
v -0.625 1.11875 0.3125 1 1 1
v 0.625 0.49375 0.3125 1 1 1
v 0.3125 1.11875 0.6249999 1 1 1
v -0.3125 1.11875 0.6249999 1 1 1
v -0.625 1.11875 -0.3125 1 1 1
v 0.625 0.49375 -0.3125 1 1 1
v -0.625 0.49375 -0.3125 1 1 1
v 0.157295 1.30625 0.5 1 1 1
v 0.05033439 1.30625 0.7499999 1 1 1
v -0.1572949 1.30625 0.5 1 1 1
v -0.05033436 1.30625 0.7499999 1 1 1
v 0.3233949 1.40625 0.5 1 1 1
v 0.2339 1.40625 0.5 1 1 1
v 0.3617933 1.548639 0.5 1 1 1
v 0.1955017 1.548639 0.5 1 1 1
v 0.1734225 1.808557 0.5 1 1 1
v 0.3838725 1.808557 0.5 1 1 1
v 0.215168 1.881267 0.5 1 1 1
v 0.3421269 1.881267 0.5 1 1 1
v -0.2339 1.40625 0.5 1 1 1
v -0.3233948 1.40625 0.5 1 1 1
v -0.1955016 1.548639 0.5 1 1 1
v -0.3617932 1.548639 0.5 1 1 1
v -0.3838724 1.808557 0.5 1 1 1
v -0.1734224 1.808557 0.5 1 1 1
v -0.3421268 1.881267 0.5 1 1 1
v -0.215168 1.881267 0.5 1 1 1
v -0.1572949 1.30625 0.3499999 1 1 1
v -0.1572949 1.30625 0.4999999 1 1 1
v -0.3999999 1.30625 0.3499999 1 1 1
v -0.3999999 1.30625 0.4999999 1 1 1
v -0.4861602 1.83125 0.3499999 1 1 1
v -0.42154 1.94375 0.3499999 1 1 1
v -0.4861602 1.83125 0.4999999 1 1 1
v -0.42154 1.94375 0.4999999 1 1 1
v -0.1357548 1.94375 0.3499999 1 1 1
v -0.07113454 1.83125 0.3499999 1 1 1
v -0.1357548 1.94375 0.4999999 1 1 1
v -0.07113454 1.83125 0.4999999 1 1 1
v -0.4606762 1.53125 0.3499999 1 1 1
v -0.4606762 1.53125 0.4999999 1 1 1
v -0.09661859 1.53125 0.3499999 1 1 1
v -0.09661859 1.53125 0.4999999 1 1 1
v -0.2005409 1.98125 0.3499999 1 1 1
v -0.2005409 1.98125 0.4999999 1 1 1
v -0.3567539 1.98125 0.3499999 1 1 1
v -0.3567539 1.98125 0.4999999 1 1 1
v -0.1636524 1.970266 0.3499999 1 1 1
v -0.1636524 1.970266 0.4999999 1 1 1
v -0.3936424 1.970266 0.3499999 1 1 1
v -0.3936424 1.970266 0.4999999 1 1 1
v -0.3421268 1.881267 0.4999999 1 1 1
v -0.215168 1.881267 0.4999999 1 1 1
v -0.3838724 1.808557 0.4999999 1 1 1
v -0.3617932 1.548639 0.4999999 1 1 1
v -0.3233948 1.40625 0.4999999 1 1 1
v -0.1734224 1.808557 0.4999999 1 1 1
v -0.1955016 1.548639 0.4999999 1 1 1
v -0.2339 1.40625 0.4999999 1 1 1
v 0.4 1.30625 0.3499999 1 1 1
v 0.4 1.30625 0.4999999 1 1 1
v 0.1572949 1.30625 0.3499999 1 1 1
v 0.1572949 1.30625 0.4999999 1 1 1
v 0.0711346 1.83125 0.3499999 1 1 1
v 0.1357549 1.94375 0.3499999 1 1 1
v 0.0711346 1.83125 0.4999999 1 1 1
v 0.1357549 1.94375 0.4999999 1 1 1
v 0.4215401 1.94375 0.3499999 1 1 1
v 0.4861604 1.83125 0.3499999 1 1 1
v 0.4215401 1.94375 0.4999999 1 1 1
v 0.4861604 1.83125 0.4999999 1 1 1
v 0.09661865 1.53125 0.3499999 1 1 1
v 0.09661865 1.53125 0.4999999 1 1 1
v 0.4606763 1.53125 0.3499999 1 1 1
v 0.4606763 1.53125 0.4999999 1 1 1
v 0.3567539 1.98125 0.3499999 1 1 1
v 0.3567539 1.98125 0.4999999 1 1 1
v 0.200541 1.98125 0.3499999 1 1 1
v 0.200541 1.98125 0.4999999 1 1 1
v 0.3936425 1.970266 0.3499999 1 1 1
v 0.3936425 1.970266 0.4999999 1 1 1
v 0.1636525 1.970266 0.3499999 1 1 1
v 0.1636525 1.970266 0.4999999 1 1 1
v 0.215168 1.881267 0.4999999 1 1 1
v 0.3421269 1.881267 0.4999999 1 1 1
v 0.1734225 1.808557 0.4999999 1 1 1
v 0.1955017 1.548639 0.4999999 1 1 1
v 0.2339 1.40625 0.4999999 1 1 1
v 0.3838725 1.808557 0.4999999 1 1 1
v 0.3617933 1.548639 0.4999999 1 1 1
v 0.3233949 1.40625 0.4999999 1 1 1
v 0.03535536 0.8668159 0.6249999 1 1 1
v 0.0707107 0.8314606 0.6249999 1 1 1
v 0.03535536 0.8668159 0.6749999 1 1 1
v 0.0707107 0.8314606 0.6749999 1 1 1
v 1.573182E-08 0.7607499 0.6249999 1 1 1
v -0.07071067 0.8314606 0.6249999 1 1 1
v -0.03535533 0.8668159 0.6249999 1 1 1
v -0.07071067 0.8314606 0.6749999 1 1 1
v -0.03535533 0.8668159 0.6749999 1 1 1
v 1.573182E-08 0.7607499 0.6749999 1 1 1
v 0.4272919 0.80875 0.6349999 1 1 1
v 0.2677082 0.80875 0.6349999 1 1 1
v 0.4625001 0.89375 0.6349999 1 1 1
v 0.3029163 0.89375 0.6349999 1 1 1
v 0.4039214 1.035171 0.6349999 1 1 1
v 0.2677082 0.97875 0.6349999 1 1 1
v 0.1827082 1.013958 0.6349999 1 1 1
v 0.1210787 1.035171 0.6349999 1 1 1
v 0.2625 1.09375 0.6349999 1 1 1
v 0.0977082 0.97875 0.6349999 1 1 1
v -0.09770814 0.97875 0.6349999 1 1 1
v -0.1827081 1.013958 0.6349999 1 1 1
v -0.1210786 1.035171 0.6349999 1 1 1
v -0.4039213 1.035171 0.6349999 1 1 1
v -0.2625 1.09375 0.6349999 1 1 1
v -0.2677081 0.97875 0.6349999 1 1 1
v -0.4624999 0.89375 0.6349999 1 1 1
v -0.3029163 0.89375 0.6349999 1 1 1
v -0.2677081 0.80875 0.6349999 1 1 1
v -0.4272918 0.80875 0.6349999 1 1 1
v 0.0977082 0.80875 0.6349999 1 1 1
v 0.06250003 0.89375 0.6349999 1 1 1
v -0.09770814 0.80875 0.6349999 1 1 1
v -0.06249997 0.89375 0.6349999 1 1 1

vn -0.223241 -0.9488556 0.2232411
vn -0.223241 -0.9488556 -0.223241
vn -0.5773503 -0.5773503 0.5773503
vn -0.5773503 -0.5773503 -0.5773503
vn 0.2232411 -0.9488556 0.2232411
vn 0.2232411 -0.9488556 -0.2232411
vn 0.5773503 -0.5773503 0.5773503
vn 0.2232411 -0.2232411 0.9488556
vn -0.2232411 -0.2232411 0.9488556
vn 0.5773503 -0.5773503 -0.5773503
vn -0.2232411 -0.2232411 -0.9488556
vn 0.2232411 -0.2232411 -0.9488556
vn 0.5773503 0.5773503 -0.5773503
vn 0.223241 0.9488556 -0.2232411
vn -0.5773503 0.5773503 -0.5773503
vn -0.2232411 0.9488556 -0.2232411
vn -0.2232411 0.9488556 0.2232411
vn -0.5773503 0.5773503 0.5773503
vn 0.9488556 0.2232411 -0.2232411
vn 0.5773503 0.5773503 0.5773503
vn 0.9488556 0.2232411 0.2232411
vn -0.2232411 0.2232411 -0.9488556
vn 0.2232411 0.2232411 -0.9488556
vn 0.223241 0.9488556 0.2232411
vn -0.9488556 -0.2232411 0.2232411
vn -0.9488556 0.2232411 0.2232411
vn 0.9488556 -0.2232411 0.2232411
vn 0.2232411 0.2232411 0.9488556
vn -0.2232411 0.2232411 0.9488556
vn -0.9488556 0.2232411 -0.2232411
vn 0.9488556 -0.2232411 -0.2232411
vn -0.9488556 -0.2232411 -0.2232411
vn 0 1 -1.192093E-07
vn 0 -1 1.192093E-07
vn 0 0 1
vn -0.9762625 0.2165905 0
vn -0.7862502 0.6179084 0
vn 0.7862502 0.6179084 0
vn 0.9762625 0.2165905 0
vn -0.9848872 -0.1731971 0
vn -0.9655087 -0.260371 0
vn 0.9848872 -0.1731971 0
vn 0.9655087 -0.260371 0
vn 0.1441904 0.9895499 0
vn -0.1441904 0.9895499 0
vn 0.5009584 0.8654714 0
vn -0.5009584 0.8654714 0
vn 0 0 -1
vn 0.3922322 0.3922322 -0.8320503
vn 0.8164966 0 -0.5773503
vn 0.3922322 0.3922322 0.8320503
vn 0.8164966 0 0.5773503
vn 0 -0.8164966 -0.5773503
vn -0.8164966 0 -0.5773503
vn -0.3922322 0.3922322 -0.8320503
vn -0.8164966 0 0.5773503
vn -0.3922322 0.3922322 0.8320503
vn 0 -0.8164966 0.5773503

vt 0.21875 0.295
vt 0.21875 0.325
vt 0.21875 0.455
vt 0.21875 0.425
vt 0.21875 0.465
vt 0.21875 0.355
vt 0.21875 0.3310195
vt 0.21875 0.2872455
vt 0.21875 0.4027778
vt 0.21875 0.4194444
vt 0.21875 0.3583333
vt 0.21875 0.4233728
vt 0.21875 0.4101877
vt 0.21875 0.3994158
vt 0.21875 0.3609095
vt 0.21875 0.3398148
vt 0.09375 0.225
vt 0.09375 0.1583333
vt 0.09375 0.025
vt 0.09375 0.418
vt 0.09375 0.435
vt 0.09375 0.4632843
vt 0.09375 0.452
vt 0.09375 0.4590416
vt 0.09375 0.475
vt 0.84375 0.168
vt 0.84375 0.185
vt 0.84375 0.202
vt 0.84375 0.2090416

usemtl colormap

f 99/4/28 98/2/27 97/2/26
f 98/2/27 99/4/28 100/4/29
f 97/2/26 102/2/31 101/2/30
f 102/2/31 97/2/26 98/2/27
f 104/5/33 99/4/28 103/4/32
f 99/4/28 104/5/33 105/5/34
f 107/5/36 106/4/35 100/4/29
f 106/4/35 107/5/36 108/5/37
f 111/6/40 110/3/39 109/6/38
f 110/3/39 111/6/40 112/3/41
f 112/3/41 114/6/43 113/3/42
f 114/6/43 112/3/41 111/6/40
f 116/6/45 115/7/44 109/6/38
f 115/7/44 116/6/45 117/7/46
f 99/4/28 101/2/30 103/4/32
f 101/2/30 99/4/28 97/2/26
f 111/6/40 107/5/36 100/4/29
f 107/5/36 111/6/40 118/7/47
f 103/4/32 102/2/31 106/4/35
f 102/2/31 103/4/32 101/2/30
f 118/7/47 108/5/37 107/5/36
f 108/5/37 118/7/47 119/7/48
f 110/3/39 113/3/42 120/3/49
f 113/3/42 110/3/39 112/3/41
f 99/4/28 122/7/51 121/5/50
f 122/7/51 99/4/28 114/6/43
f 116/6/45 123/5/52 117/7/46
f 123/5/52 116/6/45 103/4/32
f 124/7/53 105/5/34 104/5/33
f 105/5/34 124/7/53 125/7/54
f 126/7/55 114/6/43 111/6/40
f 114/6/43 126/7/55 122/7/51
f 116/6/45 125/7/54 124/7/53
f 125/7/54 116/6/45 114/6/43
f 127/5/56 103/4/32 106/4/35
f 103/4/32 127/5/56 123/5/52
f 116/6/45 104/5/33 103/4/32
f 104/5/33 116/6/45 124/7/53
f 108/5/37 109/6/38 106/4/35
f 109/6/38 108/5/37 119/7/48
f 128/5/57 111/6/40 100/4/29
f 111/6/40 128/5/57 126/7/55
f 117/7/46 127/5/56 115/7/44
f 127/5/56 117/7/46 123/5/52
f 102/2/31 100/4/29 106/4/35
f 100/4/29 102/2/31 98/2/27
f 99/4/28 128/5/57 100/4/29
f 128/5/57 99/4/28 121/5/50
f 120/3/49 114/6/43 116/6/45
f 114/6/43 120/3/49 113/3/42
f 115/7/44 106/4/35 109/6/38
f 106/4/35 115/7/44 127/5/56
f 111/6/40 119/7/48 118/7/47
f 119/7/48 111/6/40 109/6/38
f 105/5/34 114/6/43 99/4/28
f 114/6/43 105/5/34 125/7/54
f 121/5/50 126/7/55 128/5/57
f 126/7/55 121/5/50 122/7/51
f 110/3/39 116/6/45 109/6/38
f 116/6/45 110/3/39 120/3/49
f 131/3/58 130/8/58 129/3/58
f 130/8/58 131/3/58 132/8/58
f 129/3/59 130/8/59 131/3/59
f 132/8/59 131/3/59 130/8/59
f 135/10/60 134/9/60 133/9/60
f 134/9/60 135/10/60 136/10/60
f 136/10/60 135/10/60 137/11/60
f 137/11/60 135/10/60 138/11/60
f 137/11/60 138/11/60 139/2/60
f 139/2/60 138/11/60 140/2/60
f 143/10/60 142/9/60 141/9/60
f 142/9/60 143/10/60 144/10/60
f 144/10/60 143/10/60 145/11/60
f 145/11/60 143/10/60 146/11/60
f 145/11/60 146/11/60 147/2/60
f 147/2/60 146/11/60 148/2/60
f 151/5/13 150/5/13 149/5/13
f 150/5/13 151/5/13 152/5/13
f 155/12/61 154/13/62 153/12/61
f 154/13/62 155/12/61 156/13/62
f 159/13/63 158/12/64 157/13/63
f 158/12/64 159/13/63 160/12/64
f 162/14/65 153/12/61 161/14/65
f 153/12/61 162/14/65 155/12/61
f 152/5/66 161/14/65 151/5/66
f 161/14/65 152/5/66 162/14/65
f 164/14/67 149/5/68 163/14/67
f 149/5/68 164/14/67 150/5/68
f 160/12/64 163/14/67 158/12/64
f 163/14/67 160/12/64 164/14/67
f 167/7/70 166/7/69 165/7/69
f 166/7/69 167/7/70 168/7/70
f 165/7/69 170/15/71 169/15/71
f 170/15/71 165/7/69 166/7/69
f 171/15/72 168/7/70 167/7/70
f 168/7/70 171/15/72 172/15/72
f 169/15/71 159/13/63 157/13/63
f 159/13/63 169/15/71 170/15/71
f 154/13/62 172/15/72 171/15/72
f 172/15/72 154/13/62 156/13/62
f 161/14/73 149/5/73 151/5/73
f 149/5/73 161/14/73 163/14/73
f 163/14/73 161/14/73 153/12/73
f 163/14/73 153/12/73 158/12/73
f 158/12/73 153/12/73 154/13/73
f 158/12/73 154/13/73 157/13/73
f 157/13/73 154/13/73 171/15/73
f 157/13/73 171/15/73 169/15/73
f 169/15/73 171/15/73 167/7/73
f 169/15/73 167/7/73 165/7/73
f 172/15/60 166/7/60 168/7/60
f 172/15/60 170/15/60 166/7/60
f 172/15/60 159/13/60 170/15/60
f 156/13/60 159/13/60 172/15/60
f 173/16/60 159/13/60 156/13/60
f 155/12/60 173/16/60 156/13/60
f 174/16/60 159/13/60 173/16/60
f 155/12/60 175/17/60 173/16/60
f 155/12/60 176/18/60 175/17/60
f 162/14/60 176/18/60 155/12/60
f 162/14/60 177/19/60 176/18/60
f 152/5/60 177/19/60 162/14/60
f 174/16/60 160/12/60 159/13/60
f 178/17/60 160/12/60 174/16/60
f 179/18/60 160/12/60 178/17/60
f 179/18/60 164/14/60 160/12/60
f 177/19/60 152/5/60 180/19/60
f 180/19/60 164/14/60 179/18/60
f 150/5/60 180/19/60 152/5/60
f 180/19/60 150/5/60 164/14/60
f 183/5/13 182/5/13 181/5/13
f 182/5/13 183/5/13 184/5/13
f 187/12/61 186/13/62 185/12/61
f 186/13/62 187/12/61 188/13/62
f 191/13/63 190/12/64 189/13/63
f 190/12/64 191/13/63 192/12/64
f 194/14/65 185/12/61 193/14/65
f 185/12/61 194/14/65 187/12/61
f 184/5/66 193/14/65 183/5/66
f 193/14/65 184/5/66 194/14/65
f 196/14/67 181/5/68 195/14/67
f 181/5/68 196/14/67 182/5/68
f 192/12/64 195/14/67 190/12/64
f 195/14/67 192/12/64 196/14/67
f 199/7/70 198/7/69 197/7/69
f 198/7/69 199/7/70 200/7/70
f 197/7/69 202/15/71 201/15/71
f 202/15/71 197/7/69 198/7/69
f 203/15/72 200/7/70 199/7/70
f 200/7/70 203/15/72 204/15/72
f 201/15/71 191/13/63 189/13/63
f 191/13/63 201/15/71 202/15/71
f 186/13/62 204/15/72 203/15/72
f 204/15/72 186/13/62 188/13/62
f 193/14/73 181/5/73 183/5/73
f 181/5/73 193/14/73 195/14/73
f 195/14/73 193/14/73 185/12/73
f 195/14/73 185/12/73 190/12/73
f 190/12/73 185/12/73 186/13/73
f 190/12/73 186/13/73 189/13/73
f 189/13/73 186/13/73 203/15/73
f 189/13/73 203/15/73 201/15/73
f 201/15/73 203/15/73 199/7/73
f 201/15/73 199/7/73 197/7/73
f 204/15/60 198/7/60 200/7/60
f 204/15/60 202/15/60 198/7/60
f 204/15/60 191/13/60 202/15/60
f 188/13/60 191/13/60 204/15/60
f 205/16/60 191/13/60 188/13/60
f 187/12/60 205/16/60 188/13/60
f 206/16/60 191/13/60 205/16/60
f 187/12/60 207/17/60 205/16/60
f 187/12/60 208/18/60 207/17/60
f 194/14/60 208/18/60 187/12/60
f 194/14/60 209/19/60 208/18/60
f 184/5/60 209/19/60 194/14/60
f 206/16/60 192/12/60 191/13/60
f 210/17/60 192/12/60 206/16/60
f 211/18/60 192/12/60 210/17/60
f 211/18/60 196/14/60 192/12/60
f 209/19/60 184/5/60 212/19/60
f 212/19/60 196/14/60 211/18/60
f 182/5/60 212/19/60 184/5/60
f 212/19/60 182/5/60 196/14/60
f 215/20/76 214/21/75 213/20/74
f 214/21/75 215/20/76 216/21/77
f 218/21/79 214/21/75 217/22/78
f 214/21/75 218/21/79 213/20/74
f 213/20/74 218/21/79 219/20/80
f 220/21/81 219/20/80 218/21/79
f 219/20/80 220/21/81 221/20/82
f 216/21/77 217/22/78 214/21/75
f 217/22/78 216/21/77 222/22/83
f 220/21/81 217/22/78 222/22/83
f 217/22/78 220/21/81 218/21/79
f 216/21/77 220/21/81 222/22/83
f 220/21/81 216/21/77 215/20/76
f 220/21/81 215/20/76 221/20/82
f 219/20/13 215/20/13 213/20/13
f 215/20/13 219/20/13 221/20/13
f 225/24/60 224/23/60 223/23/60
f 224/23/60 225/24/60 226/24/60
f 226/24/60 225/24/60 227/25/60
f 226/24/60 227/25/60 228/26/60
f 228/26/60 227/25/60 229/27/60
f 230/25/60 229/27/60 227/25/60
f 230/25/60 227/25/60 231/28/60
f 229/27/60 230/25/60 232/26/60
f 235/25/60 234/27/60 233/26/60
f 236/25/60 234/27/60 235/25/60
f 236/25/60 235/25/60 237/28/60
f 236/25/60 238/26/60 234/27/60
f 239/24/60 238/26/60 236/25/60
f 239/24/60 240/24/60 238/26/60
f 239/24/60 241/23/60 240/24/60
f 241/23/60 239/24/60 242/23/60
f 226/30/60 243/29/60 224/29/60
f 243/29/60 226/30/60 244/30/60
f 244/30/60 226/30/60 228/31/60
f 244/30/60 228/31/60 232/31/60
f 232/31/60 228/31/60 229/32/60
f 246/30/60 241/29/60 245/29/60
f 241/29/60 246/30/60 240/30/60
f 240/30/60 246/30/60 233/31/60
f 240/30/60 233/31/60 238/31/60
f 238/31/60 233/31/60 234/32/60

g Group

v 0.07094305 0.6864265 0.6349999 1 1 1
v 0.01617905 0.6992556 0.6349999 1 1 1
v 0.125707 0.6992556 0.6349999 1 1 1
v 1.573182E-08 0.7126181 0.6349999 1 1 1
v 0.1690748 0.7350735 0.6349999 1 1 1
v 0.07094305 0.7334393 0.6349999 1 1 1
v 0.1048262 0.7413769 0.6349999 1 1 1
v 0.1805483 0.76075 0.6349999 1 1 1
v 0.1316584 0.7635378 0.6349999 1 1 1
v 0.1638984 0.7864265 0.6349999 1 1 1
v 0.1418861 0.7864265 0.6349999 1 1 1
v -0.07094298 0.7334393 0.6349999 1 1 1
v -0.03705984 0.7413769 0.6349999 1 1 1
v 0.0370599 0.7413769 0.6349999 1 1 1
v -0.0159535 0.7626557 0.6349999 1 1 1
v 0.01595356 0.7626557 0.6349999 1 1 1
v -0.1690748 0.7350735 0.6349999 1 1 1
v -0.1048262 0.7413769 0.6349999 1 1 1
v -0.01617901 0.6992556 0.6349999 1 1 1
v -0.125707 0.6992556 0.6349999 1 1 1
v -0.07094298 0.6864265 0.6349999 1 1 1
v -0.1805482 0.76075 0.6349999 1 1 1
v -0.1316584 0.7635378 0.6349999 1 1 1
v -0.1638983 0.7864265 0.6349999 1 1 1
v -0.141886 0.7864265 0.6349999 1 1 1


vt 0.84375 0.025
vt 0.84375 0.05065838
vt 0.84375 0.07738321
vt 0.84375 0.1222941
vt 0.84375 0.1190257
vt 0.84375 0.1349008
vt 0.84375 0.173647
vt 0.84375 0.1792227
vt 0.84375 0.225
vt 0.84375 0.1774584

usemtl colormap

f 249/34/60 248/34/60 247/33/60
f 248/34/60 249/34/60 250/35/60
f 250/35/60 249/34/60 251/36/60
f 250/35/60 251/36/60 252/37/60
f 252/37/60 251/36/60 253/38/60
f 253/38/60 251/36/60 254/39/60
f 253/38/60 254/39/60 255/40/60
f 255/40/60 254/39/60 256/41/60
f 255/40/60 256/41/60 257/41/60
f 250/35/60 252/37/60 258/37/60
f 252/37/60 259/38/60 258/37/60
f 259/38/60 252/37/60 260/38/60
f 259/38/60 260/38/60 261/42/60
f 261/42/60 260/38/60 262/42/60
f 263/36/60 250/35/60 258/37/60
f 263/36/60 258/37/60 264/38/60
f 263/36/60 265/34/60 250/35/60
f 266/34/60 265/34/60 263/36/60
f 265/34/60 266/34/60 267/33/60
f 263/36/60 264/38/60 268/39/60
f 268/39/60 264/38/60 269/40/60
f 268/39/60 269/40/60 270/41/60
f 270/41/60 269/40/60 271/41/60

