# Created by Kenney (www.kenney.nl)

mtllib barrel.mtl

g barrel

v 4.448707E-15 1.127779 -0.316859 1 1 1
v -0.2240531 1.127779 -0.2240531 1 1 1
v 3.517008E-15 1.229143 -0.3864134 1 1 1
v -0.2732355 1.229143 -0.2732355 1 1 1
v 0.2732355 1.229143 -0.2732355 1 1 1
v 0.3864134 1.229143 0 1 1 1
v 0.2240531 1.127779 -0.2240531 1 1 1
v 0.316859 1.127779 3.726795E-15 1 1 1
v -0.2240531 1.127779 0.2240531 1 1 1
v 4.448707E-15 1.127779 0.316859 1 1 1
v -0.2732355 1.229143 0.2732355 1 1 1
v 3.517008E-15 1.229143 0.3864134 1 1 1
v 1.65361E-15 0 0.503747 1 1 1
v -0.3562029 0 0.3562029 1 1 1
v 1.65361E-15 0.3584999 0.6296837 1 1 1
v -0.4452536 0.3584999 0.4452536 1 1 1
v 0.2732355 1.229143 0.2732355 1 1 1
v 0.2240531 1.127779 0.2240531 1 1 1
v 0.503747 1.229143 0 1 1 1
v 0.6296837 0.8706427 0 1 1 1
v 0.3562029 1.229143 0.3562029 1 1 1
v 0.4452536 0.8706427 0.4452536 1 1 1
v -0.3864134 1.229143 0 1 1 1
v -0.316859 1.127779 3.726795E-15 1 1 1
v 0.4452536 0.8706427 -0.4452536 1 1 1
v 0.3562029 1.229143 -0.3562029 1 1 1
v 0.4452536 0.3584999 -0.4452536 1 1 1
v 0.6296837 0.3584999 0 1 1 1
v -0.4452536 0.3584999 -0.4452536 1 1 1
v -0.4452536 0.8706427 -0.4452536 1 1 1
v -0.6296837 0.3584999 0 1 1 1
v -0.6296837 0.8706427 0 1 1 1
v -0.3562029 0 -0.3562029 1 1 1
v 1.65361E-15 0 -0.503747 1 1 1
v 1.65361E-15 0.3584999 -0.6296837 1 1 1
v -0.4452536 0.8706427 0.4452536 1 1 1
v 1.65361E-15 0.8706427 -0.6296837 1 1 1
v 1.65361E-15 1.229143 -0.503747 1 1 1
v 1.65361E-15 0.8706427 0.6296837 1 1 1
v 1.65361E-15 1.229143 0.503747 1 1 1
v -0.503747 1.229143 0 1 1 1
v -0.3562029 1.229143 0.3562029 1 1 1
v -0.3562029 1.229143 -0.3562029 1 1 1
v 0.3562029 0 0.3562029 1 1 1
v 0.4452536 0.3584999 0.4452536 1 1 1
v 0.3562029 0 -0.3562029 1 1 1
v -0.503747 0 0 1 1 1
v 0.503747 0 0 1 1 1
v -0.4723819 0.7385098 -0.472382 1 1 1
v 0 0.7385098 -0.6680491 1 1 1
v -0.4723819 0.9863869 -0.472382 1 1 1
v 0 0.9863869 -0.6680491 1 1 1
v 0.472382 0.7385098 -0.472382 1 1 1
v 0.472382 0.9863869 -0.472382 1 1 1
v -0.6680491 0.7385098 0 1 1 1
v -0.6680491 0.9863869 0 1 1 1
v -0.4723819 0.7385098 0.4723819 1 1 1
v -0.4723819 0.9863869 0.4723819 1 1 1
v 0.6680491 0.2427557 0 1 1 1
v 0.472382 0.2427557 -0.472382 1 1 1
v 0.472382 0.2427557 0.4723819 1 1 1
v 0 0.2427557 0.6680491 1 1 1
v 0 0.2427557 -0.6680491 1 1 1
v -0.4723819 0.2427557 0.4723819 1 1 1
v -0.4723819 0.2427557 -0.472382 1 1 1
v -0.6680491 0.2427557 0 1 1 1
v 0.472382 0.7385098 0.4723819 1 1 1
v 0 0.7385098 0.6680491 1 1 1
v 0.472382 0.9863869 0.4723819 1 1 1
v 0 0.9863869 0.6680491 1 1 1
v 0.6680491 0.4906327 0 1 1 1
v 0.472382 0.4906327 0.4723819 1 1 1
v 0.472382 0.4906327 -0.472382 1 1 1
v 0 0.4906327 -0.6680491 1 1 1
v 0 0.4906327 0.6680491 1 1 1
v -0.4723819 0.4906327 -0.472382 1 1 1
v -0.4723819 0.4906327 0.4723819 1 1 1
v -0.6680491 0.4906327 0 1 1 1
v 0.6680491 0.7385098 0 1 1 1
v 0.6680491 0.9863869 0 1 1 1

vn 0 0.8370838 0.5470745
vn 0.3868401 0.8370838 0.3868401
vn 0 0.5657932 0.8245472
vn 0.5830429 0.5657932 0.5830429
vn -0.5830429 0.5657932 0.5830429
vn -0.8245472 0.5657932 0
vn -0.3868401 0.8370838 0.3868401
vn -0.5470745 0.8370838 0
vn 0.3868401 0.8370838 -0.3868401
vn 0 0.8370838 -0.5470745
vn 0.5830429 0.5657932 -0.5830429
vn 0 0.5657932 -0.8245472
vn -0.3639933 -0.3086971 0.8787577
vn -0.3783728 -0.1496722 0.9134727
vn -0.5830429 0.5657932 -0.5830429
vn -0.3868401 0.8370838 -0.3868401
vn 0.8787577 0.3086971 0.3639933
vn 0.9134727 0.1496722 0.3783728
vn 0.8245472 0.5657932 0
vn 0.5470745 0.8370838 0
vn 0.9134727 0.1496722 -0.3783728
vn 0.8787577 0.3086971 -0.3639933
vn 0.9134727 -0.1496722 -0.3783728
vn -0.9134727 -0.1496722 -0.3783728
vn -0.9134727 0.1496722 -0.3783728
vn -0.3639933 -0.3086971 -0.8787577
vn -0.3783728 -0.1496722 -0.9134727
vn -0.9134727 -0.1496722 0.3783728
vn -0.9134727 0.1496722 0.3783728
vn 0.3783728 0.1496722 -0.9134727
vn 0.3639933 0.3086971 -0.8787577
vn 0.3783728 0.1496722 0.9134727
vn 0.3639933 0.3086971 0.8787577
vn -0.8787577 0.3086971 0.3639933
vn -0.3783728 0.1496722 -0.9134727
vn -0.3639933 0.3086971 -0.8787577
vn 0.3783728 -0.1496722 -0.9134727
vn 0.3639933 -0.3086971 0.8787577
vn 0.3783728 -0.1496722 0.9134727
vn 0.3639933 -0.3086971 -0.8787577
vn -0.3783728 0.1496722 0.9134727
vn -0.3639933 0.3086971 0.8787577
vn -0.8787577 -0.3086971 0.3639933
vn 0.9134727 -0.1496722 0.3783728
vn 0.8787577 -0.3086971 0.3639933
vn 0 -1 0
vn -0.8787577 0.3086971 -0.3639933
vn 0.8787577 -0.3086971 -0.3639933
vn -0.8787577 -0.3086971 -0.3639933
vn 0 1 0
vn -0.7071068 0 -0.7071068
vn 0 0 -1
vn 0.7071068 0 -0.7071068
vn -1 0 0
vn -0.7071068 0 0.7071068
vn 0.7071068 0 0.7071068
vn 0 0 1
vn 1 0 0

vt 0.71875 0.2085066
vt 0.71875 0.225
vt 0.71875 0.025
vt 0.71875 0.08333333
vt 0.71875 0.1666666
vt 0.46875 0.1416667
vt 0.46875 0.175
vt 0.46875 0.075
vt 0.46875 0.1083333

usemtl colormap

f 3/2/3 2/1/2 1/1/1
f 2/1/2 3/2/3 4/2/4
f 7/1/7 6/2/6 5/2/5
f 6/2/6 7/1/7 8/1/8
f 11/2/11 10/1/10 9/1/9
f 10/1/10 11/2/11 12/2/12
f 15/4/14 14/3/13 13/3/13
f 14/3/13 15/4/14 16/4/14
f 8/1/8 17/2/15 6/2/6
f 17/2/15 8/1/8 18/1/16
f 21/2/17 20/5/18 19/2/17
f 20/5/18 21/2/17 22/5/18
f 11/2/11 24/1/20 23/2/19
f 24/1/20 11/2/11 9/1/9
f 7/1/7 18/1/16 8/1/8
f 18/1/16 7/1/7 1/1/1
f 18/1/16 1/1/1 10/1/10
f 10/1/10 1/1/1 2/1/2
f 10/1/10 2/1/2 9/1/9
f 9/1/9 2/1/2 24/1/20
f 26/2/22 20/5/21 25/5/21
f 20/5/21 26/2/22 19/2/22
f 20/5/21 27/4/23 25/5/21
f 27/4/23 20/5/21 28/4/23
f 31/4/24 30/5/25 29/4/24
f 30/5/25 31/4/24 32/5/25
f 29/4/27 34/3/26 33/3/26
f 34/3/26 29/4/27 35/4/27
f 16/4/28 32/5/29 31/4/28
f 32/5/29 16/4/28 36/5/29
f 38/2/31 25/5/30 37/5/30
f 25/5/30 38/2/31 26/2/31
f 21/2/33 39/5/32 22/5/32
f 39/5/32 21/2/33 40/2/33
f 36/5/29 41/2/34 32/5/29
f 41/2/34 36/5/29 42/2/34
f 43/2/36 37/5/35 30/5/35
f 37/5/35 43/2/36 38/2/36
f 37/5/30 27/4/37 35/4/37
f 27/4/37 37/5/30 25/5/30
f 23/2/19 2/1/2 4/2/4
f 2/1/2 23/2/19 24/1/20
f 45/4/39 13/3/38 44/3/38
f 13/3/38 45/4/39 15/4/39
f 35/4/37 46/3/40 34/3/40
f 46/3/40 35/4/37 27/4/37
f 12/2/12 18/1/16 10/1/10
f 18/1/16 12/2/12 17/2/15
f 40/2/42 36/5/41 39/5/41
f 36/5/41 40/2/42 42/2/42
f 30/5/35 35/4/27 29/4/27
f 35/4/27 30/5/35 37/5/35
f 14/3/43 31/4/28 47/3/43
f 31/4/28 14/3/43 16/4/28
f 45/4/44 48/3/45 28/4/44
f 48/3/45 45/4/44 44/3/45
f 39/5/41 16/4/14 15/4/14
f 16/4/14 39/5/41 36/5/41
f 44/3/46 46/3/46 48/3/46
f 46/3/46 44/3/46 13/3/46
f 46/3/46 13/3/46 34/3/46
f 34/3/46 13/3/46 14/3/46
f 34/3/46 14/3/46 33/3/46
f 33/3/46 14/3/46 47/3/46
f 32/5/25 43/2/47 30/5/25
f 43/2/47 32/5/25 41/2/47
f 28/4/23 46/3/48 27/4/23
f 46/3/48 28/4/23 48/3/48
f 33/3/49 31/4/24 29/4/24
f 31/4/24 33/3/49 47/3/49
f 22/5/18 28/4/44 20/5/18
f 28/4/44 22/5/18 45/4/44
f 22/5/32 15/4/39 45/4/39
f 15/4/39 22/5/32 39/5/32
f 5/2/5 1/1/1 7/1/7
f 1/1/1 5/2/5 3/2/3
f 40/2/50 17/2/50 12/2/50
f 40/2/50 12/2/50 11/2/50
f 21/2/50 17/2/50 40/2/50
f 40/2/50 11/2/50 42/2/50
f 21/2/50 6/2/50 17/2/50
f 6/2/50 21/2/50 19/2/50
f 26/2/50 6/2/50 19/2/50
f 6/2/50 26/2/50 5/2/50
f 42/2/50 11/2/50 23/2/50
f 42/2/50 23/2/50 41/2/50
f 23/2/50 43/2/50 41/2/50
f 4/2/50 43/2/50 23/2/50
f 5/2/50 26/2/50 38/2/50
f 4/2/50 38/2/50 43/2/50
f 5/2/50 38/2/50 3/2/50
f 3/2/50 38/2/50 4/2/50
f 51/7/51 50/6/52 49/6/51
f 50/6/52 51/7/51 52/7/52
f 52/7/52 53/6/53 50/6/52
f 53/6/53 52/7/52 54/7/53
f 57/6/55 56/7/54 55/6/54
f 56/7/54 57/6/55 58/7/55
f 61/8/46 60/8/46 59/8/46
f 60/8/46 61/8/46 62/8/46
f 60/8/46 62/8/46 63/8/46
f 63/8/46 62/8/46 64/8/46
f 63/8/46 64/8/46 65/8/46
f 65/8/46 64/8/46 66/8/46
f 55/6/54 51/7/51 49/6/51
f 51/7/51 55/6/54 56/7/54
f 69/7/56 68/6/57 67/6/56
f 68/6/57 69/7/56 70/7/57
f 73/9/50 72/9/50 71/9/50
f 72/9/50 73/9/50 74/9/50
f 72/9/50 74/9/50 75/9/50
f 75/9/50 74/9/50 76/9/50
f 75/9/50 76/9/50 77/9/50
f 77/9/50 76/9/50 78/9/50
f 70/7/57 57/6/55 68/6/57
f 57/6/55 70/7/57 58/7/55
f 64/8/55 78/9/54 66/8/54
f 78/9/54 64/8/55 77/9/55
f 72/9/56 62/8/57 61/8/56
f 62/8/57 72/9/56 75/9/57
f 75/9/57 64/8/55 62/8/57
f 64/8/55 75/9/57 77/9/55
f 59/8/58 72/9/56 61/8/56
f 72/9/56 59/8/58 71/9/58
f 60/8/53 71/9/58 59/8/58
f 71/9/58 60/8/53 73/9/53
f 66/8/54 76/9/51 65/8/51
f 76/9/51 66/8/54 78/9/54
f 76/9/51 63/8/52 65/8/51
f 63/8/52 76/9/51 74/9/52
f 74/9/52 60/8/53 63/8/52
f 60/8/53 74/9/52 73/9/53
f 79/6/58 69/7/56 67/6/56
f 69/7/56 79/6/58 80/7/58
f 53/6/53 80/7/58 79/6/58
f 80/7/58 53/6/53 54/7/53
f 54/7/50 69/7/50 80/7/50
f 69/7/50 54/7/50 52/7/50
f 69/7/50 52/7/50 70/7/50
f 70/7/50 52/7/50 51/7/50
f 70/7/50 51/7/50 58/7/50
f 58/7/50 51/7/50 56/7/50
f 67/6/46 53/6/46 79/6/46
f 53/6/46 67/6/46 68/6/46
f 53/6/46 68/6/46 50/6/46
f 50/6/46 68/6/46 57/6/46
f 50/6/46 57/6/46 49/6/46
f 49/6/46 57/6/46 55/6/46

g barrel




usemtl colormap

f 3/2/3 2/1/2 1/1/1
f 2/1/2 3/2/3 4/2/4
f 7/1/7 6/2/6 5/2/5
f 6/2/6 7/1/7 8/1/8
f 11/2/11 10/1/10 9/1/9
f 10/1/10 11/2/11 12/2/12
f 15/4/14 14/3/13 13/3/13
f 14/3/13 15/4/14 16/4/14
f 8/1/8 17/2/15 6/2/6
f 17/2/15 8/1/8 18/1/16
f 21/2/17 20/5/18 19/2/17
f 20/5/18 21/2/17 22/5/18
f 11/2/11 24/1/20 23/2/19
f 24/1/20 11/2/11 9/1/9
f 7/1/7 18/1/16 8/1/8
f 18/1/16 7/1/7 1/1/1
f 18/1/16 1/1/1 10/1/10
f 10/1/10 1/1/1 2/1/2
f 10/1/10 2/1/2 9/1/9
f 9/1/9 2/1/2 24/1/20
f 26/2/22 20/5/21 25/5/21
f 20/5/21 26/2/22 19/2/22
f 20/5/21 27/4/23 25/5/21
f 27/4/23 20/5/21 28/4/23
f 31/4/24 30/5/25 29/4/24
f 30/5/25 31/4/24 32/5/25
f 29/4/27 34/3/26 33/3/26
f 34/3/26 29/4/27 35/4/27
f 16/4/28 32/5/29 31/4/28
f 32/5/29 16/4/28 36/5/29
f 38/2/31 25/5/30 37/5/30
f 25/5/30 38/2/31 26/2/31
f 21/2/33 39/5/32 22/5/32
f 39/5/32 21/2/33 40/2/33
f 36/5/29 41/2/34 32/5/29
f 41/2/34 36/5/29 42/2/34
f 43/2/36 37/5/35 30/5/35
f 37/5/35 43/2/36 38/2/36
f 37/5/30 27/4/37 35/4/37
f 27/4/37 37/5/30 25/5/30
f 23/2/19 2/1/2 4/2/4
f 2/1/2 23/2/19 24/1/20
f 45/4/39 13/3/38 44/3/38
f 13/3/38 45/4/39 15/4/39
f 35/4/37 46/3/40 34/3/40
f 46/3/40 35/4/37 27/4/37
f 12/2/12 18/1/16 10/1/10
f 18/1/16 12/2/12 17/2/15
f 40/2/42 36/5/41 39/5/41
f 36/5/41 40/2/42 42/2/42
f 30/5/35 35/4/27 29/4/27
f 35/4/27 30/5/35 37/5/35
f 14/3/43 31/4/28 47/3/43
f 31/4/28 14/3/43 16/4/28
f 45/4/44 48/3/45 28/4/44
f 48/3/45 45/4/44 44/3/45
f 39/5/41 16/4/14 15/4/14
f 16/4/14 39/5/41 36/5/41
f 44/3/46 46/3/46 48/3/46
f 46/3/46 44/3/46 13/3/46
f 46/3/46 13/3/46 34/3/46
f 34/3/46 13/3/46 14/3/46
f 34/3/46 14/3/46 33/3/46
f 33/3/46 14/3/46 47/3/46
f 32/5/25 43/2/47 30/5/25
f 43/2/47 32/5/25 41/2/47
f 28/4/23 46/3/48 27/4/23
f 46/3/48 28/4/23 48/3/48
f 33/3/49 31/4/24 29/4/24
f 31/4/24 33/3/49 47/3/49
f 22/5/18 28/4/44 20/5/18
f 28/4/44 22/5/18 45/4/44
f 22/5/32 15/4/39 45/4/39
f 15/4/39 22/5/32 39/5/32
f 5/2/5 1/1/1 7/1/7
f 1/1/1 5/2/5 3/2/3
f 40/2/50 17/2/50 12/2/50
f 40/2/50 12/2/50 11/2/50
f 21/2/50 17/2/50 40/2/50
f 40/2/50 11/2/50 42/2/50
f 21/2/50 6/2/50 17/2/50
f 6/2/50 21/2/50 19/2/50
f 26/2/50 6/2/50 19/2/50
f 6/2/50 26/2/50 5/2/50
f 42/2/50 11/2/50 23/2/50
f 42/2/50 23/2/50 41/2/50
f 23/2/50 43/2/50 41/2/50
f 4/2/50 43/2/50 23/2/50
f 5/2/50 26/2/50 38/2/50
f 4/2/50 38/2/50 43/2/50
f 5/2/50 38/2/50 3/2/50
f 3/2/50 38/2/50 4/2/50
f 51/7/51 50/6/52 49/6/51
f 50/6/52 51/7/51 52/7/52
f 52/7/52 53/6/53 50/6/52
f 53/6/53 52/7/52 54/7/53
f 57/6/55 56/7/54 55/6/54
f 56/7/54 57/6/55 58/7/55
f 61/8/46 60/8/46 59/8/46
f 60/8/46 61/8/46 62/8/46
f 60/8/46 62/8/46 63/8/46
f 63/8/46 62/8/46 64/8/46
f 63/8/46 64/8/46 65/8/46
f 65/8/46 64/8/46 66/8/46
f 55/6/54 51/7/51 49/6/51
f 51/7/51 55/6/54 56/7/54
f 69/7/56 68/6/57 67/6/56
f 68/6/57 69/7/56 70/7/57
f 73/9/50 72/9/50 71/9/50
f 72/9/50 73/9/50 74/9/50
f 72/9/50 74/9/50 75/9/50
f 75/9/50 74/9/50 76/9/50
f 75/9/50 76/9/50 77/9/50
f 77/9/50 76/9/50 78/9/50
f 70/7/57 57/6/55 68/6/57
f 57/6/55 70/7/57 58/7/55
f 64/8/55 78/9/54 66/8/54
f 78/9/54 64/8/55 77/9/55
f 72/9/56 62/8/57 61/8/56
f 62/8/57 72/9/56 75/9/57
f 75/9/57 64/8/55 62/8/57
f 64/8/55 75/9/57 77/9/55
f 59/8/58 72/9/56 61/8/56
f 72/9/56 59/8/58 71/9/58
f 60/8/53 71/9/58 59/8/58
f 71/9/58 60/8/53 73/9/53
f 66/8/54 76/9/51 65/8/51
f 76/9/51 66/8/54 78/9/54
f 76/9/51 63/8/52 65/8/51
f 63/8/52 76/9/51 74/9/52
f 74/9/52 60/8/53 63/8/52
f 60/8/53 74/9/52 73/9/53
f 79/6/58 69/7/56 67/6/56
f 69/7/56 79/6/58 80/7/58
f 53/6/53 80/7/58 79/6/58
f 80/7/58 53/6/53 54/7/53
f 54/7/50 69/7/50 80/7/50
f 69/7/50 54/7/50 52/7/50
f 69/7/50 52/7/50 70/7/50
f 70/7/50 52/7/50 51/7/50
f 70/7/50 51/7/50 58/7/50
f 58/7/50 51/7/50 56/7/50
f 67/6/46 53/6/46 79/6/46
f 53/6/46 67/6/46 68/6/46
f 53/6/46 68/6/46 50/6/46
f 50/6/46 68/6/46 57/6/46
f 50/6/46 57/6/46 49/6/46
f 49/6/46 57/6/46 55/6/46

