# Created by Kenney (www.kenney.nl)

mtllib castle-window.mtl

g castle-window

v 1 3.4 1 1 1 1
v -1 3.4 1 1 1 1
v 1 3.8 1.2 1 1 1
v -1 3.8 1.2 1 1 1
v 1 3.8 -1.2 1 1 1
v 1 3.4 -1 1 1 1
v 1 2 -1 1 1 1
v 1 2 1 1 1 1
v -1 2 1 1 1 1
v -1 3.4 -1 1 1 1
v -1 3.8 -1.2 1 1 1
v -1 2 -1 1 1 1
v -1 3.8 0.6999999 1 1 1
v -1 4.35779 0.6999999 1 1 1
v -1 3.8 1.2 1 1 1
v -1 4.4 0.738041 1 1 1
v -1 4.4 1.161959 1 1 1
v -1 4.3 1.252083 1 1 1
v -0.75 4.4 0.738041 1 1 1
v -0.75 4.4 1.161959 1 1 1
v -0.75 4.35779 0.6999999 1 1 1
v -0.75 3.8 0.6999999 1 1 1
v -0.75 3.8 1.2 1 1 1
v -0.75 4.3 1.252083 1 1 1
v 1 4.4 0.738041 1 1 1
v 1 4.4 1.161959 1 1 1
v 0.75 4.4 0.738041 1 1 1
v 0.75 4.4 1.161959 1 1 1
v 0.75 4.35779 0.6999999 1 1 1
v 0.75 3.8 0.6999999 1 1 1
v 0.75 3.8 1.2 1 1 1
v 0.75 4.3 1.252083 1 1 1
v 1 4.35779 0.6999999 1 1 1
v 1 3.8 0.6999999 1 1 1
v 1 3.8 1.2 1 1 1
v 1 4.3 1.252083 1 1 1
v -0.25 3.8 0.6999999 1 1 1
v -0.25 4.35779 0.6999999 1 1 1
v -0.25 3.8 1.2 1 1 1
v -0.25 4.4 0.738041 1 1 1
v -0.25 4.4 1.161959 1 1 1
v -0.25 4.3 1.252083 1 1 1
v 0.25 4.35779 0.6999999 1 1 1
v 0.25 3.8 0.6999999 1 1 1
v 0.25 4.4 0.738041 1 1 1
v 0.25 3.8 1.2 1 1 1
v 0.25 4.4 1.161959 1 1 1
v 0.25 4.3 1.252083 1 1 1
v 1 3.8 -0.6999999 1 1 1
v 1 4.35779 -0.6999999 1 1 1
v 1 3.8 -1.2 1 1 1
v 1 4.4 -0.738041 1 1 1
v 1 4.4 -1.161959 1 1 1
v 1 4.3 -1.252083 1 1 1
v 0.75 4.4 -0.738041 1 1 1
v 0.75 4.4 -1.161959 1 1 1
v 0.75 4.35779 -0.6999999 1 1 1
v 0.75 3.8 -0.6999999 1 1 1
v 0.75 3.8 -1.2 1 1 1
v 0.75 4.3 -1.252083 1 1 1
v -1 4.4 -0.738041 1 1 1
v -1 4.4 -1.161959 1 1 1
v -0.75 4.4 -0.738041 1 1 1
v -0.75 4.4 -1.161959 1 1 1
v -0.75 4.35779 -0.6999999 1 1 1
v -0.75 3.8 -0.6999999 1 1 1
v -0.75 3.8 -1.2 1 1 1
v -0.75 4.3 -1.252083 1 1 1
v -1 4.35779 -0.6999999 1 1 1
v -1 3.8 -0.6999999 1 1 1
v -1 3.8 -1.2 1 1 1
v -1 4.3 -1.252083 1 1 1
v 0.25 3.8 -0.6999999 1 1 1
v 0.25 4.35779 -0.6999999 1 1 1
v 0.25 3.8 -1.2 1 1 1
v 0.25 4.4 -0.738041 1 1 1
v 0.25 4.4 -1.161959 1 1 1
v 0.25 4.3 -1.252083 1 1 1
v -0.25 4.35779 -0.6999999 1 1 1
v -0.25 3.8 -0.6999999 1 1 1
v -0.25 4.4 -0.738041 1 1 1
v -0.25 3.8 -1.2 1 1 1
v -0.25 4.4 -1.161959 1 1 1
v -0.25 4.3 -1.252083 1 1 1
v 0.25 3.9 -1.2 1 1 1
v 0.75 3.9 -1.2 1 1 1
v 0.25 4.2 -1.15 1 1 1
v 0.75 4.2 -1.15 1 1 1
v 0.75 3.9 -0.6999999 1 1 1
v 0.25 3.9 -0.6999999 1 1 1
v 0.75 4.2 -0.7499999 1 1 1
v 0.25 4.2 -0.7499999 1 1 1
v -0.75 3.9 -1.2 1 1 1
v -0.25 3.9 -1.2 1 1 1
v -0.75 4.2 -1.15 1 1 1
v -0.25 4.2 -1.15 1 1 1
v -0.25 3.9 -0.6999999 1 1 1
v -0.75 3.9 -0.6999999 1 1 1
v -0.25 4.2 -0.7499999 1 1 1
v -0.75 4.2 -0.7499999 1 1 1
v 0.25 3.8 -1.2 1 1 1
v 0.75 3.8 -1.2 1 1 1
v -0.75 3.8 -1.2 1 1 1
v -0.25 3.8 -1.2 1 1 1
v -0.25 3.9 1.2 1 1 1
v -0.75 3.9 1.2 1 1 1
v -0.25 4.2 1.15 1 1 1
v -0.75 4.2 1.15 1 1 1
v -0.75 3.9 0.6999999 1 1 1
v -0.25 3.9 0.6999999 1 1 1
v -0.75 4.2 0.7499999 1 1 1
v -0.25 4.2 0.7499999 1 1 1
v 0.75 3.9 1.2 1 1 1
v 0.25 3.9 1.2 1 1 1
v 0.75 4.2 1.15 1 1 1
v 0.25 4.2 1.15 1 1 1
v 0.25 3.9 0.6999999 1 1 1
v 0.75 3.9 0.6999999 1 1 1
v 0.25 4.2 0.7499999 1 1 1
v 0.75 4.2 0.7499999 1 1 1
v -0.25 3.8 1.2 1 1 1
v -0.75 3.8 1.2 1 1 1
v 0.75 3.8 1.2 1 1 1
v 0.25 3.8 1.2 1 1 1
v -0.1789328 2.699054 -1.1 1 1 1
v -0.1789328 2.699054 -1 1 1 1
v -0.5643431 2.699054 -1.1 1 1 1
v -0.5643431 2.699054 -1 1 1 1
v -0.6143431 2.449054 -1 1 1 1
v -0.6143431 2.449054 -1.1 1 1 1
v -0.6143431 2.649054 -1 1 1 1
v -0.6143431 2.649054 -1.1 1 1 1
v -0.1289328 2.449054 -1.1 1 1 1
v -0.1289328 2.449054 -1 1 1 1
v -0.1289328 2.649054 -1.1 1 1 1
v -0.1289328 2.649054 -1 1 1 1
v -0.1789328 2.399054 -1.1 1 1 1
v -0.5643431 2.399054 -1.1 1 1 1
v -0.1789328 2.399054 -1 1 1 1
v -0.5643431 2.399054 -1 1 1 1
v 0.4397216 2.886449 -1.062 1 1 1
v 0.4397216 2.886449 -1 1 1 1
v 0.2007672 2.886449 -1.062 1 1 1
v 0.2007672 2.886449 -1 1 1 1
v 0.1697672 2.731449 -1 1 1 1
v 0.1697672 2.731449 -1.062 1 1 1
v 0.1697672 2.855449 -1 1 1 1
v 0.1697672 2.855449 -1.062 1 1 1
v 0.4707216 2.731449 -1 1 1 1
v 0.4707216 2.855449 -1 1 1 1
v 0.4707216 2.731449 -1.062 1 1 1
v 0.4707216 2.855449 -1.062 1 1 1
v 0.2007672 2.700449 -1.062 1 1 1
v 0.2007672 2.700449 -1 1 1 1
v 0.4397216 2.700449 -1.062 1 1 1
v 0.4397216 2.700449 -1 1 1 1
v 0.6130589 2.890918 0.6 1 1 1
v 0.6130589 2.3 0.6 1 1 1
v 0.6130589 2.890918 1.2 1 1 1
v 0.6130589 2.3 1.2 1 1 1
v 0.4334981 3.321604 0.6 1 1 1
v 0.4334981 3.321604 1.2 1 1 1
v 0 3.5 0.6 1 1 1
v 0 3.5 1.2 1 1 1
v -0.6130589 2.890918 0.6 1 1 1
v -0.4334981 3.321604 0.6 1 1 1
v -0.6130589 2.890918 1.2 1 1 1
v -0.4334981 3.321604 1.2 1 1 1
v -0.6130589 2.3 0.6 1 1 1
v -0.6130589 2.3 1.2 1 1 1
v -0.3664816 2.841575 1.1 1 1 1
v -0.3664816 2.546577 1.1 1 1 1
v -0.3664816 2.841575 1.2 1 1 1
v -0.3664816 2.546577 1.2 1 1 1
v 0.3664816 2.546577 1.1 1 1 1
v 0.3664816 2.546577 1.2 1 1 1
v 0.3664816 2.841575 1.1 1 1 1
v 0.3664816 2.841575 1.2 1 1 1
v 0.2452112 3.132448 1.1 1 1 1
v 0.2452112 3.132448 1.2 1 1 1
v 0 3.233359 1.2 1 1 1
v 0 3.233359 1.1 1 1 1
v -0.2452112 3.132448 1.2 1 1 1
v -0.2452112 3.132448 1.1 1 1 1
v -1 3.8 0.4 1 1 1
v -1 3.9 0.4 1 1 1
v -1 3.8 0.7 1 1 1
v -1 3.9 0.7 1 1 1
v 1 3.9 0.4 1 1 1
v 1 3.9 0.7 1 1 1
v 1 3.8 0.4 1 1 1
v 1 3.8 0.7 1 1 1
v 1 3.9 -0.4 1 1 1
v -1 3.9 -0.4 1 1 1
v 1 3.9 -0.7 1 1 1
v -1 3.9 -0.7 1 1 1
v 1 3.8 -0.4 1 1 1
v -1 3.8 -0.4 1 1 1
v -1 3.8 -0.7 1 1 1
v 1 3.8 -0.7 1 1 1
v 1 0 1.4 1 1 1
v 1 0 -1.4 1 1 1
v -1 0 1.4 1 1 1
v -1 0 -1.4 1 1 1
v 1 1.8 -1.2 1 1 1
v 1 1.8 1.2 1 1 1
v -1 1.8 -1.2 1 1 1
v -1 1.8 1.2 1 1 1

vn 0 -0.2297529 0.973249
vn 0 -0.4472136 0.8944272
vn 1 0 0
vn 0 0 1
vn 0 -0.2297529 -0.973249
vn 0 -0.4472136 -0.8944272
vn -1 0 0
vn 0 0 -1
vn 0 0.9136397 -0.4065248
vn 0 0.9136397 0.4065248
vn 0 -0.1036061 0.9946185
vn 0 0.3096784 0.9508413
vn 0 0.6694751 -0.7428344
vn 1 0 2.603473E-14
vn -1.058376E-14 0.9136397 0.4065248
vn 1.058376E-14 0.9136397 -0.4065248
vn -1 0 -2.603473E-14
vn 2.589462E-14 -0.1036061 -0.9946185
vn 2.47549E-14 0.3096784 -0.9508413
vn -1.933949E-14 0.6694751 0.7428344
vn -2.603473E-14 0 1
vn 2.594602E-14 0.08248053 -0.9965927
vn 1.682819E-14 0.76302 -0.6463749
vn -2.56805E-14 0.164399 0.986394
vn -1.682819E-14 0.76302 0.6463749
vn 2.603473E-14 0 -1
vn 0 0.08248053 0.9965927
vn 0 0.76302 0.6463749
vn 0 0.164399 -0.986394
vn 0 0.76302 -0.6463749
vn 0.3826835 0.9238796 -1.10135E-07
vn -0.3826835 0.9238796 -1.10135E-07
vn -0.9238797 -0.3826835 4.561941E-08
vn -0.9238797 0.3826835 -4.561943E-08
vn 0.9238797 -0.3826835 4.561943E-08
vn 0.9238797 0.3826835 -4.561941E-08
vn 0.3826835 -0.9238796 1.10135E-07
vn -0.3826835 -0.9238796 1.10135E-07
vn 8.049118E-15 1.192093E-07 -1
vn 0.3826835 0.9238796 -1.10135E-07
vn -0.3826835 0.9238796 -1.10135E-07
vn -0.9238797 -0.3826835 4.561943E-08
vn -0.9238797 0.3826835 -4.561941E-08
vn 0.9238797 -0.3826835 4.561941E-08
vn 0.9238797 0.3826835 -4.561943E-08
vn -0.3826835 -0.9238796 1.10135E-07
vn 0.3826835 -0.9238796 1.10135E-07
vn -1.11855E-14 1.192093E-07 -1
vn 0 1 0
vn 0.9805597 0.1962212 0
vn 0.7054778 0.7087319 0
vn -0.9805597 0.1962212 0
vn -0.7054778 0.7087319 0
vn 0 -1 0
vn 0.9805597 -0.1962212 0
vn 0.7071068 0.7071068 0
vn -0.7071068 0.7071068 0
vn -0.9805597 -0.1962212 0
vn -0.7054778 -0.7087319 0
vn 0.7054778 -0.7087319 0
vn 0 0.7071068 -0.7071068
vn 0 0.7071068 0.7071068
vn 0 0.1104315 -0.9938837
vn 0 0.4331888 -0.9013033
vn 0 0.1104315 0.9938837
vn 0 0.4331888 0.9013033

vt 0.46875 0.1805556
vt 0.46875 0.225
vt 0.46875 0.025
vt 0.46875 0.2109301
vt 0.46875 0.1916666
vt 0.46875 0.105
vt 0.46875 0.075
vt 0.46875 0.175
vt 0.21875 0.225
vt 0.21875 0.1488648
vt 0.21875 0.075
vt 0.21875 0.2027005
vt 0.21875 0.1426969
vt 0.21875 0.1058222
vt 0.21875 0.1790561
vt 0.21875 0.1916699
vt 0.21875 0.145
vt 0.21875 0.165
vt 0.21875 0.175
vt 0.34375 0.1058222
vt 0.34375 0.1426969
vt 0.34375 0.1790561
vt 0.34375 0.1916699

usemtl colormap

f 3/2/2 2/1/1 1/1/1
f 2/1/1 3/2/2 4/2/2
f 3/2/3 6/1/3 5/2/3
f 6/1/3 3/2/3 7/3/3
f 7/3/3 3/2/3 1/1/3
f 8/3/3 7/3/3 1/1/3
f 1/1/1 9/3/4 8/3/4
f 9/3/4 1/1/1 2/1/1
f 11/2/6 6/1/5 10/1/5
f 6/1/5 11/2/6 5/2/6
f 9/3/7 10/1/7 12/3/7
f 2/1/7 10/1/7 9/3/7
f 4/2/7 10/1/7 2/1/7
f 10/1/7 4/2/7 11/2/7
f 10/1/5 7/3/8 12/3/8
f 7/3/8 10/1/5 6/1/5
f 15/3/7 14/4/7 13/3/7
f 14/4/7 15/3/7 16/2/7
f 16/2/7 15/3/7 17/2/7
f 17/2/7 15/3/7 18/5/7
f 16/2/9 20/2/10 19/2/9
f 20/2/10 16/2/9 17/2/10
f 19/2/3 22/3/3 21/4/3
f 22/3/3 19/2/3 23/3/3
f 23/3/3 19/2/3 20/2/3
f 23/3/3 20/2/3 24/5/3
f 27/2/9 26/2/10 25/2/9
f 26/2/10 27/2/9 28/2/10
f 30/3/7 27/2/7 29/4/7
f 27/2/7 30/3/7 31/3/7
f 27/2/7 31/3/7 28/2/7
f 28/2/7 31/3/7 32/5/7
f 25/2/3 34/3/3 33/4/3
f 34/3/3 25/2/3 35/3/3
f 35/3/3 25/2/3 26/2/3
f 35/3/3 26/2/3 36/5/3
f 39/3/7 38/4/7 37/3/7
f 38/4/7 39/3/7 40/2/7
f 40/2/7 39/3/7 41/2/7
f 41/2/7 39/3/7 42/5/7
f 45/2/3 44/3/3 43/4/3
f 44/3/3 45/2/3 46/3/3
f 46/3/3 45/2/3 47/2/3
f 46/3/3 47/2/3 48/5/3
f 40/2/9 47/2/10 45/2/9
f 47/2/10 40/2/9 41/2/10
f 48/5/12 39/3/11 46/3/11
f 39/3/11 48/5/12 42/5/12
f 24/5/12 15/3/11 23/3/11
f 15/3/11 24/5/12 18/5/12
f 36/5/12 31/3/11 35/3/11
f 31/3/11 36/5/12 32/5/12
f 16/2/9 21/4/13 14/4/13
f 21/4/13 16/2/9 19/2/9
f 27/2/9 33/4/13 29/4/13
f 33/4/13 27/2/9 25/2/9
f 26/2/10 32/5/12 36/5/12
f 32/5/12 26/2/10 28/2/10
f 40/2/9 43/4/13 38/4/13
f 43/4/13 40/2/9 45/2/9
f 20/2/10 18/5/12 24/5/12
f 18/5/12 20/2/10 17/2/10
f 47/2/10 42/5/12 48/5/12
f 42/5/12 47/2/10 41/2/10
f 29/4/8 34/3/8 30/3/8
f 34/3/8 29/4/8 33/4/8
f 38/4/8 44/3/8 37/3/8
f 44/3/8 38/4/8 43/4/8
f 14/4/8 22/3/8 13/3/8
f 22/3/8 14/4/8 21/4/8
f 51/3/14 50/4/14 49/3/14
f 50/4/14 51/3/14 52/2/14
f 52/2/14 51/3/14 53/2/14
f 53/2/14 51/3/14 54/5/14
f 52/2/15 56/2/16 55/2/15
f 56/2/16 52/2/15 53/2/16
f 55/2/17 58/3/17 57/4/17
f 58/3/17 55/2/17 59/3/17
f 59/3/17 55/2/17 56/2/17
f 59/3/17 56/2/17 60/5/17
f 63/2/15 62/2/16 61/2/15
f 62/2/16 63/2/15 64/2/16
f 66/3/14 63/2/14 65/4/14
f 63/2/14 66/3/14 67/3/14
f 63/2/14 67/3/14 64/2/14
f 64/2/14 67/3/14 68/5/14
f 61/2/17 70/3/17 69/4/17
f 70/3/17 61/2/17 71/3/17
f 71/3/17 61/2/17 62/2/17
f 71/3/17 62/2/17 72/5/17
f 75/3/14 74/4/14 73/3/14
f 74/4/14 75/3/14 76/2/14
f 76/2/14 75/3/14 77/2/14
f 77/2/14 75/3/14 78/5/14
f 81/2/17 80/3/17 79/4/17
f 80/3/17 81/2/17 82/3/17
f 82/3/17 81/2/17 83/2/17
f 82/3/17 83/2/17 84/5/17
f 76/2/15 83/2/16 81/2/15
f 83/2/16 76/2/15 77/2/16
f 84/5/19 75/3/18 82/3/18
f 75/3/18 84/5/19 78/5/19
f 60/5/19 51/3/18 59/3/18
f 51/3/18 60/5/19 54/5/19
f 72/5/19 67/3/18 71/3/18
f 67/3/18 72/5/19 68/5/19
f 52/2/15 57/4/20 50/4/20
f 57/4/20 52/2/15 55/2/15
f 63/2/15 69/4/20 65/4/20
f 69/4/20 63/2/15 61/2/15
f 62/2/16 68/5/19 72/5/19
f 68/5/19 62/2/16 64/2/16
f 76/2/15 79/4/20 74/4/20
f 79/4/20 76/2/15 81/2/15
f 56/2/16 54/5/19 60/5/19
f 54/5/19 56/2/16 53/2/16
f 83/2/16 78/5/19 84/5/19
f 78/5/19 83/2/16 77/2/16
f 65/4/21 70/3/21 66/3/21
f 70/3/21 65/4/21 69/4/21
f 74/4/21 80/3/21 73/3/21
f 80/3/21 74/4/21 79/4/21
f 50/4/21 58/3/21 49/3/21
f 58/3/21 50/4/21 57/4/21
f 87/6/23 86/3/22 85/3/22
f 86/3/22 87/6/23 88/6/23
f 91/6/25 90/3/24 89/3/24
f 90/3/24 91/6/25 92/6/25
f 91/6/25 87/6/23 92/6/25
f 87/6/23 91/6/25 88/6/23
f 95/6/23 94/3/22 93/3/22
f 94/3/22 95/6/23 96/6/23
f 99/6/25 98/3/24 97/3/24
f 98/3/24 99/6/25 100/6/25
f 99/6/25 95/6/23 100/6/25
f 95/6/23 99/6/25 96/6/23
f 85/3/22 102/3/26 101/3/26
f 102/3/26 85/3/22 86/3/22
f 93/3/22 104/3/26 103/3/26
f 104/3/26 93/3/22 94/3/22
f 107/6/28 106/3/27 105/3/27
f 106/3/27 107/6/28 108/6/28
f 111/6/30 110/3/29 109/3/29
f 110/3/29 111/6/30 112/6/30
f 111/6/30 107/6/28 112/6/30
f 107/6/28 111/6/30 108/6/28
f 115/6/28 114/3/27 113/3/27
f 114/3/27 115/6/28 116/6/28
f 119/6/30 118/3/29 117/3/29
f 118/3/29 119/6/30 120/6/30
f 119/6/30 115/6/28 120/6/30
f 115/6/28 119/6/30 116/6/28
f 105/3/27 122/3/4 121/3/4
f 122/3/4 105/3/27 106/3/27
f 113/3/27 124/3/4 123/3/4
f 124/3/4 113/3/27 114/3/27
f 127/7/32 126/8/31 125/7/31
f 126/8/31 127/7/32 128/8/32
f 131/8/34 130/7/33 129/8/33
f 130/7/33 131/8/34 132/7/34
f 135/7/36 134/8/35 133/7/35
f 134/8/35 135/7/36 136/8/36
f 139/8/37 138/7/38 137/7/37
f 138/7/38 139/8/37 140/8/38
f 125/7/31 136/8/36 135/7/36
f 136/8/36 125/7/31 126/8/31
f 128/8/32 132/7/34 131/8/34
f 132/7/34 128/8/32 127/7/32
f 133/7/35 139/8/37 137/7/37
f 139/8/37 133/7/35 134/8/35
f 129/8/33 138/7/38 140/8/38
f 138/7/38 129/8/33 130/7/33
f 127/7/39 130/7/39 132/7/39
f 130/7/39 127/7/39 138/7/39
f 138/7/39 127/7/39 125/7/39
f 138/7/39 125/7/39 137/7/39
f 137/7/39 125/7/39 133/7/39
f 133/7/39 125/7/39 135/7/39
f 143/7/41 142/8/40 141/7/40
f 142/8/40 143/7/41 144/8/41
f 147/8/43 146/7/42 145/8/42
f 146/7/42 147/8/43 148/7/43
f 151/7/44 150/8/45 149/8/44
f 150/8/45 151/7/44 152/7/45
f 155/7/47 154/8/46 153/7/46
f 154/8/46 155/7/47 156/8/47
f 152/7/45 142/8/40 150/8/45
f 142/8/40 152/7/45 141/7/40
f 144/8/41 148/7/43 147/8/43
f 148/7/43 144/8/41 143/7/41
f 149/8/44 155/7/47 151/7/44
f 155/7/47 149/8/44 156/8/47
f 145/8/42 153/7/46 154/8/46
f 153/7/46 145/8/42 146/7/42
f 143/7/48 146/7/48 148/7/48
f 146/7/48 143/7/48 153/7/48
f 153/7/48 143/7/48 155/7/48
f 155/7/48 143/7/48 141/7/48
f 155/7/48 141/7/48 152/7/48
f 155/7/48 152/7/48 151/7/48
f 11/9/49 3/9/49 5/9/49
f 3/9/49 11/9/49 4/9/49
f 159/10/50 158/11/3 157/10/50
f 158/11/3 159/10/50 160/11/3
f 162/12/51 157/10/50 161/12/51
f 157/10/50 162/12/51 159/10/50
f 163/9/49 162/12/51 161/12/51
f 162/12/51 163/9/49 164/9/49
f 167/10/52 166/12/53 165/10/52
f 166/12/53 167/10/52 168/12/53
f 166/12/53 164/9/49 163/9/49
f 164/9/49 166/12/53 168/12/53
f 170/11/7 165/10/52 169/11/7
f 165/10/52 170/11/7 167/10/52
f 165/10/8 158/11/8 169/11/8
f 158/11/8 165/10/8 157/10/8
f 157/10/8 165/10/8 161/12/8
f 161/12/8 165/10/8 166/12/8
f 161/12/8 166/12/8 163/9/8
f 170/11/54 158/11/54 160/11/54
f 158/11/54 170/11/54 169/11/54
f 173/13/55 172/14/56 171/13/55
f 172/14/56 173/13/55 174/14/56
f 172/14/56 176/14/57 175/14/57
f 176/14/57 172/14/56 174/14/56
f 176/14/57 177/13/58 175/14/57
f 177/13/58 176/14/57 178/13/58
f 178/13/58 179/15/59 177/13/58
f 179/15/59 178/13/58 180/15/59
f 181/16/54 179/15/59 180/15/59
f 179/15/59 181/16/54 182/16/54
f 183/15/60 182/16/54 181/16/54
f 182/16/54 183/15/60 184/15/60
f 183/15/60 171/13/55 184/15/60
f 171/13/55 183/15/60 173/13/55
f 168/12/4 162/12/4 164/9/4
f 168/12/4 181/16/4 162/12/4
f 180/15/4 162/12/4 181/16/4
f 168/12/4 183/15/4 181/16/4
f 180/15/4 159/10/4 162/12/4
f 178/13/4 159/10/4 180/15/4
f 167/10/4 183/15/4 168/12/4
f 167/10/4 173/13/4 183/15/4
f 167/10/4 174/14/4 173/13/4
f 170/11/4 174/14/4 167/10/4
f 176/14/4 159/10/4 178/13/4
f 174/14/4 170/11/4 176/14/4
f 176/14/4 160/11/4 159/10/4
f 160/11/4 176/14/4 170/11/4
f 187/17/7 186/9/7 185/17/7
f 186/9/7 187/17/7 188/9/7
f 186/9/61 190/9/49 189/9/61
f 190/9/49 186/9/61 188/9/49
f 186/9/61 191/17/8 185/17/8
f 191/17/8 186/9/61 189/9/61
f 190/9/4 187/17/4 192/17/4
f 187/17/4 190/9/4 188/9/4
f 190/9/3 191/17/3 189/9/3
f 191/17/3 190/9/3 192/17/3
f 195/9/49 194/9/62 193/9/62
f 194/9/62 195/9/49 196/9/49
f 193/9/62 198/17/4 197/17/4
f 198/17/4 193/9/62 194/9/62
f 198/17/7 196/9/7 199/17/7
f 196/9/7 198/17/7 194/9/7
f 196/9/8 200/17/8 199/17/8
f 200/17/8 196/9/8 195/9/8
f 193/9/3 200/17/3 195/9/3
f 200/17/3 193/9/3 197/17/3
f 203/11/54 202/11/54 201/11/54
f 202/11/54 203/11/54 204/11/54
f 205/18/3 201/11/3 202/11/3
f 201/11/3 205/18/3 7/19/3
f 201/11/3 7/19/3 8/19/3
f 201/11/3 8/19/3 206/18/3
f 203/11/7 207/18/7 204/11/7
f 207/18/7 203/11/7 12/19/7
f 12/19/7 203/11/7 9/19/7
f 9/19/7 203/11/7 208/18/7
f 207/18/64 202/11/63 204/11/63
f 202/11/63 207/18/64 205/18/64
f 206/18/66 203/11/65 201/11/65
f 203/11/65 206/18/66 208/18/66
f 9/19/62 206/18/66 8/19/62
f 206/18/66 9/19/62 208/18/66
f 12/19/61 205/18/64 207/18/64
f 205/18/64 12/19/61 7/19/61
f 177/21/4 172/20/4 175/20/4
f 172/20/4 177/21/4 171/21/4
f 171/21/4 177/21/4 179/22/4
f 171/21/4 179/22/4 184/22/4
f 184/22/4 179/22/4 182/23/4

g castle-window




usemtl colormap

f 3/2/2 2/1/1 1/1/1
f 2/1/1 3/2/2 4/2/2
f 3/2/3 6/1/3 5/2/3
f 6/1/3 3/2/3 7/3/3
f 7/3/3 3/2/3 1/1/3
f 8/3/3 7/3/3 1/1/3
f 1/1/1 9/3/4 8/3/4
f 9/3/4 1/1/1 2/1/1
f 11/2/6 6/1/5 10/1/5
f 6/1/5 11/2/6 5/2/6
f 9/3/7 10/1/7 12/3/7
f 2/1/7 10/1/7 9/3/7
f 4/2/7 10/1/7 2/1/7
f 10/1/7 4/2/7 11/2/7
f 10/1/5 7/3/8 12/3/8
f 7/3/8 10/1/5 6/1/5
f 15/3/7 14/4/7 13/3/7
f 14/4/7 15/3/7 16/2/7
f 16/2/7 15/3/7 17/2/7
f 17/2/7 15/3/7 18/5/7
f 16/2/9 20/2/10 19/2/9
f 20/2/10 16/2/9 17/2/10
f 19/2/3 22/3/3 21/4/3
f 22/3/3 19/2/3 23/3/3
f 23/3/3 19/2/3 20/2/3
f 23/3/3 20/2/3 24/5/3
f 27/2/9 26/2/10 25/2/9
f 26/2/10 27/2/9 28/2/10
f 30/3/7 27/2/7 29/4/7
f 27/2/7 30/3/7 31/3/7
f 27/2/7 31/3/7 28/2/7
f 28/2/7 31/3/7 32/5/7
f 25/2/3 34/3/3 33/4/3
f 34/3/3 25/2/3 35/3/3
f 35/3/3 25/2/3 26/2/3
f 35/3/3 26/2/3 36/5/3
f 39/3/7 38/4/7 37/3/7
f 38/4/7 39/3/7 40/2/7
f 40/2/7 39/3/7 41/2/7
f 41/2/7 39/3/7 42/5/7
f 45/2/3 44/3/3 43/4/3
f 44/3/3 45/2/3 46/3/3
f 46/3/3 45/2/3 47/2/3
f 46/3/3 47/2/3 48/5/3
f 40/2/9 47/2/10 45/2/9
f 47/2/10 40/2/9 41/2/10
f 48/5/12 39/3/11 46/3/11
f 39/3/11 48/5/12 42/5/12
f 24/5/12 15/3/11 23/3/11
f 15/3/11 24/5/12 18/5/12
f 36/5/12 31/3/11 35/3/11
f 31/3/11 36/5/12 32/5/12
f 16/2/9 21/4/13 14/4/13
f 21/4/13 16/2/9 19/2/9
f 27/2/9 33/4/13 29/4/13
f 33/4/13 27/2/9 25/2/9
f 26/2/10 32/5/12 36/5/12
f 32/5/12 26/2/10 28/2/10
f 40/2/9 43/4/13 38/4/13
f 43/4/13 40/2/9 45/2/9
f 20/2/10 18/5/12 24/5/12
f 18/5/12 20/2/10 17/2/10
f 47/2/10 42/5/12 48/5/12
f 42/5/12 47/2/10 41/2/10
f 29/4/8 34/3/8 30/3/8
f 34/3/8 29/4/8 33/4/8
f 38/4/8 44/3/8 37/3/8
f 44/3/8 38/4/8 43/4/8
f 14/4/8 22/3/8 13/3/8
f 22/3/8 14/4/8 21/4/8
f 51/3/14 50/4/14 49/3/14
f 50/4/14 51/3/14 52/2/14
f 52/2/14 51/3/14 53/2/14
f 53/2/14 51/3/14 54/5/14
f 52/2/15 56/2/16 55/2/15
f 56/2/16 52/2/15 53/2/16
f 55/2/17 58/3/17 57/4/17
f 58/3/17 55/2/17 59/3/17
f 59/3/17 55/2/17 56/2/17
f 59/3/17 56/2/17 60/5/17
f 63/2/15 62/2/16 61/2/15
f 62/2/16 63/2/15 64/2/16
f 66/3/14 63/2/14 65/4/14
f 63/2/14 66/3/14 67/3/14
f 63/2/14 67/3/14 64/2/14
f 64/2/14 67/3/14 68/5/14
f 61/2/17 70/3/17 69/4/17
f 70/3/17 61/2/17 71/3/17
f 71/3/17 61/2/17 62/2/17
f 71/3/17 62/2/17 72/5/17
f 75/3/14 74/4/14 73/3/14
f 74/4/14 75/3/14 76/2/14
f 76/2/14 75/3/14 77/2/14
f 77/2/14 75/3/14 78/5/14
f 81/2/17 80/3/17 79/4/17
f 80/3/17 81/2/17 82/3/17
f 82/3/17 81/2/17 83/2/17
f 82/3/17 83/2/17 84/5/17
f 76/2/15 83/2/16 81/2/15
f 83/2/16 76/2/15 77/2/16
f 84/5/19 75/3/18 82/3/18
f 75/3/18 84/5/19 78/5/19
f 60/5/19 51/3/18 59/3/18
f 51/3/18 60/5/19 54/5/19
f 72/5/19 67/3/18 71/3/18
f 67/3/18 72/5/19 68/5/19
f 52/2/15 57/4/20 50/4/20
f 57/4/20 52/2/15 55/2/15
f 63/2/15 69/4/20 65/4/20
f 69/4/20 63/2/15 61/2/15
f 62/2/16 68/5/19 72/5/19
f 68/5/19 62/2/16 64/2/16
f 76/2/15 79/4/20 74/4/20
f 79/4/20 76/2/15 81/2/15
f 56/2/16 54/5/19 60/5/19
f 54/5/19 56/2/16 53/2/16
f 83/2/16 78/5/19 84/5/19
f 78/5/19 83/2/16 77/2/16
f 65/4/21 70/3/21 66/3/21
f 70/3/21 65/4/21 69/4/21
f 74/4/21 80/3/21 73/3/21
f 80/3/21 74/4/21 79/4/21
f 50/4/21 58/3/21 49/3/21
f 58/3/21 50/4/21 57/4/21
f 87/6/23 86/3/22 85/3/22
f 86/3/22 87/6/23 88/6/23
f 91/6/25 90/3/24 89/3/24
f 90/3/24 91/6/25 92/6/25
f 91/6/25 87/6/23 92/6/25
f 87/6/23 91/6/25 88/6/23
f 95/6/23 94/3/22 93/3/22
f 94/3/22 95/6/23 96/6/23
f 99/6/25 98/3/24 97/3/24
f 98/3/24 99/6/25 100/6/25
f 99/6/25 95/6/23 100/6/25
f 95/6/23 99/6/25 96/6/23
f 85/3/22 102/3/26 101/3/26
f 102/3/26 85/3/22 86/3/22
f 93/3/22 104/3/26 103/3/26
f 104/3/26 93/3/22 94/3/22
f 107/6/28 106/3/27 105/3/27
f 106/3/27 107/6/28 108/6/28
f 111/6/30 110/3/29 109/3/29
f 110/3/29 111/6/30 112/6/30
f 111/6/30 107/6/28 112/6/30
f 107/6/28 111/6/30 108/6/28
f 115/6/28 114/3/27 113/3/27
f 114/3/27 115/6/28 116/6/28
f 119/6/30 118/3/29 117/3/29
f 118/3/29 119/6/30 120/6/30
f 119/6/30 115/6/28 120/6/30
f 115/6/28 119/6/30 116/6/28
f 105/3/27 122/3/4 121/3/4
f 122/3/4 105/3/27 106/3/27
f 113/3/27 124/3/4 123/3/4
f 124/3/4 113/3/27 114/3/27
f 127/7/32 126/8/31 125/7/31
f 126/8/31 127/7/32 128/8/32
f 131/8/34 130/7/33 129/8/33
f 130/7/33 131/8/34 132/7/34
f 135/7/36 134/8/35 133/7/35
f 134/8/35 135/7/36 136/8/36
f 139/8/37 138/7/38 137/7/37
f 138/7/38 139/8/37 140/8/38
f 125/7/31 136/8/36 135/7/36
f 136/8/36 125/7/31 126/8/31
f 128/8/32 132/7/34 131/8/34
f 132/7/34 128/8/32 127/7/32
f 133/7/35 139/8/37 137/7/37
f 139/8/37 133/7/35 134/8/35
f 129/8/33 138/7/38 140/8/38
f 138/7/38 129/8/33 130/7/33
f 127/7/39 130/7/39 132/7/39
f 130/7/39 127/7/39 138/7/39
f 138/7/39 127/7/39 125/7/39
f 138/7/39 125/7/39 137/7/39
f 137/7/39 125/7/39 133/7/39
f 133/7/39 125/7/39 135/7/39
f 143/7/41 142/8/40 141/7/40
f 142/8/40 143/7/41 144/8/41
f 147/8/43 146/7/42 145/8/42
f 146/7/42 147/8/43 148/7/43
f 151/7/44 150/8/45 149/8/44
f 150/8/45 151/7/44 152/7/45
f 155/7/47 154/8/46 153/7/46
f 154/8/46 155/7/47 156/8/47
f 152/7/45 142/8/40 150/8/45
f 142/8/40 152/7/45 141/7/40
f 144/8/41 148/7/43 147/8/43
f 148/7/43 144/8/41 143/7/41
f 149/8/44 155/7/47 151/7/44
f 155/7/47 149/8/44 156/8/47
f 145/8/42 153/7/46 154/8/46
f 153/7/46 145/8/42 146/7/42
f 143/7/48 146/7/48 148/7/48
f 146/7/48 143/7/48 153/7/48
f 153/7/48 143/7/48 155/7/48
f 155/7/48 143/7/48 141/7/48
f 155/7/48 141/7/48 152/7/48
f 155/7/48 152/7/48 151/7/48
f 11/9/49 3/9/49 5/9/49
f 3/9/49 11/9/49 4/9/49
f 159/10/50 158/11/3 157/10/50
f 158/11/3 159/10/50 160/11/3
f 162/12/51 157/10/50 161/12/51
f 157/10/50 162/12/51 159/10/50
f 163/9/49 162/12/51 161/12/51
f 162/12/51 163/9/49 164/9/49
f 167/10/52 166/12/53 165/10/52
f 166/12/53 167/10/52 168/12/53
f 166/12/53 164/9/49 163/9/49
f 164/9/49 166/12/53 168/12/53
f 170/11/7 165/10/52 169/11/7
f 165/10/52 170/11/7 167/10/52
f 165/10/8 158/11/8 169/11/8
f 158/11/8 165/10/8 157/10/8
f 157/10/8 165/10/8 161/12/8
f 161/12/8 165/10/8 166/12/8
f 161/12/8 166/12/8 163/9/8
f 170/11/54 158/11/54 160/11/54
f 158/11/54 170/11/54 169/11/54
f 173/13/55 172/14/56 171/13/55
f 172/14/56 173/13/55 174/14/56
f 172/14/56 176/14/57 175/14/57
f 176/14/57 172/14/56 174/14/56
f 176/14/57 177/13/58 175/14/57
f 177/13/58 176/14/57 178/13/58
f 178/13/58 179/15/59 177/13/58
f 179/15/59 178/13/58 180/15/59
f 181/16/54 179/15/59 180/15/59
f 179/15/59 181/16/54 182/16/54
f 183/15/60 182/16/54 181/16/54
f 182/16/54 183/15/60 184/15/60
f 183/15/60 171/13/55 184/15/60
f 171/13/55 183/15/60 173/13/55
f 168/12/4 162/12/4 164/9/4
f 168/12/4 181/16/4 162/12/4
f 180/15/4 162/12/4 181/16/4
f 168/12/4 183/15/4 181/16/4
f 180/15/4 159/10/4 162/12/4
f 178/13/4 159/10/4 180/15/4
f 167/10/4 183/15/4 168/12/4
f 167/10/4 173/13/4 183/15/4
f 167/10/4 174/14/4 173/13/4
f 170/11/4 174/14/4 167/10/4
f 176/14/4 159/10/4 178/13/4
f 174/14/4 170/11/4 176/14/4
f 176/14/4 160/11/4 159/10/4
f 160/11/4 176/14/4 170/11/4
f 187/17/7 186/9/7 185/17/7
f 186/9/7 187/17/7 188/9/7
f 186/9/61 190/9/49 189/9/61
f 190/9/49 186/9/61 188/9/49
f 186/9/61 191/17/8 185/17/8
f 191/17/8 186/9/61 189/9/61
f 190/9/4 187/17/4 192/17/4
f 187/17/4 190/9/4 188/9/4
f 190/9/3 191/17/3 189/9/3
f 191/17/3 190/9/3 192/17/3
f 195/9/49 194/9/62 193/9/62
f 194/9/62 195/9/49 196/9/49
f 193/9/62 198/17/4 197/17/4
f 198/17/4 193/9/62 194/9/62
f 198/17/7 196/9/7 199/17/7
f 196/9/7 198/17/7 194/9/7
f 196/9/8 200/17/8 199/17/8
f 200/17/8 196/9/8 195/9/8
f 193/9/3 200/17/3 195/9/3
f 200/17/3 193/9/3 197/17/3
f 203/11/54 202/11/54 201/11/54
f 202/11/54 203/11/54 204/11/54
f 205/18/3 201/11/3 202/11/3
f 201/11/3 205/18/3 7/19/3
f 201/11/3 7/19/3 8/19/3
f 201/11/3 8/19/3 206/18/3
f 203/11/7 207/18/7 204/11/7
f 207/18/7 203/11/7 12/19/7
f 12/19/7 203/11/7 9/19/7
f 9/19/7 203/11/7 208/18/7
f 207/18/64 202/11/63 204/11/63
f 202/11/63 207/18/64 205/18/64
f 206/18/66 203/11/65 201/11/65
f 203/11/65 206/18/66 208/18/66
f 9/19/62 206/18/66 8/19/62
f 206/18/66 9/19/62 208/18/66
f 12/19/61 205/18/64 207/18/64
f 205/18/64 12/19/61 7/19/61
f 177/21/4 172/20/4 175/20/4
f 172/20/4 177/21/4 171/21/4
f 171/21/4 177/21/4 179/22/4
f 171/21/4 179/22/4 184/22/4
f 184/22/4 179/22/4 182/23/4

