# Created by Kenney (www.kenney.nl)

mtllib castle-wall.mtl

g castle-wall

v 1 3.4 1 1 1 1
v -1 3.4 1 1 1 1
v 1 3.8 1.2 1 1 1
v -1 3.8 1.2 1 1 1
v 1 3.8 -1.2 1 1 1
v 1 3.4 -1 1 1 1
v 1 2 -1 1 1 1
v 1 2 1 1 1 1
v -1 2 1 1 1 1
v -1 3.4 -1 1 1 1
v -1 3.8 -1.2 1 1 1
v -1 2 -1 1 1 1
v -1 3.8 0.6999999 1 1 1
v -1 4.35779 0.6999999 1 1 1
v -1 3.8 1.2 1 1 1
v -1 4.4 0.738041 1 1 1
v -1 4.4 1.161959 1 1 1
v -1 4.3 1.252083 1 1 1
v -0.75 4.4 0.738041 1 1 1
v -0.75 4.4 1.161959 1 1 1
v -0.75 4.35779 0.6999999 1 1 1
v -0.75 3.8 0.6999999 1 1 1
v -0.75 3.8 1.2 1 1 1
v -0.75 4.3 1.252083 1 1 1
v 1 4.4 0.738041 1 1 1
v 1 4.4 1.161959 1 1 1
v 0.75 4.4 0.738041 1 1 1
v 0.75 4.4 1.161959 1 1 1
v 0.75 4.35779 0.6999999 1 1 1
v 0.75 3.8 0.6999999 1 1 1
v 0.75 3.8 1.2 1 1 1
v 0.75 4.3 1.252083 1 1 1
v 1 4.35779 0.6999999 1 1 1
v 1 3.8 0.6999999 1 1 1
v 1 3.8 1.2 1 1 1
v 1 4.3 1.252083 1 1 1
v -0.25 3.8 0.6999999 1 1 1
v -0.25 4.35779 0.6999999 1 1 1
v -0.25 3.8 1.2 1 1 1
v -0.25 4.4 0.738041 1 1 1
v -0.25 4.4 1.161959 1 1 1
v -0.25 4.3 1.252083 1 1 1
v 0.25 4.35779 0.6999999 1 1 1
v 0.25 3.8 0.6999999 1 1 1
v 0.25 4.4 0.738041 1 1 1
v 0.25 3.8 1.2 1 1 1
v 0.25 4.4 1.161959 1 1 1
v 0.25 4.3 1.252083 1 1 1
v 1 3.8 -0.6999999 1 1 1
v 1 4.35779 -0.6999999 1 1 1
v 1 3.8 -1.2 1 1 1
v 1 4.4 -0.738041 1 1 1
v 1 4.4 -1.161959 1 1 1
v 1 4.3 -1.252083 1 1 1
v 0.75 4.4 -0.738041 1 1 1
v 0.75 4.4 -1.161959 1 1 1
v 0.75 4.35779 -0.6999999 1 1 1
v 0.75 3.8 -0.6999999 1 1 1
v 0.75 3.8 -1.2 1 1 1
v 0.75 4.3 -1.252083 1 1 1
v -1 4.4 -0.738041 1 1 1
v -1 4.4 -1.161959 1 1 1
v -0.75 4.4 -0.738041 1 1 1
v -0.75 4.4 -1.161959 1 1 1
v -0.75 4.35779 -0.6999999 1 1 1
v -0.75 3.8 -0.6999999 1 1 1
v -0.75 3.8 -1.2 1 1 1
v -0.75 4.3 -1.252083 1 1 1
v -1 4.35779 -0.6999999 1 1 1
v -1 3.8 -0.6999999 1 1 1
v -1 3.8 -1.2 1 1 1
v -1 4.3 -1.252083 1 1 1
v 0.25 3.8 -0.6999999 1 1 1
v 0.25 4.35779 -0.6999999 1 1 1
v 0.25 3.8 -1.2 1 1 1
v 0.25 4.4 -0.738041 1 1 1
v 0.25 4.4 -1.161959 1 1 1
v 0.25 4.3 -1.252083 1 1 1
v -0.25 4.35779 -0.6999999 1 1 1
v -0.25 3.8 -0.6999999 1 1 1
v -0.25 4.4 -0.738041 1 1 1
v -0.25 3.8 -1.2 1 1 1
v -0.25 4.4 -1.161959 1 1 1
v -0.25 4.3 -1.252083 1 1 1
v 0.25 3.9 -1.2 1 1 1
v 0.75 3.9 -1.2 1 1 1
v 0.25 4.2 -1.15 1 1 1
v 0.75 4.2 -1.15 1 1 1
v 0.75 3.9 -0.6999999 1 1 1
v 0.25 3.9 -0.6999999 1 1 1
v 0.75 4.2 -0.7499999 1 1 1
v 0.25 4.2 -0.7499999 1 1 1
v -0.75 3.9 -1.2 1 1 1
v -0.25 3.9 -1.2 1 1 1
v -0.75 4.2 -1.15 1 1 1
v -0.25 4.2 -1.15 1 1 1
v -0.25 3.9 -0.6999999 1 1 1
v -0.75 3.9 -0.6999999 1 1 1
v -0.25 4.2 -0.7499999 1 1 1
v -0.75 4.2 -0.7499999 1 1 1
v 0.25 3.8 -1.2 1 1 1
v 0.75 3.8 -1.2 1 1 1
v -0.75 3.8 -1.2 1 1 1
v -0.25 3.8 -1.2 1 1 1
v -0.25 3.9 1.2 1 1 1
v -0.75 3.9 1.2 1 1 1
v -0.25 4.2 1.15 1 1 1
v -0.75 4.2 1.15 1 1 1
v -0.75 3.9 0.6999999 1 1 1
v -0.25 3.9 0.6999999 1 1 1
v -0.75 4.2 0.7499999 1 1 1
v -0.25 4.2 0.7499999 1 1 1
v 0.75 3.9 1.2 1 1 1
v 0.25 3.9 1.2 1 1 1
v 0.75 4.2 1.15 1 1 1
v 0.25 4.2 1.15 1 1 1
v 0.25 3.9 0.6999999 1 1 1
v 0.75 3.9 0.6999999 1 1 1
v 0.25 4.2 0.7499999 1 1 1
v 0.75 4.2 0.7499999 1 1 1
v -0.25 3.8 1.2 1 1 1
v -0.75 3.8 1.2 1 1 1
v 0.75 3.8 1.2 1 1 1
v 0.25 3.8 1.2 1 1 1
v -0.464884 3.089941 1 1 1 1
v -0.464884 3.089941 1.062 1 1 1
v -0.7038383 3.089941 1 1 1 1
v -0.7038383 3.089941 1.062 1 1 1
v -0.7348383 2.934941 1.062 1 1 1
v -0.7348383 2.934941 1 1 1 1
v -0.7348383 3.058941 1.062 1 1 1
v -0.7348383 3.058941 1 1 1 1
v -0.433884 2.934941 1.062 1 1 1
v -0.433884 3.058941 1.062 1 1 1
v -0.433884 2.934941 1 1 1 1
v -0.433884 3.058941 1 1 1 1
v -0.7038383 2.903941 1 1 1 1
v -0.7038383 2.903941 1.062 1 1 1
v -0.464884 2.903941 1 1 1 1
v -0.464884 2.903941 1.062 1 1 1
v 0.3231004 2.55303 1 1 1 1
v 0.3231004 2.55303 1.062 1 1 1
v 0.08414607 2.55303 1 1 1 1
v 0.08414607 2.55303 1.062 1 1 1
v 0.05314606 2.39803 1.062 1 1 1
v 0.05314606 2.39803 1 1 1 1
v 0.05314606 2.52203 1.062 1 1 1
v 0.05314606 2.52203 1 1 1 1
v 0.3541004 2.39803 1.062 1 1 1
v 0.3541004 2.52203 1.062 1 1 1
v 0.3541004 2.39803 1 1 1 1
v 0.3541004 2.52203 1 1 1 1
v 0.08414607 2.36703 1 1 1 1
v 0.08414607 2.36703 1.062 1 1 1
v 0.3231004 2.36703 1 1 1 1
v 0.3231004 2.36703 1.062 1 1 1
v 0.7958801 3.108792 1 1 1 1
v 0.7958801 3.108792 1.1 1 1 1
v 0.4104698 3.108792 1 1 1 1
v 0.4104698 3.108792 1.1 1 1 1
v 0.3604698 2.858792 1.1 1 1 1
v 0.3604698 2.858792 1 1 1 1
v 0.3604698 3.058792 1.1 1 1 1
v 0.3604698 3.058792 1 1 1 1
v 0.8458801 2.858792 1 1 1 1
v 0.8458801 2.858792 1.1 1 1 1
v 0.8458801 3.058792 1 1 1 1
v 0.8458801 3.058792 1.1 1 1 1
v 0.7958801 2.808792 1 1 1 1
v 0.4104698 2.808792 1 1 1 1
v 0.7958801 2.808792 1.1 1 1 1
v 0.4104698 2.808792 1.1 1 1 1
v -0.1789328 2.699054 -1.1 1 1 1
v -0.1789328 2.699054 -1 1 1 1
v -0.5643431 2.699054 -1.1 1 1 1
v -0.5643431 2.699054 -1 1 1 1
v -0.6143431 2.449054 -1 1 1 1
v -0.6143431 2.449054 -1.1 1 1 1
v -0.6143431 2.649054 -1 1 1 1
v -0.6143431 2.649054 -1.1 1 1 1
v -0.1289328 2.449054 -1.1 1 1 1
v -0.1289328 2.449054 -1 1 1 1
v -0.1289328 2.649054 -1.1 1 1 1
v -0.1289328 2.649054 -1 1 1 1
v -0.1789328 2.399054 -1.1 1 1 1
v -0.5643431 2.399054 -1.1 1 1 1
v -0.1789328 2.399054 -1 1 1 1
v -0.5643431 2.399054 -1 1 1 1
v 0.4397216 2.886449 -1.062 1 1 1
v 0.4397216 2.886449 -1 1 1 1
v 0.2007672 2.886449 -1.062 1 1 1
v 0.2007672 2.886449 -1 1 1 1
v 0.1697672 2.731449 -1 1 1 1
v 0.1697672 2.731449 -1.062 1 1 1
v 0.1697672 2.855449 -1 1 1 1
v 0.1697672 2.855449 -1.062 1 1 1
v 0.4707216 2.731449 -1 1 1 1
v 0.4707216 2.855449 -1 1 1 1
v 0.4707216 2.731449 -1.062 1 1 1
v 0.4707216 2.855449 -1.062 1 1 1
v 0.2007672 2.700449 -1.062 1 1 1
v 0.2007672 2.700449 -1 1 1 1
v 0.4397216 2.700449 -1.062 1 1 1
v 0.4397216 2.700449 -1 1 1 1
v -1 3.8 0.4 1 1 1
v -1 3.9 0.4 1 1 1
v -1 3.8 0.7 1 1 1
v -1 3.9 0.7 1 1 1
v 1 3.9 0.4 1 1 1
v 1 3.9 0.7 1 1 1
v 1 3.8 0.4 1 1 1
v 1 3.8 0.7 1 1 1
v 1 3.9 -0.4 1 1 1
v -1 3.9 -0.4 1 1 1
v 1 3.9 -0.7 1 1 1
v -1 3.9 -0.7 1 1 1
v 1 3.8 -0.4 1 1 1
v -1 3.8 -0.4 1 1 1
v -1 3.8 -0.7 1 1 1
v 1 3.8 -0.7 1 1 1
v 1 0 1.4 1 1 1
v 1 0 -1.4 1 1 1
v -1 0 1.4 1 1 1
v -1 0 -1.4 1 1 1
v 1 1.8 -1.2 1 1 1
v 1 1.8 1.2 1 1 1
v -1 1.8 -1.2 1 1 1
v -1 1.8 1.2 1 1 1

vn 0 -0.2297529 0.973249
vn 0 -0.4472136 0.8944272
vn 1 0 0
vn 0 0 1
vn 0 -0.2297529 -0.973249
vn 0 -0.4472136 -0.8944272
vn -1 0 0
vn 0 0 -1
vn 0 0.9136397 -0.4065248
vn 0 0.9136397 0.4065248
vn 0 -0.1036061 0.9946185
vn 0 0.3096784 0.9508413
vn 0 0.6694751 -0.7428344
vn 1 0 2.603473E-14
vn -1.058376E-14 0.9136397 0.4065248
vn 1.058376E-14 0.9136397 -0.4065248
vn -1 0 -2.603473E-14
vn 2.589462E-14 -0.1036061 -0.9946185
vn 2.47549E-14 0.3096784 -0.9508413
vn -1.933949E-14 0.6694751 0.7428344
vn -2.603473E-14 0 1
vn 2.594602E-14 0.08248053 -0.9965927
vn 1.682819E-14 0.76302 -0.6463749
vn -2.56805E-14 0.164399 0.986394
vn -1.682819E-14 0.76302 0.6463749
vn 2.603473E-14 0 -1
vn 0 0.08248053 0.9965927
vn 0 0.76302 0.6463749
vn 0 0.164399 -0.986394
vn 0 0.76302 -0.6463749
vn 0.3826835 0.9238796 -1.10135E-07
vn -0.3826835 0.9238796 -1.10135E-07
vn -0.9238797 -0.3826835 4.561943E-08
vn -0.9238797 0.3826835 -4.561941E-08
vn 0.9238797 -0.3826835 4.561941E-08
vn 0.9238797 0.3826835 -4.561943E-08
vn -0.3826835 -0.9238796 1.10135E-07
vn 0.3826835 -0.9238796 1.10135E-07
vn 1.11855E-14 -1.192093E-07 1
vn 0.3826835 0.9238796 -1.10135E-07
vn -0.3826835 0.9238796 -1.10135E-07
vn -0.9238797 -0.3826835 4.561941E-08
vn -0.9238797 0.3826835 -4.561943E-08
vn 0.9238797 -0.3826835 4.561943E-08
vn 0.9238797 0.3826835 -4.561941E-08
vn 0.3826835 -0.9238796 1.10135E-07
vn -0.3826835 -0.9238796 1.10135E-07
vn -8.049118E-15 -1.192093E-07 1
vn 8.049118E-15 1.192093E-07 -1
vn -1.11855E-14 1.192093E-07 -1
vn 0 1 0
vn 0 0.7071068 -0.7071068
vn 0 0.7071068 0.7071068
vn 0 -1 0
vn 0 0.1104315 -0.9938837
vn 0 0.4331888 -0.9013033
vn 0 0.1104315 0.9938837
vn 0 0.4331888 0.9013033

vt 0.46875 0.1805556
vt 0.46875 0.225
vt 0.46875 0.025
vt 0.46875 0.2109301
vt 0.46875 0.1916666
vt 0.46875 0.105
vt 0.46875 0.075
vt 0.46875 0.175
vt 0.21875 0.225
vt 0.21875 0.145
vt 0.21875 0.075
vt 0.21875 0.165
vt 0.21875 0.175

usemtl colormap

f 3/2/2 2/1/1 1/1/1
f 2/1/1 3/2/2 4/2/2
f 3/2/3 6/1/3 5/2/3
f 6/1/3 3/2/3 7/3/3
f 7/3/3 3/2/3 1/1/3
f 8/3/3 7/3/3 1/1/3
f 1/1/1 9/3/4 8/3/4
f 9/3/4 1/1/1 2/1/1
f 11/2/6 6/1/5 10/1/5
f 6/1/5 11/2/6 5/2/6
f 9/3/7 10/1/7 12/3/7
f 2/1/7 10/1/7 9/3/7
f 4/2/7 10/1/7 2/1/7
f 10/1/7 4/2/7 11/2/7
f 10/1/5 7/3/8 12/3/8
f 7/3/8 10/1/5 6/1/5
f 15/3/7 14/4/7 13/3/7
f 14/4/7 15/3/7 16/2/7
f 16/2/7 15/3/7 17/2/7
f 17/2/7 15/3/7 18/5/7
f 16/2/9 20/2/10 19/2/9
f 20/2/10 16/2/9 17/2/10
f 19/2/3 22/3/3 21/4/3
f 22/3/3 19/2/3 23/3/3
f 23/3/3 19/2/3 20/2/3
f 23/3/3 20/2/3 24/5/3
f 27/2/9 26/2/10 25/2/9
f 26/2/10 27/2/9 28/2/10
f 30/3/7 27/2/7 29/4/7
f 27/2/7 30/3/7 31/3/7
f 27/2/7 31/3/7 28/2/7
f 28/2/7 31/3/7 32/5/7
f 25/2/3 34/3/3 33/4/3
f 34/3/3 25/2/3 35/3/3
f 35/3/3 25/2/3 26/2/3
f 35/3/3 26/2/3 36/5/3
f 39/3/7 38/4/7 37/3/7
f 38/4/7 39/3/7 40/2/7
f 40/2/7 39/3/7 41/2/7
f 41/2/7 39/3/7 42/5/7
f 45/2/3 44/3/3 43/4/3
f 44/3/3 45/2/3 46/3/3
f 46/3/3 45/2/3 47/2/3
f 46/3/3 47/2/3 48/5/3
f 40/2/9 47/2/10 45/2/9
f 47/2/10 40/2/9 41/2/10
f 48/5/12 39/3/11 46/3/11
f 39/3/11 48/5/12 42/5/12
f 24/5/12 15/3/11 23/3/11
f 15/3/11 24/5/12 18/5/12
f 36/5/12 31/3/11 35/3/11
f 31/3/11 36/5/12 32/5/12
f 16/2/9 21/4/13 14/4/13
f 21/4/13 16/2/9 19/2/9
f 27/2/9 33/4/13 29/4/13
f 33/4/13 27/2/9 25/2/9
f 26/2/10 32/5/12 36/5/12
f 32/5/12 26/2/10 28/2/10
f 40/2/9 43/4/13 38/4/13
f 43/4/13 40/2/9 45/2/9
f 20/2/10 18/5/12 24/5/12
f 18/5/12 20/2/10 17/2/10
f 47/2/10 42/5/12 48/5/12
f 42/5/12 47/2/10 41/2/10
f 29/4/8 34/3/8 30/3/8
f 34/3/8 29/4/8 33/4/8
f 38/4/8 44/3/8 37/3/8
f 44/3/8 38/4/8 43/4/8
f 14/4/8 22/3/8 13/3/8
f 22/3/8 14/4/8 21/4/8
f 51/3/14 50/4/14 49/3/14
f 50/4/14 51/3/14 52/2/14
f 52/2/14 51/3/14 53/2/14
f 53/2/14 51/3/14 54/5/14
f 52/2/15 56/2/16 55/2/15
f 56/2/16 52/2/15 53/2/16
f 55/2/17 58/3/17 57/4/17
f 58/3/17 55/2/17 59/3/17
f 59/3/17 55/2/17 56/2/17
f 59/3/17 56/2/17 60/5/17
f 63/2/15 62/2/16 61/2/15
f 62/2/16 63/2/15 64/2/16
f 66/3/14 63/2/14 65/4/14
f 63/2/14 66/3/14 67/3/14
f 63/2/14 67/3/14 64/2/14
f 64/2/14 67/3/14 68/5/14
f 61/2/17 70/3/17 69/4/17
f 70/3/17 61/2/17 71/3/17
f 71/3/17 61/2/17 62/2/17
f 71/3/17 62/2/17 72/5/17
f 75/3/14 74/4/14 73/3/14
f 74/4/14 75/3/14 76/2/14
f 76/2/14 75/3/14 77/2/14
f 77/2/14 75/3/14 78/5/14
f 81/2/17 80/3/17 79/4/17
f 80/3/17 81/2/17 82/3/17
f 82/3/17 81/2/17 83/2/17
f 82/3/17 83/2/17 84/5/17
f 76/2/15 83/2/16 81/2/15
f 83/2/16 76/2/15 77/2/16
f 84/5/19 75/3/18 82/3/18
f 75/3/18 84/5/19 78/5/19
f 60/5/19 51/3/18 59/3/18
f 51/3/18 60/5/19 54/5/19
f 72/5/19 67/3/18 71/3/18
f 67/3/18 72/5/19 68/5/19
f 52/2/15 57/4/20 50/4/20
f 57/4/20 52/2/15 55/2/15
f 63/2/15 69/4/20 65/4/20
f 69/4/20 63/2/15 61/2/15
f 62/2/16 68/5/19 72/5/19
f 68/5/19 62/2/16 64/2/16
f 76/2/15 79/4/20 74/4/20
f 79/4/20 76/2/15 81/2/15
f 56/2/16 54/5/19 60/5/19
f 54/5/19 56/2/16 53/2/16
f 83/2/16 78/5/19 84/5/19
f 78/5/19 83/2/16 77/2/16
f 65/4/21 70/3/21 66/3/21
f 70/3/21 65/4/21 69/4/21
f 74/4/21 80/3/21 73/3/21
f 80/3/21 74/4/21 79/4/21
f 50/4/21 58/3/21 49/3/21
f 58/3/21 50/4/21 57/4/21
f 87/6/23 86/3/22 85/3/22
f 86/3/22 87/6/23 88/6/23
f 91/6/25 90/3/24 89/3/24
f 90/3/24 91/6/25 92/6/25
f 91/6/25 87/6/23 92/6/25
f 87/6/23 91/6/25 88/6/23
f 95/6/23 94/3/22 93/3/22
f 94/3/22 95/6/23 96/6/23
f 99/6/25 98/3/24 97/3/24
f 98/3/24 99/6/25 100/6/25
f 99/6/25 95/6/23 100/6/25
f 95/6/23 99/6/25 96/6/23
f 85/3/22 102/3/26 101/3/26
f 102/3/26 85/3/22 86/3/22
f 93/3/22 104/3/26 103/3/26
f 104/3/26 93/3/22 94/3/22
f 107/6/28 106/3/27 105/3/27
f 106/3/27 107/6/28 108/6/28
f 111/6/30 110/3/29 109/3/29
f 110/3/29 111/6/30 112/6/30
f 111/6/30 107/6/28 112/6/30
f 107/6/28 111/6/30 108/6/28
f 115/6/28 114/3/27 113/3/27
f 114/3/27 115/6/28 116/6/28
f 119/6/30 118/3/29 117/3/29
f 118/3/29 119/6/30 120/6/30
f 119/6/30 115/6/28 120/6/30
f 115/6/28 119/6/30 116/6/28
f 105/3/27 122/3/4 121/3/4
f 122/3/4 105/3/27 106/3/27
f 113/3/27 124/3/4 123/3/4
f 124/3/4 113/3/27 114/3/27
f 127/7/32 126/8/31 125/7/31
f 126/8/31 127/7/32 128/8/32
f 131/8/34 130/7/33 129/8/33
f 130/7/33 131/8/34 132/7/34
f 135/7/35 134/8/36 133/8/35
f 134/8/36 135/7/35 136/7/36
f 139/7/38 138/8/37 137/7/37
f 138/8/37 139/7/38 140/8/38
f 136/7/36 126/8/31 134/8/36
f 126/8/31 136/7/36 125/7/31
f 128/8/32 132/7/34 131/8/34
f 132/7/34 128/8/32 127/7/32
f 133/8/35 139/7/38 135/7/35
f 139/7/38 133/8/35 140/8/38
f 129/8/33 137/7/37 138/8/37
f 137/7/37 129/8/33 130/7/33
f 138/8/39 131/8/39 129/8/39
f 131/8/39 138/8/39 128/8/39
f 128/8/39 138/8/39 126/8/39
f 126/8/39 138/8/39 140/8/39
f 126/8/39 140/8/39 133/8/39
f 126/8/39 133/8/39 134/8/39
f 143/7/32 142/8/31 141/7/31
f 142/8/31 143/7/32 144/8/32
f 147/8/34 146/7/33 145/8/33
f 146/7/33 147/8/34 148/7/34
f 151/7/35 150/8/36 149/8/35
f 150/8/36 151/7/35 152/7/36
f 155/7/38 154/8/37 153/7/37
f 154/8/37 155/7/38 156/8/38
f 152/7/36 142/8/31 150/8/36
f 142/8/31 152/7/36 141/7/31
f 144/8/32 148/7/34 147/8/34
f 148/7/34 144/8/32 143/7/32
f 149/8/35 155/7/38 151/7/35
f 155/7/38 149/8/35 156/8/38
f 145/8/33 153/7/37 154/8/37
f 153/7/37 145/8/33 146/7/33
f 154/8/39 147/8/39 145/8/39
f 147/8/39 154/8/39 144/8/39
f 144/8/39 154/8/39 142/8/39
f 142/8/39 154/8/39 156/8/39
f 142/8/39 156/8/39 149/8/39
f 142/8/39 149/8/39 150/8/39
f 159/7/41 158/8/40 157/7/40
f 158/8/40 159/7/41 160/8/41
f 163/8/43 162/7/42 161/8/42
f 162/7/42 163/8/43 164/7/43
f 167/7/45 166/8/44 165/7/44
f 166/8/44 167/7/45 168/8/45
f 171/8/46 170/7/47 169/7/46
f 170/7/47 171/8/46 172/8/47
f 157/7/40 168/8/45 167/7/45
f 168/8/45 157/7/40 158/8/40
f 160/8/41 164/7/43 163/8/43
f 164/7/43 160/8/41 159/7/41
f 165/7/44 171/8/46 169/7/46
f 171/8/46 165/7/44 166/8/44
f 161/8/42 170/7/47 172/8/47
f 170/7/47 161/8/42 162/7/42
f 172/8/48 163/8/48 161/8/48
f 163/8/48 172/8/48 160/8/48
f 160/8/48 172/8/48 171/8/48
f 160/8/48 171/8/48 158/8/48
f 158/8/48 171/8/48 166/8/48
f 158/8/48 166/8/48 168/8/48
f 175/7/41 174/8/40 173/7/40
f 174/8/40 175/7/41 176/8/41
f 179/8/43 178/7/42 177/8/42
f 178/7/42 179/8/43 180/7/43
f 183/7/45 182/8/44 181/7/44
f 182/8/44 183/7/45 184/8/45
f 187/8/46 186/7/47 185/7/46
f 186/7/47 187/8/46 188/8/47
f 173/7/40 184/8/45 183/7/45
f 184/8/45 173/7/40 174/8/40
f 176/8/41 180/7/43 179/8/43
f 180/7/43 176/8/41 175/7/41
f 181/7/44 187/8/46 185/7/46
f 187/8/46 181/7/44 182/8/44
f 177/8/42 186/7/47 188/8/47
f 186/7/47 177/8/42 178/7/42
f 175/7/49 178/7/49 180/7/49
f 178/7/49 175/7/49 186/7/49
f 186/7/49 175/7/49 173/7/49
f 186/7/49 173/7/49 185/7/49
f 185/7/49 173/7/49 181/7/49
f 181/7/49 173/7/49 183/7/49
f 191/7/32 190/8/31 189/7/31
f 190/8/31 191/7/32 192/8/32
f 195/8/34 194/7/33 193/8/33
f 194/7/33 195/8/34 196/7/34
f 199/7/35 198/8/36 197/8/35
f 198/8/36 199/7/35 200/7/36
f 203/7/38 202/8/37 201/7/37
f 202/8/37 203/7/38 204/8/38
f 200/7/36 190/8/31 198/8/36
f 190/8/31 200/7/36 189/7/31
f 192/8/32 196/7/34 195/8/34
f 196/7/34 192/8/32 191/7/32
f 197/8/35 203/7/38 199/7/35
f 203/7/38 197/8/35 204/8/38
f 193/8/33 201/7/37 202/8/37
f 201/7/37 193/8/33 194/7/33
f 191/7/50 194/7/50 196/7/50
f 194/7/50 191/7/50 201/7/50
f 201/7/50 191/7/50 203/7/50
f 203/7/50 191/7/50 189/7/50
f 203/7/50 189/7/50 200/7/50
f 203/7/50 200/7/50 199/7/50
f 11/9/51 3/9/51 5/9/51
f 3/9/51 11/9/51 4/9/51
f 207/10/7 206/9/7 205/10/7
f 206/9/7 207/10/7 208/9/7
f 206/9/52 210/9/51 209/9/52
f 210/9/51 206/9/52 208/9/51
f 206/9/52 211/10/8 205/10/8
f 211/10/8 206/9/52 209/9/52
f 210/9/4 207/10/4 212/10/4
f 207/10/4 210/9/4 208/9/4
f 210/9/3 211/10/3 209/9/3
f 211/10/3 210/9/3 212/10/3
f 215/9/51 214/9/53 213/9/53
f 214/9/53 215/9/51 216/9/51
f 213/9/53 218/10/4 217/10/4
f 218/10/4 213/9/53 214/9/53
f 218/10/7 216/9/7 219/10/7
f 216/9/7 218/10/7 214/9/7
f 216/9/8 220/10/8 219/10/8
f 220/10/8 216/9/8 215/9/8
f 213/9/3 220/10/3 215/9/3
f 220/10/3 213/9/3 217/10/3
f 223/11/54 222/11/54 221/11/54
f 222/11/54 223/11/54 224/11/54
f 225/12/3 221/11/3 222/11/3
f 221/11/3 225/12/3 7/13/3
f 221/11/3 7/13/3 8/13/3
f 221/11/3 8/13/3 226/12/3
f 223/11/7 227/12/7 224/11/7
f 227/12/7 223/11/7 12/13/7
f 12/13/7 223/11/7 9/13/7
f 9/13/7 223/11/7 228/12/7
f 227/12/56 222/11/55 224/11/55
f 222/11/55 227/12/56 225/12/56
f 226/12/58 223/11/57 221/11/57
f 223/11/57 226/12/58 228/12/58
f 9/13/53 226/12/58 8/13/53
f 226/12/58 9/13/53 228/12/58
f 12/13/52 225/12/56 227/12/56
f 225/12/56 12/13/52 7/13/52

g castle-wall




usemtl colormap

f 3/2/2 2/1/1 1/1/1
f 2/1/1 3/2/2 4/2/2
f 3/2/3 6/1/3 5/2/3
f 6/1/3 3/2/3 7/3/3
f 7/3/3 3/2/3 1/1/3
f 8/3/3 7/3/3 1/1/3
f 1/1/1 9/3/4 8/3/4
f 9/3/4 1/1/1 2/1/1
f 11/2/6 6/1/5 10/1/5
f 6/1/5 11/2/6 5/2/6
f 9/3/7 10/1/7 12/3/7
f 2/1/7 10/1/7 9/3/7
f 4/2/7 10/1/7 2/1/7
f 10/1/7 4/2/7 11/2/7
f 10/1/5 7/3/8 12/3/8
f 7/3/8 10/1/5 6/1/5
f 15/3/7 14/4/7 13/3/7
f 14/4/7 15/3/7 16/2/7
f 16/2/7 15/3/7 17/2/7
f 17/2/7 15/3/7 18/5/7
f 16/2/9 20/2/10 19/2/9
f 20/2/10 16/2/9 17/2/10
f 19/2/3 22/3/3 21/4/3
f 22/3/3 19/2/3 23/3/3
f 23/3/3 19/2/3 20/2/3
f 23/3/3 20/2/3 24/5/3
f 27/2/9 26/2/10 25/2/9
f 26/2/10 27/2/9 28/2/10
f 30/3/7 27/2/7 29/4/7
f 27/2/7 30/3/7 31/3/7
f 27/2/7 31/3/7 28/2/7
f 28/2/7 31/3/7 32/5/7
f 25/2/3 34/3/3 33/4/3
f 34/3/3 25/2/3 35/3/3
f 35/3/3 25/2/3 26/2/3
f 35/3/3 26/2/3 36/5/3
f 39/3/7 38/4/7 37/3/7
f 38/4/7 39/3/7 40/2/7
f 40/2/7 39/3/7 41/2/7
f 41/2/7 39/3/7 42/5/7
f 45/2/3 44/3/3 43/4/3
f 44/3/3 45/2/3 46/3/3
f 46/3/3 45/2/3 47/2/3
f 46/3/3 47/2/3 48/5/3
f 40/2/9 47/2/10 45/2/9
f 47/2/10 40/2/9 41/2/10
f 48/5/12 39/3/11 46/3/11
f 39/3/11 48/5/12 42/5/12
f 24/5/12 15/3/11 23/3/11
f 15/3/11 24/5/12 18/5/12
f 36/5/12 31/3/11 35/3/11
f 31/3/11 36/5/12 32/5/12
f 16/2/9 21/4/13 14/4/13
f 21/4/13 16/2/9 19/2/9
f 27/2/9 33/4/13 29/4/13
f 33/4/13 27/2/9 25/2/9
f 26/2/10 32/5/12 36/5/12
f 32/5/12 26/2/10 28/2/10
f 40/2/9 43/4/13 38/4/13
f 43/4/13 40/2/9 45/2/9
f 20/2/10 18/5/12 24/5/12
f 18/5/12 20/2/10 17/2/10
f 47/2/10 42/5/12 48/5/12
f 42/5/12 47/2/10 41/2/10
f 29/4/8 34/3/8 30/3/8
f 34/3/8 29/4/8 33/4/8
f 38/4/8 44/3/8 37/3/8
f 44/3/8 38/4/8 43/4/8
f 14/4/8 22/3/8 13/3/8
f 22/3/8 14/4/8 21/4/8
f 51/3/14 50/4/14 49/3/14
f 50/4/14 51/3/14 52/2/14
f 52/2/14 51/3/14 53/2/14
f 53/2/14 51/3/14 54/5/14
f 52/2/15 56/2/16 55/2/15
f 56/2/16 52/2/15 53/2/16
f 55/2/17 58/3/17 57/4/17
f 58/3/17 55/2/17 59/3/17
f 59/3/17 55/2/17 56/2/17
f 59/3/17 56/2/17 60/5/17
f 63/2/15 62/2/16 61/2/15
f 62/2/16 63/2/15 64/2/16
f 66/3/14 63/2/14 65/4/14
f 63/2/14 66/3/14 67/3/14
f 63/2/14 67/3/14 64/2/14
f 64/2/14 67/3/14 68/5/14
f 61/2/17 70/3/17 69/4/17
f 70/3/17 61/2/17 71/3/17
f 71/3/17 61/2/17 62/2/17
f 71/3/17 62/2/17 72/5/17
f 75/3/14 74/4/14 73/3/14
f 74/4/14 75/3/14 76/2/14
f 76/2/14 75/3/14 77/2/14
f 77/2/14 75/3/14 78/5/14
f 81/2/17 80/3/17 79/4/17
f 80/3/17 81/2/17 82/3/17
f 82/3/17 81/2/17 83/2/17
f 82/3/17 83/2/17 84/5/17
f 76/2/15 83/2/16 81/2/15
f 83/2/16 76/2/15 77/2/16
f 84/5/19 75/3/18 82/3/18
f 75/3/18 84/5/19 78/5/19
f 60/5/19 51/3/18 59/3/18
f 51/3/18 60/5/19 54/5/19
f 72/5/19 67/3/18 71/3/18
f 67/3/18 72/5/19 68/5/19
f 52/2/15 57/4/20 50/4/20
f 57/4/20 52/2/15 55/2/15
f 63/2/15 69/4/20 65/4/20
f 69/4/20 63/2/15 61/2/15
f 62/2/16 68/5/19 72/5/19
f 68/5/19 62/2/16 64/2/16
f 76/2/15 79/4/20 74/4/20
f 79/4/20 76/2/15 81/2/15
f 56/2/16 54/5/19 60/5/19
f 54/5/19 56/2/16 53/2/16
f 83/2/16 78/5/19 84/5/19
f 78/5/19 83/2/16 77/2/16
f 65/4/21 70/3/21 66/3/21
f 70/3/21 65/4/21 69/4/21
f 74/4/21 80/3/21 73/3/21
f 80/3/21 74/4/21 79/4/21
f 50/4/21 58/3/21 49/3/21
f 58/3/21 50/4/21 57/4/21
f 87/6/23 86/3/22 85/3/22
f 86/3/22 87/6/23 88/6/23
f 91/6/25 90/3/24 89/3/24
f 90/3/24 91/6/25 92/6/25
f 91/6/25 87/6/23 92/6/25
f 87/6/23 91/6/25 88/6/23
f 95/6/23 94/3/22 93/3/22
f 94/3/22 95/6/23 96/6/23
f 99/6/25 98/3/24 97/3/24
f 98/3/24 99/6/25 100/6/25
f 99/6/25 95/6/23 100/6/25
f 95/6/23 99/6/25 96/6/23
f 85/3/22 102/3/26 101/3/26
f 102/3/26 85/3/22 86/3/22
f 93/3/22 104/3/26 103/3/26
f 104/3/26 93/3/22 94/3/22
f 107/6/28 106/3/27 105/3/27
f 106/3/27 107/6/28 108/6/28
f 111/6/30 110/3/29 109/3/29
f 110/3/29 111/6/30 112/6/30
f 111/6/30 107/6/28 112/6/30
f 107/6/28 111/6/30 108/6/28
f 115/6/28 114/3/27 113/3/27
f 114/3/27 115/6/28 116/6/28
f 119/6/30 118/3/29 117/3/29
f 118/3/29 119/6/30 120/6/30
f 119/6/30 115/6/28 120/6/30
f 115/6/28 119/6/30 116/6/28
f 105/3/27 122/3/4 121/3/4
f 122/3/4 105/3/27 106/3/27
f 113/3/27 124/3/4 123/3/4
f 124/3/4 113/3/27 114/3/27
f 127/7/32 126/8/31 125/7/31
f 126/8/31 127/7/32 128/8/32
f 131/8/34 130/7/33 129/8/33
f 130/7/33 131/8/34 132/7/34
f 135/7/35 134/8/36 133/8/35
f 134/8/36 135/7/35 136/7/36
f 139/7/38 138/8/37 137/7/37
f 138/8/37 139/7/38 140/8/38
f 136/7/36 126/8/31 134/8/36
f 126/8/31 136/7/36 125/7/31
f 128/8/32 132/7/34 131/8/34
f 132/7/34 128/8/32 127/7/32
f 133/8/35 139/7/38 135/7/35
f 139/7/38 133/8/35 140/8/38
f 129/8/33 137/7/37 138/8/37
f 137/7/37 129/8/33 130/7/33
f 138/8/39 131/8/39 129/8/39
f 131/8/39 138/8/39 128/8/39
f 128/8/39 138/8/39 126/8/39
f 126/8/39 138/8/39 140/8/39
f 126/8/39 140/8/39 133/8/39
f 126/8/39 133/8/39 134/8/39
f 143/7/32 142/8/31 141/7/31
f 142/8/31 143/7/32 144/8/32
f 147/8/34 146/7/33 145/8/33
f 146/7/33 147/8/34 148/7/34
f 151/7/35 150/8/36 149/8/35
f 150/8/36 151/7/35 152/7/36
f 155/7/38 154/8/37 153/7/37
f 154/8/37 155/7/38 156/8/38
f 152/7/36 142/8/31 150/8/36
f 142/8/31 152/7/36 141/7/31
f 144/8/32 148/7/34 147/8/34
f 148/7/34 144/8/32 143/7/32
f 149/8/35 155/7/38 151/7/35
f 155/7/38 149/8/35 156/8/38
f 145/8/33 153/7/37 154/8/37
f 153/7/37 145/8/33 146/7/33
f 154/8/39 147/8/39 145/8/39
f 147/8/39 154/8/39 144/8/39
f 144/8/39 154/8/39 142/8/39
f 142/8/39 154/8/39 156/8/39
f 142/8/39 156/8/39 149/8/39
f 142/8/39 149/8/39 150/8/39
f 159/7/41 158/8/40 157/7/40
f 158/8/40 159/7/41 160/8/41
f 163/8/43 162/7/42 161/8/42
f 162/7/42 163/8/43 164/7/43
f 167/7/45 166/8/44 165/7/44
f 166/8/44 167/7/45 168/8/45
f 171/8/46 170/7/47 169/7/46
f 170/7/47 171/8/46 172/8/47
f 157/7/40 168/8/45 167/7/45
f 168/8/45 157/7/40 158/8/40
f 160/8/41 164/7/43 163/8/43
f 164/7/43 160/8/41 159/7/41
f 165/7/44 171/8/46 169/7/46
f 171/8/46 165/7/44 166/8/44
f 161/8/42 170/7/47 172/8/47
f 170/7/47 161/8/42 162/7/42
f 172/8/48 163/8/48 161/8/48
f 163/8/48 172/8/48 160/8/48
f 160/8/48 172/8/48 171/8/48
f 160/8/48 171/8/48 158/8/48
f 158/8/48 171/8/48 166/8/48
f 158/8/48 166/8/48 168/8/48
f 175/7/41 174/8/40 173/7/40
f 174/8/40 175/7/41 176/8/41
f 179/8/43 178/7/42 177/8/42
f 178/7/42 179/8/43 180/7/43
f 183/7/45 182/8/44 181/7/44
f 182/8/44 183/7/45 184/8/45
f 187/8/46 186/7/47 185/7/46
f 186/7/47 187/8/46 188/8/47
f 173/7/40 184/8/45 183/7/45
f 184/8/45 173/7/40 174/8/40
f 176/8/41 180/7/43 179/8/43
f 180/7/43 176/8/41 175/7/41
f 181/7/44 187/8/46 185/7/46
f 187/8/46 181/7/44 182/8/44
f 177/8/42 186/7/47 188/8/47
f 186/7/47 177/8/42 178/7/42
f 175/7/49 178/7/49 180/7/49
f 178/7/49 175/7/49 186/7/49
f 186/7/49 175/7/49 173/7/49
f 186/7/49 173/7/49 185/7/49
f 185/7/49 173/7/49 181/7/49
f 181/7/49 173/7/49 183/7/49
f 191/7/32 190/8/31 189/7/31
f 190/8/31 191/7/32 192/8/32
f 195/8/34 194/7/33 193/8/33
f 194/7/33 195/8/34 196/7/34
f 199/7/35 198/8/36 197/8/35
f 198/8/36 199/7/35 200/7/36
f 203/7/38 202/8/37 201/7/37
f 202/8/37 203/7/38 204/8/38
f 200/7/36 190/8/31 198/8/36
f 190/8/31 200/7/36 189/7/31
f 192/8/32 196/7/34 195/8/34
f 196/7/34 192/8/32 191/7/32
f 197/8/35 203/7/38 199/7/35
f 203/7/38 197/8/35 204/8/38
f 193/8/33 201/7/37 202/8/37
f 201/7/37 193/8/33 194/7/33
f 191/7/50 194/7/50 196/7/50
f 194/7/50 191/7/50 201/7/50
f 201/7/50 191/7/50 203/7/50
f 203/7/50 191/7/50 189/7/50
f 203/7/50 189/7/50 200/7/50
f 203/7/50 200/7/50 199/7/50
f 11/9/51 3/9/51 5/9/51
f 3/9/51 11/9/51 4/9/51
f 207/10/7 206/9/7 205/10/7
f 206/9/7 207/10/7 208/9/7
f 206/9/52 210/9/51 209/9/52
f 210/9/51 206/9/52 208/9/51
f 206/9/52 211/10/8 205/10/8
f 211/10/8 206/9/52 209/9/52
f 210/9/4 207/10/4 212/10/4
f 207/10/4 210/9/4 208/9/4
f 210/9/3 211/10/3 209/9/3
f 211/10/3 210/9/3 212/10/3
f 215/9/51 214/9/53 213/9/53
f 214/9/53 215/9/51 216/9/51
f 213/9/53 218/10/4 217/10/4
f 218/10/4 213/9/53 214/9/53
f 218/10/7 216/9/7 219/10/7
f 216/9/7 218/10/7 214/9/7
f 216/9/8 220/10/8 219/10/8
f 220/10/8 216/9/8 215/9/8
f 213/9/3 220/10/3 215/9/3
f 220/10/3 213/9/3 217/10/3
f 223/11/54 222/11/54 221/11/54
f 222/11/54 223/11/54 224/11/54
f 225/12/3 221/11/3 222/11/3
f 221/11/3 225/12/3 7/13/3
f 221/11/3 7/13/3 8/13/3
f 221/11/3 8/13/3 226/12/3
f 223/11/7 227/12/7 224/11/7
f 227/12/7 223/11/7 12/13/7
f 12/13/7 223/11/7 9/13/7
f 9/13/7 223/11/7 228/12/7
f 227/12/56 222/11/55 224/11/55
f 222/11/55 227/12/56 225/12/56
f 226/12/58 223/11/57 221/11/57
f 223/11/57 226/12/58 228/12/58
f 9/13/53 226/12/58 8/13/53
f 226/12/58 9/13/53 228/12/58
f 12/13/52 225/12/56 227/12/56
f 225/12/56 12/13/52 7/13/52

