# Created by Kenney (www.kenney.nl)

mtllib mast-ropes.mtl

g mast-ropes

v 0.3464102 5.6 0.201 1 1 1
v 0.3464102 5.6 -0.199 1 1 1
v -4.331468E-15 5.6 0.401 1 1 1
v -4.331468E-15 5.6 -0.399 1 1 1
v -0.3464102 5.6 0.201 1 1 1
v -0.3464102 5.6 -0.199 1 1 1
v 0.4849742 6.4 -0.279 1 1 1
v 0.4849742 6.4 0.281 1 1 1
v -7.219114E-15 6.4 -0.559 1 1 1
v -0.4849742 6.4 -0.279 1 1 1
v -0.4849742 6.4 0.281 1 1 1
v -7.219114E-15 6.4 0.561 1 1 1
v 0.3225228 5.7 -0.1852086 1 1 1
v 0.3225228 5.7 0.1872086 1 1 1
v -4.331468E-15 5.7 -0.3714173 1 1 1
v -4.331468E-15 5.7 0.3734172 1 1 1
v -0.3225228 5.7 -0.1852086 1 1 1
v -0.3225228 5.7 0.1872086 1 1 1
v -4.331468E-15 6.4 -0.3714173 1 1 1
v -0.3225228 6.4 -0.1852086 1 1 1
v -0.3225228 6.4 0.1872086 1 1 1
v -4.331468E-15 6.4 0.3734172 1 1 1
v 0.3225228 6.4 0.1872086 1 1 1
v 0.3225228 6.4 -0.1852086 1 1 1
v 0.1299038 7.86352 -0.075 1 1 1
v 0.1299038 7.86352 0.075 1 1 1
v 0 7.86352 -0.15 1 1 1
v 0 7.86352 0.15 1 1 1
v -0.1299038 7.86352 -0.075 1 1 1
v -0.1299038 7.86352 0.075 1 1 1
v 0.2480242 0.8 -0.1431968 1 1 1
v 0.2480242 0.8 0.1431968 1 1 1
v -9.529231E-16 0.8 -0.2863936 1 1 1
v -9.529231E-16 0.8 0.2863936 1 1 1
v -0.2480242 0.8 -0.1431968 1 1 1
v -0.2480242 0.8 0.1431968 1 1 1
v 0.3401175 0 -0.1963669 1 1 1
v 0.3401175 0 0.1963669 1 1 1
v 6.280629E-15 0 -0.3927339 1 1 1
v 6.280629E-15 0 0.3927339 1 1 1
v -0.3401175 0 0.1963669 1 1 1
v -0.3401175 0 -0.1963669 1 1 1
v 2.887646E-15 0.8 0.201 1 1 1
v -0.1740711 0.8 0.1005 1 1 1
v -0.1740711 0.8 -0.1005 1 1 1
v 0.1740711 0.8 -0.1005 1 1 1
v 0.1740711 0.8 0.1005 1 1 1
v 2.887646E-15 0.8 -0.201 1 1 1
v 1.975034 5.789199 0.06139364 1 1 1
v 1.911733 5.803749 0.1738936 1 1 1
v 1.848432 5.818299 0.06139364 1 1 1
v 1.214131 2.768785 0.1738936 1 1 1
v 1.277432 2.754235 0.06139364 1 1 1
v 1.15083 2.783335 0.06139364 1 1 1
v 1.17119 2.769836 0.02831906 1 1 1
v 1.244911 2.745338 0.1324346 1 1 1
v 1.117386 2.72084 0.1359272 1 1 1
v 1.744911 0 -0.8675654 1 1 1
v 1.67119 0.02449794 -0.971681 1 1 1
v 1.617386 -0.02449794 -0.8640728 1 1 1
v 1.184468 2.72084 0.02831906 1 1 1
v 1.238272 2.769836 0.1359272 1 1 1
v 1.110747 2.745338 0.1324347 1 1 1
v 1.738272 0.02449794 1.135927 1 1 1
v 1.684468 -0.02449794 1.028319 1 1 1
v 1.610747 0 1.132435 1 1 1
v -1.153447 2.910122 0.06137908 1 1 1
v -1.207732 2.956389 0.1699493 1 1 1
v -1.281213 2.933255 0.06535268 1 1 1
v -1.707732 0.02313348 1.169949 1 1 1
v -1.653447 -0.02313348 1.061379 1 1 1
v -1.781213 0 1.065353 1 1 1
v -1.147049 2.933255 0.06535265 1 1 1
v -1.220529 2.910122 0.1699493 1 1 1
v -1.274814 2.956389 0.06137905 1 1 1
v -1.720529 -0.02313348 -0.8300507 1 1 1
v -1.647049 0 -0.9346473 1 1 1
v -1.774814 0.02313348 -0.9386209 1 1 1
v -1.115658 3.075506 0.1363936 1 1 1
v -1.177829 3.056702 0.02389364 1 1 1
v -1.239999 3.037898 0.1363936 1 1 1
v -1.849648 5.27785 0.02389364 1 1 1
v -1.787477 5.296655 0.1363936 1 1 1
v -1.911818 5.259046 0.1363936 1 1 1

vn 0 -1 0
vn 0.8492078 -0.1961161 -0.4902903
vn 0.8492078 -0.1961161 0.4902903
vn 0 -0.1961161 -0.9805807
vn -0.8492078 -0.1961161 -0.4902903
vn -0.8492078 -0.1961161 0.4902903
vn 0 -0.1961161 0.9805807
vn 0 1 0
vn 0 0 1
vn 0.8660254 0 0.5
vn 0.8660254 0 -0.5
vn 0 0 -1
vn -0.8660254 0 -0.5
vn -0.8660254 0 0.5
vn 0.8584744 0.1317663 -0.4956404
vn 0.8584744 0.1317663 0.4956404
vn 0 0.1317663 -0.9912808
vn 0 0.1317663 0.9912808
vn -0.8584744 0.1317663 0.4956404
vn -0.8584744 0.1317663 -0.4956404
vn 0 0.007220008 0.999974
vn -0.8660028 0.007220007 0.4999869
vn -0.8660028 0.007220007 -0.4999869
vn 0.8660028 0.007220007 -0.4999869
vn 0.8660028 0.007220007 0.4999869
vn 0 0.007220008 -0.999974
vn 0.2240135 0.974586 0
vn -0.2240135 -0.974586 0
vn 0.8440162 -0.1940014 -0.5
vn -0.8440162 0.1940014 -0.5
vn -0.1686757 0.9261438 0.3373515
vn 0.1686757 -0.9261438 -0.3373515
vn -0.08851962 0.3266392 -0.9409948
vn 0.8944272 0 0.4472136
vn -0.8059075 -0.3266392 0.4937812
vn -0.1686757 0.9261438 -0.3373515
vn 0.1686757 -0.9261438 0.3373515
vn -0.8944272 0 0.4472136
vn 0.8059075 0.3266392 0.4937812
vn 0.08851962 -0.3266392 -0.9409948
vn 0.159281 0.9344237 -0.3185621
vn -0.159281 -0.9344237 0.3185621
vn 0.8091143 -0.3084464 -0.5001948
vn -0.8944272 0 -0.4472136
vn 0.08531282 0.3084464 0.9474083
vn 0.159281 0.9344237 0.3185621
vn -0.159281 -0.9344237 -0.3185621
vn -0.8091143 0.3084464 -0.5001948
vn -0.08531282 -0.3084464 0.9474083
vn 0.8944272 0 -0.4472136
vn 0.2895115 -0.9571745 0
vn -0.2895115 0.9571745 0
vn 0.8289375 0.2507243 0.5
vn -0.8289375 -0.2507243 0.5

vt 0.71875 0.025
vt 0.71875 0.225
vt 0.71875 0.05
vt 0.84375 0.04534712
vt 0.84375 0.225
vt 0.96875 0.02689945
vt 0.96875 0.02594974
vt 0.96875 0.025
vt 0.96875 0.2240503
vt 0.96875 0.225
vt 0.96875 0.2231005
vt 0.96875 0.0267534
vt 0.96875 0.0285068
vt 0.96875 0.2232466
vt 0.96875 0.2214932
vt 0.96875 0.02810566
vt 0.96875 0.02655284
vt 0.96875 0.2218943
vt 0.96875 0.2234472
vt 0.96875 0.22167
vt 0.96875 0.223335
vt 0.96875 0.02666504
vt 0.96875 0.02833005

usemtl colormap

f 3/1/1 2/1/1 1/1/1
f 2/1/1 3/1/1 4/1/1
f 4/1/1 3/1/1 5/1/1
f 4/1/1 5/1/1 6/1/1
f 8/2/3 2/1/2 7/2/2
f 2/1/2 8/2/3 1/1/3
f 9/2/4 2/1/2 4/1/4
f 2/1/2 9/2/4 7/2/2
f 6/1/5 11/2/6 10/2/5
f 11/2/6 6/1/5 5/1/6
f 12/2/7 5/1/6 3/1/7
f 5/1/6 12/2/7 11/2/6
f 10/2/5 4/1/4 6/1/5
f 4/1/4 10/2/5 9/2/4
f 8/2/3 3/1/7 1/1/3
f 3/1/7 8/2/3 12/2/7
f 15/3/8 14/3/8 13/3/8
f 14/3/8 15/3/8 16/3/8
f 16/3/8 15/3/8 17/3/8
f 16/3/8 17/3/8 18/3/8
f 19/2/9 17/3/10 15/3/9
f 17/3/10 19/2/9 20/2/10
f 21/2/11 17/3/10 20/2/10
f 17/3/10 21/2/11 18/3/11
f 21/2/11 16/3/12 18/3/11
f 16/3/12 21/2/11 22/2/12
f 22/2/12 14/3/13 16/3/12
f 14/3/13 22/2/12 23/2/13
f 14/3/13 24/2/14 13/3/14
f 24/2/14 14/3/13 23/2/13
f 24/2/14 15/3/9 13/3/14
f 15/3/9 24/2/14 19/2/9
f 12/2/8 21/2/8 11/2/8
f 11/2/8 21/2/8 10/2/8
f 12/2/8 22/2/8 21/2/8
f 20/2/8 10/2/8 21/2/8
f 12/2/8 23/2/8 22/2/8
f 8/2/8 23/2/8 12/2/8
f 20/2/8 9/2/8 10/2/8
f 19/2/8 9/2/8 20/2/8
f 23/2/8 8/2/8 24/2/8
f 24/2/8 9/2/8 19/2/8
f 7/2/8 24/2/8 8/2/8
f 24/2/8 7/2/8 9/2/8
f 27/2/8 26/2/8 25/2/8
f 26/2/8 27/2/8 28/2/8
f 28/2/8 27/2/8 29/2/8
f 28/2/8 29/2/8 30/2/8
f 33/2/8 32/2/8 31/2/8
f 32/2/8 33/2/8 34/2/8
f 34/2/8 33/2/8 35/2/8
f 34/2/8 35/2/8 36/2/8
f 31/2/15 38/1/16 37/1/15
f 38/1/16 31/2/15 32/2/16
f 33/2/17 37/1/15 39/1/17
f 37/1/15 33/2/17 31/2/15
f 34/2/18 41/1/19 40/1/18
f 41/1/19 34/2/18 36/2/19
f 41/1/19 35/2/20 42/1/20
f 35/2/20 41/1/19 36/2/19
f 32/2/16 40/1/18 38/1/16
f 40/1/18 32/2/16 34/2/18
f 35/2/20 39/1/17 42/1/20
f 39/1/17 35/2/20 33/2/17
f 40/1/1 37/1/1 38/1/1
f 37/1/1 40/1/1 39/1/1
f 39/1/1 40/1/1 41/1/1
f 39/1/1 41/1/1 42/1/1
f 28/5/21 44/4/22 43/4/21
f 44/4/22 28/5/21 30/5/22
f 44/4/22 29/5/23 45/4/23
f 29/5/23 44/4/22 30/5/22
f 25/5/24 47/4/25 46/4/24
f 47/4/25 25/5/24 26/5/25
f 26/5/25 43/4/21 47/4/25
f 43/4/21 26/5/25 28/5/21
f 27/5/26 46/4/24 48/4/26
f 46/4/24 27/5/26 25/5/24
f 29/5/23 48/4/26 45/4/23
f 48/4/26 29/5/23 27/5/26
f 51/8/27 50/7/27 49/6/27
f 54/11/28 53/10/28 52/9/28
f 54/11/30 49/6/29 53/10/29
f 49/6/29 54/11/30 51/8/30
f 50/7/9 53/10/29 49/6/29
f 53/10/29 50/7/9 52/9/9
f 52/9/9 51/8/30 54/11/30
f 51/8/30 52/9/9 50/7/9
f 57/13/31 56/12/31 55/8/31
f 60/10/32 59/15/32 58/14/32
f 55/8/33 58/14/34 59/15/33
f 58/14/34 55/8/33 56/12/34
f 60/10/35 55/8/33 59/15/33
f 55/8/33 60/10/35 57/13/35
f 58/14/34 57/13/35 60/10/35
f 57/13/35 58/14/34 56/12/34
f 63/12/36 62/8/36 61/13/36
f 66/14/37 65/10/37 64/15/37
f 64/15/39 63/12/38 66/14/38
f 63/12/38 64/15/39 62/8/39
f 65/10/40 63/12/38 61/13/40
f 63/12/38 65/10/40 66/14/38
f 62/8/39 65/10/40 61/13/40
f 65/10/40 62/8/39 64/15/39
f 69/17/41 68/8/41 67/16/41
f 72/19/42 71/10/42 70/18/42
f 72/19/44 67/16/43 71/10/43
f 67/16/43 72/19/44 69/17/44
f 68/8/45 71/10/43 67/16/43
f 71/10/43 68/8/45 70/18/45
f 72/19/44 68/8/45 69/17/44
f 68/8/45 72/19/44 70/18/45
f 75/8/46 74/16/46 73/17/46
f 78/18/47 77/19/47 76/10/47
f 76/10/49 75/8/48 78/18/48
f 75/8/48 76/10/49 74/16/49
f 73/17/50 76/10/49 77/19/50
f 76/10/49 73/17/50 74/16/49
f 78/18/48 73/17/50 77/19/50
f 73/17/50 78/18/48 75/8/48
f 81/10/51 80/21/51 79/20/51
f 84/23/52 83/8/52 82/22/52
f 83/8/53 80/21/12 82/22/12
f 80/21/12 83/8/53 79/20/53
f 79/20/53 84/23/54 81/10/54
f 84/23/54 79/20/53 83/8/53
f 81/10/54 82/22/12 80/21/12
f 82/22/12 81/10/54 84/23/54

g mast-ropes




usemtl colormap

f 3/1/1 2/1/1 1/1/1
f 2/1/1 3/1/1 4/1/1
f 4/1/1 3/1/1 5/1/1
f 4/1/1 5/1/1 6/1/1
f 8/2/3 2/1/2 7/2/2
f 2/1/2 8/2/3 1/1/3
f 9/2/4 2/1/2 4/1/4
f 2/1/2 9/2/4 7/2/2
f 6/1/5 11/2/6 10/2/5
f 11/2/6 6/1/5 5/1/6
f 12/2/7 5/1/6 3/1/7
f 5/1/6 12/2/7 11/2/6
f 10/2/5 4/1/4 6/1/5
f 4/1/4 10/2/5 9/2/4
f 8/2/3 3/1/7 1/1/3
f 3/1/7 8/2/3 12/2/7
f 15/3/8 14/3/8 13/3/8
f 14/3/8 15/3/8 16/3/8
f 16/3/8 15/3/8 17/3/8
f 16/3/8 17/3/8 18/3/8
f 19/2/9 17/3/10 15/3/9
f 17/3/10 19/2/9 20/2/10
f 21/2/11 17/3/10 20/2/10
f 17/3/10 21/2/11 18/3/11
f 21/2/11 16/3/12 18/3/11
f 16/3/12 21/2/11 22/2/12
f 22/2/12 14/3/13 16/3/12
f 14/3/13 22/2/12 23/2/13
f 14/3/13 24/2/14 13/3/14
f 24/2/14 14/3/13 23/2/13
f 24/2/14 15/3/9 13/3/14
f 15/3/9 24/2/14 19/2/9
f 12/2/8 21/2/8 11/2/8
f 11/2/8 21/2/8 10/2/8
f 12/2/8 22/2/8 21/2/8
f 20/2/8 10/2/8 21/2/8
f 12/2/8 23/2/8 22/2/8
f 8/2/8 23/2/8 12/2/8
f 20/2/8 9/2/8 10/2/8
f 19/2/8 9/2/8 20/2/8
f 23/2/8 8/2/8 24/2/8
f 24/2/8 9/2/8 19/2/8
f 7/2/8 24/2/8 8/2/8
f 24/2/8 7/2/8 9/2/8
f 27/2/8 26/2/8 25/2/8
f 26/2/8 27/2/8 28/2/8
f 28/2/8 27/2/8 29/2/8
f 28/2/8 29/2/8 30/2/8
f 33/2/8 32/2/8 31/2/8
f 32/2/8 33/2/8 34/2/8
f 34/2/8 33/2/8 35/2/8
f 34/2/8 35/2/8 36/2/8
f 31/2/15 38/1/16 37/1/15
f 38/1/16 31/2/15 32/2/16
f 33/2/17 37/1/15 39/1/17
f 37/1/15 33/2/17 31/2/15
f 34/2/18 41/1/19 40/1/18
f 41/1/19 34/2/18 36/2/19
f 41/1/19 35/2/20 42/1/20
f 35/2/20 41/1/19 36/2/19
f 32/2/16 40/1/18 38/1/16
f 40/1/18 32/2/16 34/2/18
f 35/2/20 39/1/17 42/1/20
f 39/1/17 35/2/20 33/2/17
f 40/1/1 37/1/1 38/1/1
f 37/1/1 40/1/1 39/1/1
f 39/1/1 40/1/1 41/1/1
f 39/1/1 41/1/1 42/1/1
f 28/5/21 44/4/22 43/4/21
f 44/4/22 28/5/21 30/5/22
f 44/4/22 29/5/23 45/4/23
f 29/5/23 44/4/22 30/5/22
f 25/5/24 47/4/25 46/4/24
f 47/4/25 25/5/24 26/5/25
f 26/5/25 43/4/21 47/4/25
f 43/4/21 26/5/25 28/5/21
f 27/5/26 46/4/24 48/4/26
f 46/4/24 27/5/26 25/5/24
f 29/5/23 48/4/26 45/4/23
f 48/4/26 29/5/23 27/5/26
f 51/8/27 50/7/27 49/6/27
f 54/11/28 53/10/28 52/9/28
f 54/11/30 49/6/29 53/10/29
f 49/6/29 54/11/30 51/8/30
f 50/7/9 53/10/29 49/6/29
f 53/10/29 50/7/9 52/9/9
f 52/9/9 51/8/30 54/11/30
f 51/8/30 52/9/9 50/7/9
f 57/13/31 56/12/31 55/8/31
f 60/10/32 59/15/32 58/14/32
f 55/8/33 58/14/34 59/15/33
f 58/14/34 55/8/33 56/12/34
f 60/10/35 55/8/33 59/15/33
f 55/8/33 60/10/35 57/13/35
f 58/14/34 57/13/35 60/10/35
f 57/13/35 58/14/34 56/12/34
f 63/12/36 62/8/36 61/13/36
f 66/14/37 65/10/37 64/15/37
f 64/15/39 63/12/38 66/14/38
f 63/12/38 64/15/39 62/8/39
f 65/10/40 63/12/38 61/13/40
f 63/12/38 65/10/40 66/14/38
f 62/8/39 65/10/40 61/13/40
f 65/10/40 62/8/39 64/15/39
f 69/17/41 68/8/41 67/16/41
f 72/19/42 71/10/42 70/18/42
f 72/19/44 67/16/43 71/10/43
f 67/16/43 72/19/44 69/17/44
f 68/8/45 71/10/43 67/16/43
f 71/10/43 68/8/45 70/18/45
f 72/19/44 68/8/45 69/17/44
f 68/8/45 72/19/44 70/18/45
f 75/8/46 74/16/46 73/17/46
f 78/18/47 77/19/47 76/10/47
f 76/10/49 75/8/48 78/18/48
f 75/8/48 76/10/49 74/16/49
f 73/17/50 76/10/49 77/19/50
f 76/10/49 73/17/50 74/16/49
f 78/18/48 73/17/50 77/19/50
f 73/17/50 78/18/48 75/8/48
f 81/10/51 80/21/51 79/20/51
f 84/23/52 83/8/52 82/22/52
f 83/8/53 80/21/12 82/22/12
f 80/21/12 83/8/53 79/20/53
f 79/20/53 84/23/54 81/10/54
f 84/23/54 79/20/53 83/8/53
f 81/10/54 82/22/12 80/21/12
f 82/22/12 81/10/54 84/23/54

g sail-a

v 2.159964 5.983696 -0.01360616 1 1 1
v 2.192833 5.761109 -0.01360616 1 1 1
v 2.159964 5.983696 0.2113938 1 1 1
v 2.192833 5.761109 0.2113938 1 1 1
v -2.159966 5.118344 -0.01360616 1 1 1
v -2.192834 5.34093 -0.01360616 1 1 1
v -2.159966 5.118344 0.2113938 1 1 1
v -2.192834 5.34093 0.2113938 1 1 1
v 1.504127 2.834983 -0.01360616 1 1 1
v 1.484909 2.610806 -0.01360616 1 1 1
v 1.504127 2.834983 0.2113938 1 1 1
v 1.484909 2.610806 0.2113938 1 1 1
v -1.504127 2.867056 -0.01360616 1 1 1
v -1.484908 3.091234 -0.01360616 1 1 1
v -1.504127 2.867056 0.2113938 1 1 1
v -1.484908 3.091234 0.2113938 1 1 1
v -1.764257 5.176777 0.3113938 1 1 1
v -1.962111 5.147561 0.3113938 1 1 1
v -1.797125 5.399364 0.3113938 1 1 1
v -1.99498 5.370147 0.3113938 1 1 1
v -1.962111 5.147561 -0.1136062 1 1 1
v -1.764257 5.176777 -0.1136062 1 1 1
v -1.99498 5.370147 -0.1136062 1 1 1
v -1.797125 5.399364 -0.1136062 1 1 1
v -1.749648 5.07785 0.2113938 1 1 1
v -1.749648 5.07785 -0.01360616 1 1 1
v -1.947503 5.048633 0.2113938 1 1 1
v -1.947503 5.048633 -0.01360616 1 1 1
v -1.811734 5.498291 -0.01360616 1 1 1
v -1.811734 5.498291 0.2113938 1 1 1
v -2.009588 5.469074 -0.01360616 1 1 1
v -2.009588 5.469074 0.2113938 1 1 1
v 1.994979 5.731893 0.3113938 1 1 1
v 1.797124 5.702676 0.3113938 1 1 1
v 1.96211 5.954479 0.3113938 1 1 1
v 1.764256 5.925262 0.3113938 1 1 1
v 1.797124 5.702676 -0.1136062 1 1 1
v 1.994979 5.731893 -0.1136062 1 1 1
v 1.764256 5.925262 -0.1136062 1 1 1
v 1.96211 5.954479 -0.1136062 1 1 1
v 2.009587 5.632966 0.2113938 1 1 1
v 2.009587 5.632966 -0.01360616 1 1 1
v 1.811733 5.603749 0.2113938 1 1 1
v 1.811733 5.603749 -0.01360616 1 1 1
v 1.947502 6.053406 -0.01360616 1 1 1
v 1.947502 6.053406 0.2113938 1 1 1
v 1.749647 6.024189 -0.01360616 1 1 1
v 1.749647 6.024189 0.2113938 1 1 1
v -1.105588 2.83289 0.3113938 1 1 1
v -1.304857 2.849973 0.3113938 1 1 1
v -1.086369 3.057067 0.3113938 1 1 1
v -1.285638 3.074151 0.3113938 1 1 1
v -1.304857 2.849973 -0.1136062 1 1 1
v -1.105588 2.83289 -0.1136062 1 1 1
v -1.285638 3.074151 -0.1136062 1 1 1
v -1.086369 3.057067 -0.1136062 1 1 1
v -1.11413 2.733255 0.2113938 1 1 1
v -1.11413 2.733255 -0.01360616 1 1 1
v -1.313399 2.750339 0.2113938 1 1 1
v -1.313399 2.750339 -0.01360616 1 1 1
v -1.077827 3.156702 -0.01360616 1 1 1
v -1.077827 3.156702 0.2113938 1 1 1
v -1.277097 3.173785 -0.01360616 1 1 1
v -1.277097 3.173785 0.2113938 1 1 1
v 1.28564 2.627889 0.3113938 1 1 1
v 1.086371 2.644972 0.3113938 1 1 1
v 1.304859 2.852067 0.3113938 1 1 1
v 1.10559 2.86915 0.3113938 1 1 1
v 1.086371 2.644972 -0.1136062 1 1 1
v 1.28564 2.627889 -0.1136062 1 1 1
v 1.10559 2.86915 -0.1136062 1 1 1
v 1.304859 2.852067 -0.1136062 1 1 1
v 1.277098 2.528255 0.2113938 1 1 1
v 1.277098 2.528255 -0.01360616 1 1 1
v 1.077829 2.545338 0.2113938 1 1 1
v 1.077829 2.545338 -0.01360616 1 1 1
v 1.3134 2.951701 -0.01360616 1 1 1
v 1.3134 2.951701 0.2113938 1 1 1
v 1.114131 2.968785 -0.01360616 1 1 1
v 1.114131 2.968785 0.2113938 1 1 1

vn 0.9892724 0.146083 0
vn -0.9892724 -0.146083 0
vn 0.1032963 -0.6995212 0.7071068
vn -0.1032963 0.6995212 0.7071068
vn 0.1032963 -0.6995212 -0.7071068
vn -0.1032963 0.6995212 -0.7071068
vn 0.9963452 -0.08541692 0
vn -0.9963452 0.08541692 0
vn -0.06039888 -0.7045224 0.7071068
vn 0.06039888 0.7045224 0.7071068
vn -0.06039888 -0.7045224 -0.7071068
vn 0.06039888 0.7045224 -0.7071068
vn 0.05590355 -0.3785781 0.9238795
vn -0.05590355 0.3785781 0.9238795
vn 0.05590355 -0.3785781 -0.9238795
vn -0.05590355 0.3785781 -0.9238795
vn 0.1349631 -0.9139684 0.3826834
vn 0.1349631 -0.9139684 -0.3826834
vn -0.1349631 0.9139684 -0.3826834
vn -0.1349631 0.9139684 0.3826834
vn -0.03268764 -0.3812848 0.9238795
vn 0.03268764 0.3812848 0.9238795
vn -0.03268764 -0.3812848 -0.9238795
vn 0.03268764 0.3812848 -0.9238795
vn -0.07891494 -0.9205029 0.3826834
vn -0.07891494 -0.9205029 -0.3826834
vn 0.07891494 0.9205029 -0.3826834
vn 0.07891494 0.9205029 0.3826834

vt 0.96875 0.07205883
vt 0.96875 0.1779412

usemtl colormap

f 87/2/55 86/1/55 85/2/55
f 86/1/55 87/2/55 88/1/55
f 91/1/56 90/2/56 89/1/56
f 90/2/56 91/1/56 92/2/56
f 87/2/58 91/1/57 88/1/57
f 91/1/57 87/2/58 92/2/58
f 91/1/57 86/1/59 88/1/57
f 86/1/59 91/1/57 89/1/59
f 90/2/60 86/1/59 89/1/59
f 86/1/59 90/2/60 85/2/60
f 90/2/60 87/2/58 85/2/60
f 87/2/58 90/2/60 92/2/58
f 95/2/61 94/1/61 93/2/61
f 94/1/61 95/2/61 96/1/61
f 99/1/62 98/2/62 97/1/62
f 98/2/62 99/1/62 100/2/62
f 95/2/64 99/1/63 96/1/63
f 99/1/63 95/2/64 100/2/64
f 99/1/63 94/1/65 96/1/63
f 94/1/65 99/1/63 97/1/65
f 98/2/66 94/1/65 97/1/65
f 94/1/65 98/2/66 93/2/66
f 98/2/66 95/2/64 93/2/66
f 95/2/64 98/2/66 100/2/64
f 103/25/68 102/24/67 101/24/67
f 102/24/67 103/25/68 104/25/68
f 107/25/70 106/24/69 105/24/69
f 106/24/69 107/25/70 108/25/70
f 111/8/71 110/8/72 109/8/71
f 110/8/72 111/8/71 112/8/72
f 115/10/73 114/10/74 113/10/73
f 114/10/74 115/10/73 116/10/74
f 114/10/74 104/25/68 103/25/68
f 104/25/68 114/10/74 116/10/74
f 115/10/73 108/25/70 107/25/70
f 108/25/70 115/10/73 113/10/73
f 101/24/67 111/8/71 109/8/71
f 111/8/71 101/24/67 102/24/67
f 105/24/69 110/8/72 112/8/72
f 110/8/72 105/24/69 106/24/69
f 113/10/55 106/24/55 108/25/55
f 106/24/55 113/10/55 110/8/55
f 110/8/55 113/10/55 114/10/55
f 110/8/55 114/10/55 109/8/55
f 109/8/55 114/10/55 103/25/55
f 109/8/55 103/25/55 101/24/55
f 112/8/56 107/25/56 105/24/56
f 107/25/56 112/8/56 115/10/56
f 115/10/56 112/8/56 111/8/56
f 115/10/56 111/8/56 116/10/56
f 116/10/56 111/8/56 102/24/56
f 116/10/56 102/24/56 104/25/56
f 119/25/68 118/24/67 117/24/67
f 118/24/67 119/25/68 120/25/68
f 123/25/70 122/24/69 121/24/69
f 122/24/69 123/25/70 124/25/70
f 127/8/71 126/8/72 125/8/71
f 126/8/72 127/8/71 128/8/72
f 131/10/73 130/10/74 129/10/73
f 130/10/74 131/10/73 132/10/74
f 130/10/74 120/25/68 119/25/68
f 120/25/68 130/10/74 132/10/74
f 131/10/73 124/25/70 123/25/70
f 124/25/70 131/10/73 129/10/73
f 117/24/67 127/8/71 125/8/71
f 127/8/71 117/24/67 118/24/67
f 121/24/69 126/8/72 128/8/72
f 126/8/72 121/24/69 122/24/69
f 129/10/55 122/24/55 124/25/55
f 122/24/55 129/10/55 126/8/55
f 126/8/55 129/10/55 130/10/55
f 126/8/55 130/10/55 125/8/55
f 125/8/55 130/10/55 119/25/55
f 125/8/55 119/25/55 117/24/55
f 128/8/56 123/25/56 121/24/56
f 123/25/56 128/8/56 131/10/56
f 131/10/56 128/8/56 127/8/56
f 131/10/56 127/8/56 132/10/56
f 132/10/56 127/8/56 118/24/56
f 132/10/56 118/24/56 120/25/56
f 135/25/76 134/24/75 133/24/75
f 134/24/75 135/25/76 136/25/76
f 139/25/78 138/24/77 137/24/77
f 138/24/77 139/25/78 140/25/78
f 143/8/79 142/8/80 141/8/79
f 142/8/80 143/8/79 144/8/80
f 147/10/81 146/10/82 145/10/81
f 146/10/82 147/10/81 148/10/82
f 146/10/82 136/25/76 135/25/76
f 136/25/76 146/10/82 148/10/82
f 147/10/81 140/25/78 139/25/78
f 140/25/78 147/10/81 145/10/81
f 133/24/75 143/8/79 141/8/79
f 143/8/79 133/24/75 134/24/75
f 137/24/77 142/8/80 144/8/80
f 142/8/80 137/24/77 138/24/77
f 145/10/61 138/24/61 140/25/61
f 138/24/61 145/10/61 142/8/61
f 142/8/61 145/10/61 146/10/61
f 142/8/61 146/10/61 141/8/61
f 141/8/61 146/10/61 135/25/61
f 141/8/61 135/25/61 133/24/61
f 144/8/62 139/25/62 137/24/62
f 139/25/62 144/8/62 147/10/62
f 147/10/62 144/8/62 143/8/62
f 147/10/62 143/8/62 148/10/62
f 148/10/62 143/8/62 134/24/62
f 148/10/62 134/24/62 136/25/62
f 151/25/76 150/24/75 149/24/75
f 150/24/75 151/25/76 152/25/76
f 155/25/78 154/24/77 153/24/77
f 154/24/77 155/25/78 156/25/78
f 159/8/79 158/8/80 157/8/79
f 158/8/80 159/8/79 160/8/80
f 163/10/81 162/10/82 161/10/81
f 162/10/82 163/10/81 164/10/82
f 162/10/82 152/25/76 151/25/76
f 152/25/76 162/10/82 164/10/82
f 163/10/81 156/25/78 155/25/78
f 156/25/78 163/10/81 161/10/81
f 149/24/75 159/8/79 157/8/79
f 159/8/79 149/24/75 150/24/75
f 153/24/77 158/8/80 160/8/80
f 158/8/80 153/24/77 154/24/77
f 161/10/61 154/24/61 156/25/61
f 154/24/61 161/10/61 158/8/61
f 158/8/61 161/10/61 162/10/61
f 158/8/61 162/10/61 157/8/61
f 157/8/61 162/10/61 151/25/61
f 157/8/61 151/25/61 149/24/61
f 160/8/62 155/25/62 153/24/62
f 155/25/62 160/8/62 163/10/62
f 163/10/62 160/8/62 159/8/62
f 163/10/62 159/8/62 164/10/62
f 164/10/62 159/8/62 150/24/62
f 164/10/62 150/24/62 152/25/62

g flag-c

v -0.055155 7.214225 -0.9971383 1 1 1
v -1.155058E-14 7.45235 -1.17889 1 1 1
v -0.055155 7.690475 -0.9971383 1 1 1
v -0.055155 6.737975 -0.9971383 1 1 1
v -1.155058E-14 6.976099 -1.17889 1 1 1
v 0.06788308 7.690475 -0.6897146 1 1 1
v 0.06788308 6.737975 -0.6897146 1 1 1
v -0.09758193 7.690475 -0.4385282 1 1 1
v -0.09758193 6.737975 -0.4385282 1 1 1
v -0.09758193 7.690475 -0.2651026 1 1 1
v -0.09758193 6.737975 -0.2651026 1 1 1
v -1.155058E-14 7.690475 -0.116967 1 1 1
v -1.155058E-14 6.737975 -0.116967 1 1 1
v 0.06788308 7.690475 -0.8103585 1 1 1
v 0.06788308 6.737975 -0.8103585 1 1 1
v -1.155058E-14 7.690475 -0.9134094 1 1 1
v -1.155058E-14 6.737975 -0.9134094 1 1 1
v 0.116967 6.737975 0.1754505 1 1 1
v -0.116967 6.737975 0.1754505 1 1 1
v 0.116967 6.938 0.1754505 1 1 1
v -0.116967 6.938 0.1754505 1 1 1
v 0.1754505 6.737975 0.116967 1 1 1
v 0.1754505 6.737975 -0.116967 1 1 1
v 0.116967 6.737975 -0.1754505 1 1 1
v -0.116967 6.737975 -0.1754505 1 1 1
v -0.1754505 6.737975 0.116967 1 1 1
v -0.1754505 6.737975 -0.116967 1 1 1
v 0.1754505 6.938 0.116967 1 1 1
v 0.1754505 7.499975 0.116967 1 1 1
v 0.1754505 7.499975 -0.116967 1 1 1
v 0.116967 7.499975 0.1754505 1 1 1
v 0.116967 7.499975 -0.1754505 1 1 1
v -0.116967 7.499975 0.1754505 1 1 1
v -0.116967 7.499975 -0.1754505 1 1 1
v -0.1754505 7.499975 0.116967 1 1 1
v -0.1754505 7.499975 -0.116967 1 1 1
v 0.1754505 6.938 -0.116967 1 1 1
v 0.116967 6.938 -0.1754505 1 1 1
v -0.116967 6.938 -0.1754505 1 1 1
v -0.1754505 6.938 -0.116967 1 1 1
v -0.1754505 6.938 0.116967 1 1 1
v 0.1754505 7.7 0.116967 1 1 1
v 0.116967 7.7 0.1754505 1 1 1
v 0.1754505 7.7 -0.116967 1 1 1
v 0.116967 7.7 -0.1754505 1 1 1
v -0.116967 7.7 -0.1754505 1 1 1
v -0.116967 7.7 0.1754505 1 1 1
v -0.1754505 7.7 -0.116967 1 1 1
v -0.1754505 7.7 0.116967 1 1 1

vn -0.9462509 0 0.3234335
vn -0.9569095 0 -0.2903866
vn -0.8859929 0 0.4636986
vn 0.8859929 0 -0.4636986
vn 0.9569095 0 0.2903866
vn 0.9462509 0 -0.3234335
vn 0.9578871 0 0.2871453
vn -0.9578871 0 -0.2871453
vn 0.9578871 0 -0.2871453
vn 0.8350952 0 -0.5501054
vn -0.8350952 0 0.5501054
vn -0.9578871 0 0.2871453
vn 0.3826834 0 0.9238795
vn -0.3826834 0 0.9238795
vn 0.9238795 0 0.3826834
vn -0.9238795 0 -0.3826834
vn -0.9238795 0 0.3826834
vn 0.3826834 0 -0.9238795
vn 0.9238795 0 -0.3826834
vn -0.3826834 0 -0.9238795

vt 0.34375 0.125
vt 0.34375 0.175
vt 0.34375 0.225
vt 0.34375 0.025
vt 0.34375 0.075
vt 0.34375 0.06658415
vt 0.34375 0.1834158

usemtl colormap

f 167/28/85 166/27/84 165/26/83
f 165/26/83 169/30/84 168/29/85
f 165/26/88 166/27/87 167/28/86
f 168/29/86 169/30/87 165/26/88
f 172/28/89 171/29/89 170/28/89
f 171/29/89 172/28/89 173/29/89
f 170/28/90 171/29/90 172/28/90
f 173/29/90 172/28/90 171/29/90
f 176/28/92 175/29/91 174/28/91
f 175/29/91 176/28/92 177/29/92
f 174/28/94 175/29/94 176/28/93
f 177/29/93 176/28/93 175/29/94
f 170/28/89 179/29/91 178/28/91
f 179/29/91 170/28/89 171/29/89
f 178/28/94 179/29/94 170/28/90
f 171/29/90 170/28/90 179/29/94
f 180/28/92 165/26/88 167/28/86
f 165/26/88 180/28/92 168/29/86
f 168/29/86 180/28/92 181/29/92
f 181/29/92 180/28/92 178/28/91
f 181/29/92 178/28/91 179/29/91
f 167/28/85 165/26/83 180/28/93
f 168/29/85 180/28/93 165/26/83
f 181/29/93 180/28/93 168/29/85
f 178/28/94 180/28/93 181/29/93
f 179/29/94 178/28/94 181/29/93
f 174/28/91 173/29/89 172/28/89
f 173/29/89 174/28/91 175/29/91
f 172/28/90 173/29/90 174/28/94
f 175/29/94 174/28/94 173/29/90
f 184/31/95 183/29/96 182/29/95
f 183/29/96 184/31/95 185/31/96
f 182/29/1 187/29/1 186/29/1
f 187/29/1 182/29/1 188/29/1
f 188/29/1 182/29/1 183/29/1
f 188/29/1 183/29/1 189/29/1
f 189/29/1 183/29/1 190/29/1
f 189/29/1 190/29/1 191/29/1
f 184/31/95 186/29/97 192/31/97
f 186/29/97 184/31/95 182/29/95
f 195/32/1 194/32/1 193/32/1
f 194/32/1 195/32/1 196/32/1
f 196/32/1 195/32/1 197/32/1
f 196/32/1 197/32/1 198/32/1
f 198/32/1 197/32/1 199/32/1
f 198/32/1 199/32/1 200/32/1
f 202/31/8 192/31/8 201/31/8
f 192/31/8 202/31/8 184/31/8
f 184/31/8 202/31/8 203/31/8
f 184/31/8 203/31/8 185/31/8
f 185/31/8 203/31/8 204/31/8
f 185/31/8 204/31/8 205/31/8
f 190/29/99 204/31/98 191/29/98
f 204/31/98 190/29/99 205/31/99
f 207/28/95 193/32/97 206/28/97
f 193/32/97 207/28/95 195/32/95
f 201/31/101 188/29/100 202/31/100
f 188/29/100 201/31/101 187/29/101
f 209/28/8 206/28/8 208/28/8
f 206/28/8 209/28/8 207/28/8
f 207/28/8 209/28/8 210/28/8
f 207/28/8 210/28/8 211/28/8
f 211/28/8 210/28/8 212/28/8
f 211/28/8 212/28/8 213/28/8
f 203/31/102 188/29/100 189/29/102
f 188/29/100 203/31/102 202/31/100
f 206/28/97 194/32/101 208/28/101
f 194/32/101 206/28/97 193/32/97
f 207/28/95 197/32/96 195/32/95
f 197/32/96 207/28/95 211/28/96
f 210/28/102 196/32/100 198/32/102
f 196/32/100 210/28/102 209/28/100
f 208/28/101 196/32/100 209/28/100
f 196/32/100 208/28/101 194/32/101
f 192/31/97 187/29/101 201/31/101
f 187/29/101 192/31/97 186/29/97
f 185/31/96 190/29/99 183/29/96
f 190/29/99 185/31/96 205/31/99
f 211/28/96 199/32/99 197/32/96
f 199/32/99 211/28/96 213/28/99
f 199/32/99 212/28/98 200/32/98
f 212/28/98 199/32/99 213/28/99
f 212/28/98 198/32/102 200/32/98
f 198/32/102 212/28/98 210/28/102
f 204/31/98 189/29/102 191/29/98
f 189/29/102 204/31/98 203/31/102

