# Created by Kenney (www.kenney.nl)

mtllib mast.mtl

g mast

v 0.3464102 5.6 0.201 1 1 1
v 0.3464102 5.6 -0.199 1 1 1
v -4.331468E-15 5.6 0.401 1 1 1
v -4.331468E-15 5.6 -0.399 1 1 1
v -0.3464102 5.6 0.201 1 1 1
v -0.3464102 5.6 -0.199 1 1 1
v 0.4849742 6.4 -0.279 1 1 1
v 0.4849742 6.4 0.281 1 1 1
v -7.219114E-15 6.4 -0.559 1 1 1
v -0.4849742 6.4 -0.279 1 1 1
v -0.4849742 6.4 0.281 1 1 1
v -7.219114E-15 6.4 0.561 1 1 1
v 0.3225228 5.7 -0.1852086 1 1 1
v 0.3225228 5.7 0.1872086 1 1 1
v -4.331468E-15 5.7 -0.3714173 1 1 1
v -4.331468E-15 5.7 0.3734172 1 1 1
v -0.3225228 5.7 -0.1852086 1 1 1
v -0.3225228 5.7 0.1872086 1 1 1
v -4.331468E-15 6.4 -0.3714173 1 1 1
v -0.3225228 6.4 -0.1852086 1 1 1
v -0.3225228 6.4 0.1872086 1 1 1
v -4.331468E-15 6.4 0.3734172 1 1 1
v 0.3225228 6.4 0.1872086 1 1 1
v 0.3225228 6.4 -0.1852086 1 1 1
v 0.1299038 7.86352 -0.075 1 1 1
v 0.1299038 7.86352 0.075 1 1 1
v 0 7.86352 -0.15 1 1 1
v 0 7.86352 0.15 1 1 1
v -0.1299038 7.86352 -0.075 1 1 1
v -0.1299038 7.86352 0.075 1 1 1
v 0.2480242 0.8 -0.1431968 1 1 1
v 0.2480242 0.8 0.1431968 1 1 1
v -9.529231E-16 0.8 -0.2863936 1 1 1
v -9.529231E-16 0.8 0.2863936 1 1 1
v -0.2480242 0.8 -0.1431968 1 1 1
v -0.2480242 0.8 0.1431968 1 1 1
v 0.3401175 0 -0.1963669 1 1 1
v 0.3401175 0 0.1963669 1 1 1
v 6.280629E-15 0 -0.3927339 1 1 1
v 6.280629E-15 0 0.3927339 1 1 1
v -0.3401175 0 0.1963669 1 1 1
v -0.3401175 0 -0.1963669 1 1 1
v 2.887646E-15 0.8 0.201 1 1 1
v -0.1740711 0.8 0.1005 1 1 1
v -0.1740711 0.8 -0.1005 1 1 1
v 0.1740711 0.8 -0.1005 1 1 1
v 0.1740711 0.8 0.1005 1 1 1
v 2.887646E-15 0.8 -0.201 1 1 1

vn 0 -1 0
vn 0.8492078 -0.1961161 -0.4902903
vn 0.8492078 -0.1961161 0.4902903
vn 0 -0.1961161 -0.9805807
vn -0.8492078 -0.1961161 -0.4902903
vn -0.8492078 -0.1961161 0.4902903
vn 0 -0.1961161 0.9805807
vn 0 1 0
vn 0 0 1
vn 0.8660254 0 0.5
vn 0.8660254 0 -0.5
vn 0 0 -1
vn -0.8660254 0 -0.5
vn -0.8660254 0 0.5
vn 0.8584744 0.1317663 -0.4956404
vn 0.8584744 0.1317663 0.4956404
vn 0 0.1317663 -0.9912808
vn 0 0.1317663 0.9912808
vn -0.8584744 0.1317663 0.4956404
vn -0.8584744 0.1317663 -0.4956404
vn 0 0.007220008 0.999974
vn -0.8660028 0.007220007 0.4999869
vn -0.8660028 0.007220007 -0.4999869
vn 0.8660028 0.007220007 -0.4999869
vn 0.8660028 0.007220007 0.4999869
vn 0 0.007220008 -0.999974

vt 0.71875 0.025
vt 0.71875 0.225
vt 0.71875 0.05
vt 0.84375 0.04534712
vt 0.84375 0.225

usemtl colormap

f 3/1/1 2/1/1 1/1/1
f 2/1/1 3/1/1 4/1/1
f 4/1/1 3/1/1 5/1/1
f 4/1/1 5/1/1 6/1/1
f 8/2/3 2/1/2 7/2/2
f 2/1/2 8/2/3 1/1/3
f 9/2/4 2/1/2 4/1/4
f 2/1/2 9/2/4 7/2/2
f 6/1/5 11/2/6 10/2/5
f 11/2/6 6/1/5 5/1/6
f 12/2/7 5/1/6 3/1/7
f 5/1/6 12/2/7 11/2/6
f 10/2/5 4/1/4 6/1/5
f 4/1/4 10/2/5 9/2/4
f 8/2/3 3/1/7 1/1/3
f 3/1/7 8/2/3 12/2/7
f 15/3/8 14/3/8 13/3/8
f 14/3/8 15/3/8 16/3/8
f 16/3/8 15/3/8 17/3/8
f 16/3/8 17/3/8 18/3/8
f 19/2/9 17/3/10 15/3/9
f 17/3/10 19/2/9 20/2/10
f 21/2/11 17/3/10 20/2/10
f 17/3/10 21/2/11 18/3/11
f 21/2/11 16/3/12 18/3/11
f 16/3/12 21/2/11 22/2/12
f 22/2/12 14/3/13 16/3/12
f 14/3/13 22/2/12 23/2/13
f 14/3/13 24/2/14 13/3/14
f 24/2/14 14/3/13 23/2/13
f 24/2/14 15/3/9 13/3/14
f 15/3/9 24/2/14 19/2/9
f 12/2/8 21/2/8 11/2/8
f 11/2/8 21/2/8 10/2/8
f 12/2/8 22/2/8 21/2/8
f 20/2/8 10/2/8 21/2/8
f 12/2/8 23/2/8 22/2/8
f 8/2/8 23/2/8 12/2/8
f 20/2/8 9/2/8 10/2/8
f 19/2/8 9/2/8 20/2/8
f 23/2/8 8/2/8 24/2/8
f 24/2/8 9/2/8 19/2/8
f 7/2/8 24/2/8 8/2/8
f 24/2/8 7/2/8 9/2/8
f 27/2/8 26/2/8 25/2/8
f 26/2/8 27/2/8 28/2/8
f 28/2/8 27/2/8 29/2/8
f 28/2/8 29/2/8 30/2/8
f 33/2/8 32/2/8 31/2/8
f 32/2/8 33/2/8 34/2/8
f 34/2/8 33/2/8 35/2/8
f 34/2/8 35/2/8 36/2/8
f 31/2/15 38/1/16 37/1/15
f 38/1/16 31/2/15 32/2/16
f 33/2/17 37/1/15 39/1/17
f 37/1/15 33/2/17 31/2/15
f 34/2/18 41/1/19 40/1/18
f 41/1/19 34/2/18 36/2/19
f 41/1/19 35/2/20 42/1/20
f 35/2/20 41/1/19 36/2/19
f 32/2/16 40/1/18 38/1/16
f 40/1/18 32/2/16 34/2/18
f 35/2/20 39/1/17 42/1/20
f 39/1/17 35/2/20 33/2/17
f 40/1/1 37/1/1 38/1/1
f 37/1/1 40/1/1 39/1/1
f 39/1/1 40/1/1 41/1/1
f 39/1/1 41/1/1 42/1/1
f 28/5/21 44/4/22 43/4/21
f 44/4/22 28/5/21 30/5/22
f 44/4/22 29/5/23 45/4/23
f 29/5/23 44/4/22 30/5/22
f 25/5/24 47/4/25 46/4/24
f 47/4/25 25/5/24 26/5/25
f 26/5/25 43/4/21 47/4/25
f 43/4/21 26/5/25 28/5/21
f 27/5/26 46/4/24 48/4/26
f 46/4/24 27/5/26 25/5/24
f 29/5/23 48/4/26 45/4/23
f 48/4/26 29/5/23 27/5/26

g mast




usemtl colormap

f 3/1/1 2/1/1 1/1/1
f 2/1/1 3/1/1 4/1/1
f 4/1/1 3/1/1 5/1/1
f 4/1/1 5/1/1 6/1/1
f 8/2/3 2/1/2 7/2/2
f 2/1/2 8/2/3 1/1/3
f 9/2/4 2/1/2 4/1/4
f 2/1/2 9/2/4 7/2/2
f 6/1/5 11/2/6 10/2/5
f 11/2/6 6/1/5 5/1/6
f 12/2/7 5/1/6 3/1/7
f 5/1/6 12/2/7 11/2/6
f 10/2/5 4/1/4 6/1/5
f 4/1/4 10/2/5 9/2/4
f 8/2/3 3/1/7 1/1/3
f 3/1/7 8/2/3 12/2/7
f 15/3/8 14/3/8 13/3/8
f 14/3/8 15/3/8 16/3/8
f 16/3/8 15/3/8 17/3/8
f 16/3/8 17/3/8 18/3/8
f 19/2/9 17/3/10 15/3/9
f 17/3/10 19/2/9 20/2/10
f 21/2/11 17/3/10 20/2/10
f 17/3/10 21/2/11 18/3/11
f 21/2/11 16/3/12 18/3/11
f 16/3/12 21/2/11 22/2/12
f 22/2/12 14/3/13 16/3/12
f 14/3/13 22/2/12 23/2/13
f 14/3/13 24/2/14 13/3/14
f 24/2/14 14/3/13 23/2/13
f 24/2/14 15/3/9 13/3/14
f 15/3/9 24/2/14 19/2/9
f 12/2/8 21/2/8 11/2/8
f 11/2/8 21/2/8 10/2/8
f 12/2/8 22/2/8 21/2/8
f 20/2/8 10/2/8 21/2/8
f 12/2/8 23/2/8 22/2/8
f 8/2/8 23/2/8 12/2/8
f 20/2/8 9/2/8 10/2/8
f 19/2/8 9/2/8 20/2/8
f 23/2/8 8/2/8 24/2/8
f 24/2/8 9/2/8 19/2/8
f 7/2/8 24/2/8 8/2/8
f 24/2/8 7/2/8 9/2/8
f 27/2/8 26/2/8 25/2/8
f 26/2/8 27/2/8 28/2/8
f 28/2/8 27/2/8 29/2/8
f 28/2/8 29/2/8 30/2/8
f 33/2/8 32/2/8 31/2/8
f 32/2/8 33/2/8 34/2/8
f 34/2/8 33/2/8 35/2/8
f 34/2/8 35/2/8 36/2/8
f 31/2/15 38/1/16 37/1/15
f 38/1/16 31/2/15 32/2/16
f 33/2/17 37/1/15 39/1/17
f 37/1/15 33/2/17 31/2/15
f 34/2/18 41/1/19 40/1/18
f 41/1/19 34/2/18 36/2/19
f 41/1/19 35/2/20 42/1/20
f 35/2/20 41/1/19 36/2/19
f 32/2/16 40/1/18 38/1/16
f 40/1/18 32/2/16 34/2/18
f 35/2/20 39/1/17 42/1/20
f 39/1/17 35/2/20 33/2/17
f 40/1/1 37/1/1 38/1/1
f 37/1/1 40/1/1 39/1/1
f 39/1/1 40/1/1 41/1/1
f 39/1/1 41/1/1 42/1/1
f 28/5/21 44/4/22 43/4/21
f 44/4/22 28/5/21 30/5/22
f 44/4/22 29/5/23 45/4/23
f 29/5/23 44/4/22 30/5/22
f 25/5/24 47/4/25 46/4/24
f 47/4/25 25/5/24 26/5/25
f 26/5/25 43/4/21 47/4/25
f 43/4/21 26/5/25 28/5/21
f 27/5/26 46/4/24 48/4/26
f 46/4/24 27/5/26 25/5/24
f 29/5/23 48/4/26 45/4/23
f 48/4/26 29/5/23 27/5/26

g sail-a

v 2.159964 5.983696 -0.01360616 1 1 1
v 2.192833 5.761109 -0.01360616 1 1 1
v 2.159964 5.983696 0.2113938 1 1 1
v 2.192833 5.761109 0.2113938 1 1 1
v -2.159966 5.118344 -0.01360616 1 1 1
v -2.192834 5.34093 -0.01360616 1 1 1
v -2.159966 5.118344 0.2113938 1 1 1
v -2.192834 5.34093 0.2113938 1 1 1
v 1.504127 2.834983 -0.01360616 1 1 1
v 1.484909 2.610806 -0.01360616 1 1 1
v 1.504127 2.834983 0.2113938 1 1 1
v 1.484909 2.610806 0.2113938 1 1 1
v -1.504127 2.867056 -0.01360616 1 1 1
v -1.484908 3.091234 -0.01360616 1 1 1
v -1.504127 2.867056 0.2113938 1 1 1
v -1.484908 3.091234 0.2113938 1 1 1
v -1.764257 5.176777 0.3113938 1 1 1
v -1.962111 5.147561 0.3113938 1 1 1
v -1.797125 5.399364 0.3113938 1 1 1
v -1.99498 5.370147 0.3113938 1 1 1
v -1.962111 5.147561 -0.1136062 1 1 1
v -1.764257 5.176777 -0.1136062 1 1 1
v -1.99498 5.370147 -0.1136062 1 1 1
v -1.797125 5.399364 -0.1136062 1 1 1
v -1.749648 5.07785 0.2113938 1 1 1
v -1.749648 5.07785 -0.01360616 1 1 1
v -1.947503 5.048633 0.2113938 1 1 1
v -1.947503 5.048633 -0.01360616 1 1 1
v -1.811734 5.498291 -0.01360616 1 1 1
v -1.811734 5.498291 0.2113938 1 1 1
v -2.009588 5.469074 -0.01360616 1 1 1
v -2.009588 5.469074 0.2113938 1 1 1
v 1.994979 5.731893 0.3113938 1 1 1
v 1.797124 5.702676 0.3113938 1 1 1
v 1.96211 5.954479 0.3113938 1 1 1
v 1.764256 5.925262 0.3113938 1 1 1
v 1.797124 5.702676 -0.1136062 1 1 1
v 1.994979 5.731893 -0.1136062 1 1 1
v 1.764256 5.925262 -0.1136062 1 1 1
v 1.96211 5.954479 -0.1136062 1 1 1
v 2.009587 5.632966 0.2113938 1 1 1
v 2.009587 5.632966 -0.01360616 1 1 1
v 1.811733 5.603749 0.2113938 1 1 1
v 1.811733 5.603749 -0.01360616 1 1 1
v 1.947502 6.053406 -0.01360616 1 1 1
v 1.947502 6.053406 0.2113938 1 1 1
v 1.749647 6.024189 -0.01360616 1 1 1
v 1.749647 6.024189 0.2113938 1 1 1
v -1.10559 2.83289 0.3113938 1 1 1
v -1.304859 2.849973 0.3113938 1 1 1
v -1.086371 3.057067 0.3113938 1 1 1
v -1.28564 3.074151 0.3113938 1 1 1
v -1.304859 2.849973 -0.1136062 1 1 1
v -1.10559 2.83289 -0.1136062 1 1 1
v -1.28564 3.074151 -0.1136062 1 1 1
v -1.086371 3.057067 -0.1136062 1 1 1
v -1.114132 2.733255 0.2113938 1 1 1
v -1.114132 2.733255 -0.01360616 1 1 1
v -1.313401 2.750339 0.2113938 1 1 1
v -1.313401 2.750339 -0.01360616 1 1 1
v -1.077829 3.156702 -0.01360616 1 1 1
v -1.077829 3.156702 0.2113938 1 1 1
v -1.277098 3.173785 -0.01360616 1 1 1
v -1.277098 3.173785 0.2113938 1 1 1
v 1.28564 2.627889 0.3113938 1 1 1
v 1.086371 2.644972 0.3113938 1 1 1
v 1.304859 2.852067 0.3113938 1 1 1
v 1.10559 2.86915 0.3113938 1 1 1
v 1.086371 2.644972 -0.1136062 1 1 1
v 1.28564 2.627889 -0.1136062 1 1 1
v 1.10559 2.86915 -0.1136062 1 1 1
v 1.304859 2.852067 -0.1136062 1 1 1
v 1.277098 2.528255 0.2113938 1 1 1
v 1.277098 2.528255 -0.01360616 1 1 1
v 1.077829 2.545338 0.2113938 1 1 1
v 1.077829 2.545338 -0.01360616 1 1 1
v 1.3134 2.951701 -0.01360616 1 1 1
v 1.3134 2.951701 0.2113938 1 1 1
v 1.114131 2.968785 -0.01360616 1 1 1
v 1.114131 2.968785 0.2113938 1 1 1

vn 0.9892724 0.146083 0
vn -0.9892724 -0.146083 0
vn 0.1032963 -0.6995212 0.7071068
vn -0.1032963 0.6995212 0.7071068
vn 0.1032963 -0.6995212 -0.7071068
vn -0.1032963 0.6995212 -0.7071068
vn 0.9963452 -0.08541692 0
vn -0.9963452 0.08541692 0
vn -0.06039888 -0.7045224 0.7071068
vn 0.06039888 0.7045224 0.7071068
vn -0.06039888 -0.7045224 -0.7071068
vn 0.06039888 0.7045224 -0.7071068
vn 0.05590355 -0.3785781 0.9238795
vn -0.05590355 0.3785781 0.9238795
vn 0.05590355 -0.3785781 -0.9238795
vn -0.05590355 0.3785781 -0.9238795
vn 0.1349631 -0.9139684 0.3826834
vn 0.1349631 -0.9139684 -0.3826834
vn -0.1349631 0.9139684 -0.3826834
vn -0.1349631 0.9139684 0.3826834
vn -0.03268764 -0.3812848 0.9238795
vn 0.03268764 0.3812848 0.9238795
vn -0.03268764 -0.3812848 -0.9238795
vn 0.03268764 0.3812848 -0.9238795
vn -0.07891494 -0.9205029 0.3826834
vn -0.07891494 -0.9205029 -0.3826834
vn 0.07891494 0.9205029 -0.3826834
vn 0.07891494 0.9205029 0.3826834

vt 0.84375 0.07205883
vt 0.84375 0.1779412
vt 0.84375 0.025

usemtl colormap

f 51/2/27 50/1/27 49/2/27
f 50/1/27 51/2/27 52/1/27
f 55/1/28 54/2/28 53/1/28
f 54/2/28 55/1/28 56/2/28
f 51/2/30 55/1/29 52/1/29
f 55/1/29 51/2/30 56/2/30
f 55/1/29 50/1/31 52/1/29
f 50/1/31 55/1/29 53/1/31
f 54/2/32 50/1/31 53/1/31
f 50/1/31 54/2/32 49/2/32
f 54/2/32 51/2/30 49/2/32
f 51/2/30 54/2/32 56/2/30
f 59/2/33 58/1/33 57/2/33
f 58/1/33 59/2/33 60/1/33
f 63/1/34 62/2/34 61/1/34
f 62/2/34 63/1/34 64/2/34
f 59/2/36 63/1/35 60/1/35
f 63/1/35 59/2/36 64/2/36
f 63/1/35 58/1/37 60/1/35
f 58/1/37 63/1/35 61/1/37
f 62/2/38 58/1/37 61/1/37
f 58/1/37 62/2/38 57/2/38
f 62/2/38 59/2/36 57/2/38
f 59/2/36 62/2/38 64/2/36
f 67/7/40 66/6/39 65/6/39
f 66/6/39 67/7/40 68/7/40
f 71/7/42 70/6/41 69/6/41
f 70/6/41 71/7/42 72/7/42
f 75/8/43 74/8/44 73/8/43
f 74/8/44 75/8/43 76/8/44
f 79/5/45 78/5/46 77/5/45
f 78/5/46 79/5/45 80/5/46
f 78/5/46 68/7/40 67/7/40
f 68/7/40 78/5/46 80/5/46
f 79/5/45 72/7/42 71/7/42
f 72/7/42 79/5/45 77/5/45
f 65/6/39 75/8/43 73/8/43
f 75/8/43 65/6/39 66/6/39
f 69/6/41 74/8/44 76/8/44
f 74/8/44 69/6/41 70/6/41
f 77/5/27 70/6/27 72/7/27
f 70/6/27 77/5/27 74/8/27
f 74/8/27 77/5/27 78/5/27
f 74/8/27 78/5/27 73/8/27
f 73/8/27 78/5/27 67/7/27
f 73/8/27 67/7/27 65/6/27
f 76/8/28 71/7/28 69/6/28
f 71/7/28 76/8/28 79/5/28
f 79/5/28 76/8/28 75/8/28
f 79/5/28 75/8/28 80/5/28
f 80/5/28 75/8/28 66/6/28
f 80/5/28 66/6/28 68/7/28
f 83/7/40 82/6/39 81/6/39
f 82/6/39 83/7/40 84/7/40
f 87/7/42 86/6/41 85/6/41
f 86/6/41 87/7/42 88/7/42
f 91/8/43 90/8/44 89/8/43
f 90/8/44 91/8/43 92/8/44
f 95/5/45 94/5/46 93/5/45
f 94/5/46 95/5/45 96/5/46
f 94/5/46 84/7/40 83/7/40
f 84/7/40 94/5/46 96/5/46
f 95/5/45 88/7/42 87/7/42
f 88/7/42 95/5/45 93/5/45
f 81/6/39 91/8/43 89/8/43
f 91/8/43 81/6/39 82/6/39
f 85/6/41 90/8/44 92/8/44
f 90/8/44 85/6/41 86/6/41
f 93/5/27 86/6/27 88/7/27
f 86/6/27 93/5/27 90/8/27
f 90/8/27 93/5/27 94/5/27
f 90/8/27 94/5/27 89/8/27
f 89/8/27 94/5/27 83/7/27
f 89/8/27 83/7/27 81/6/27
f 92/8/28 87/7/28 85/6/28
f 87/7/28 92/8/28 95/5/28
f 95/5/28 92/8/28 91/8/28
f 95/5/28 91/8/28 96/5/28
f 96/5/28 91/8/28 82/6/28
f 96/5/28 82/6/28 84/7/28
f 99/7/48 98/6/47 97/6/47
f 98/6/47 99/7/48 100/7/48
f 103/7/50 102/6/49 101/6/49
f 102/6/49 103/7/50 104/7/50
f 107/8/51 106/8/52 105/8/51
f 106/8/52 107/8/51 108/8/52
f 111/5/53 110/5/54 109/5/53
f 110/5/54 111/5/53 112/5/54
f 110/5/54 100/7/48 99/7/48
f 100/7/48 110/5/54 112/5/54
f 111/5/53 104/7/50 103/7/50
f 104/7/50 111/5/53 109/5/53
f 97/6/47 107/8/51 105/8/51
f 107/8/51 97/6/47 98/6/47
f 101/6/49 106/8/52 108/8/52
f 106/8/52 101/6/49 102/6/49
f 109/5/33 102/6/33 104/7/33
f 102/6/33 109/5/33 106/8/33
f 106/8/33 109/5/33 110/5/33
f 106/8/33 110/5/33 105/8/33
f 105/8/33 110/5/33 99/7/33
f 105/8/33 99/7/33 97/6/33
f 108/8/34 103/7/34 101/6/34
f 103/7/34 108/8/34 111/5/34
f 111/5/34 108/8/34 107/8/34
f 111/5/34 107/8/34 112/5/34
f 112/5/34 107/8/34 98/6/34
f 112/5/34 98/6/34 100/7/34
f 115/7/48 114/6/47 113/6/47
f 114/6/47 115/7/48 116/7/48
f 119/7/50 118/6/49 117/6/49
f 118/6/49 119/7/50 120/7/50
f 123/8/51 122/8/52 121/8/51
f 122/8/52 123/8/51 124/8/52
f 127/5/53 126/5/54 125/5/53
f 126/5/54 127/5/53 128/5/54
f 126/5/54 116/7/48 115/7/48
f 116/7/48 126/5/54 128/5/54
f 127/5/53 120/7/50 119/7/50
f 120/7/50 127/5/53 125/5/53
f 113/6/47 123/8/51 121/8/51
f 123/8/51 113/6/47 114/6/47
f 117/6/49 122/8/52 124/8/52
f 122/8/52 117/6/49 118/6/49
f 125/5/33 118/6/33 120/7/33
f 118/6/33 125/5/33 122/8/33
f 122/8/33 125/5/33 126/5/33
f 122/8/33 126/5/33 121/8/33
f 121/8/33 126/5/33 115/7/33
f 121/8/33 115/7/33 113/6/33
f 124/8/34 119/7/34 117/6/34
f 119/7/34 124/8/34 127/5/34
f 127/5/34 124/8/34 123/8/34
f 127/5/34 123/8/34 128/5/34
f 128/5/34 123/8/34 114/6/34
f 128/5/34 114/6/34 116/7/34

g flag-c

v -0.055155 7.214225 -0.9971383 1 1 1
v -1.155058E-14 7.45235 -1.17889 1 1 1
v -0.055155 7.690475 -0.9971383 1 1 1
v -0.055155 6.737975 -0.9971383 1 1 1
v -1.155058E-14 6.976099 -1.17889 1 1 1
v 0.06788308 7.690475 -0.6897146 1 1 1
v 0.06788308 6.737975 -0.6897146 1 1 1
v -0.09758193 7.690475 -0.4385282 1 1 1
v -0.09758193 6.737975 -0.4385282 1 1 1
v -0.09758193 7.690475 -0.2651026 1 1 1
v -0.09758193 6.737975 -0.2651026 1 1 1
v -1.155058E-14 7.690475 -0.116967 1 1 1
v -1.155058E-14 6.737975 -0.116967 1 1 1
v 0.06788308 7.690475 -0.8103585 1 1 1
v 0.06788308 6.737975 -0.8103585 1 1 1
v -1.155058E-14 7.690475 -0.9134094 1 1 1
v -1.155058E-14 6.737975 -0.9134094 1 1 1
v 0.116967 6.737975 0.1754505 1 1 1
v -0.116967 6.737975 0.1754505 1 1 1
v 0.116967 6.938 0.1754505 1 1 1
v -0.116967 6.938 0.1754505 1 1 1
v 0.1754505 6.737975 0.116967 1 1 1
v 0.1754505 6.737975 -0.116967 1 1 1
v 0.116967 6.737975 -0.1754505 1 1 1
v -0.116967 6.737975 -0.1754505 1 1 1
v -0.1754505 6.737975 0.116967 1 1 1
v -0.1754505 6.737975 -0.116967 1 1 1
v 0.1754505 6.938 0.116967 1 1 1
v 0.1754505 7.499975 0.116967 1 1 1
v 0.1754505 7.499975 -0.116967 1 1 1
v 0.116967 7.499975 0.1754505 1 1 1
v 0.116967 7.499975 -0.1754505 1 1 1
v -0.116967 7.499975 0.1754505 1 1 1
v -0.116967 7.499975 -0.1754505 1 1 1
v -0.1754505 7.499975 0.116967 1 1 1
v -0.1754505 7.499975 -0.116967 1 1 1
v 0.1754505 6.938 -0.116967 1 1 1
v 0.116967 6.938 -0.1754505 1 1 1
v -0.116967 6.938 -0.1754505 1 1 1
v -0.1754505 6.938 -0.116967 1 1 1
v -0.1754505 6.938 0.116967 1 1 1
v 0.1754505 7.7 0.116967 1 1 1
v 0.116967 7.7 0.1754505 1 1 1
v 0.1754505 7.7 -0.116967 1 1 1
v 0.116967 7.7 -0.1754505 1 1 1
v -0.116967 7.7 -0.1754505 1 1 1
v -0.116967 7.7 0.1754505 1 1 1
v -0.1754505 7.7 -0.116967 1 1 1
v -0.1754505 7.7 0.116967 1 1 1

vn -0.9462509 0 0.3234335
vn -0.9569095 0 -0.2903866
vn -0.8859929 0 0.4636986
vn 0.8859929 0 -0.4636986
vn 0.9569095 0 0.2903866
vn 0.9462509 0 -0.3234335
vn 0.9578871 0 0.2871453
vn -0.9578871 0 -0.2871453
vn 0.9578871 0 -0.2871453
vn 0.8350952 0 -0.5501054
vn -0.8350952 0 0.5501054
vn -0.9578871 0 0.2871453
vn 0.3826834 0 0.9238795
vn -0.3826834 0 0.9238795
vn 0.9238795 0 0.3826834
vn -0.9238795 0 -0.3826834
vn -0.9238795 0 0.3826834
vn 0.3826834 0 -0.9238795
vn 0.9238795 0 -0.3826834
vn -0.3826834 0 -0.9238795

vt 0.34375 0.125
vt 0.34375 0.175
vt 0.34375 0.225
vt 0.34375 0.025
vt 0.34375 0.075
vt 0.34375 0.06658415
vt 0.34375 0.1834158

usemtl colormap

f 131/11/57 130/10/56 129/9/55
f 129/9/55 133/13/56 132/12/57
f 129/9/60 130/10/59 131/11/58
f 132/12/58 133/13/59 129/9/60
f 136/11/61 135/12/61 134/11/61
f 135/12/61 136/11/61 137/12/61
f 134/11/62 135/12/62 136/11/62
f 137/12/62 136/11/62 135/12/62
f 140/11/64 139/12/63 138/11/63
f 139/12/63 140/11/64 141/12/64
f 138/11/66 139/12/66 140/11/65
f 141/12/65 140/11/65 139/12/66
f 134/11/61 143/12/63 142/11/63
f 143/12/63 134/11/61 135/12/61
f 142/11/66 143/12/66 134/11/62
f 135/12/62 134/11/62 143/12/66
f 144/11/64 129/9/60 131/11/58
f 129/9/60 144/11/64 132/12/58
f 132/12/58 144/11/64 145/12/64
f 145/12/64 144/11/64 142/11/63
f 145/12/64 142/11/63 143/12/63
f 131/11/57 129/9/55 144/11/65
f 132/12/57 144/11/65 129/9/55
f 145/12/65 144/11/65 132/12/57
f 142/11/66 144/11/65 145/12/65
f 143/12/66 142/11/66 145/12/65
f 138/11/63 137/12/61 136/11/61
f 137/12/61 138/11/63 139/12/63
f 136/11/62 137/12/62 138/11/66
f 139/12/66 138/11/66 137/12/62
f 148/14/67 147/12/68 146/12/67
f 147/12/68 148/14/67 149/14/68
f 146/12/1 151/12/1 150/12/1
f 151/12/1 146/12/1 152/12/1
f 152/12/1 146/12/1 147/12/1
f 152/12/1 147/12/1 153/12/1
f 153/12/1 147/12/1 154/12/1
f 153/12/1 154/12/1 155/12/1
f 148/14/67 150/12/69 156/14/69
f 150/12/69 148/14/67 146/12/67
f 159/15/1 158/15/1 157/15/1
f 158/15/1 159/15/1 160/15/1
f 160/15/1 159/15/1 161/15/1
f 160/15/1 161/15/1 162/15/1
f 162/15/1 161/15/1 163/15/1
f 162/15/1 163/15/1 164/15/1
f 166/14/8 156/14/8 165/14/8
f 156/14/8 166/14/8 148/14/8
f 148/14/8 166/14/8 167/14/8
f 148/14/8 167/14/8 149/14/8
f 149/14/8 167/14/8 168/14/8
f 149/14/8 168/14/8 169/14/8
f 154/12/71 168/14/70 155/12/70
f 168/14/70 154/12/71 169/14/71
f 171/11/67 157/15/69 170/11/69
f 157/15/69 171/11/67 159/15/67
f 165/14/73 152/12/72 166/14/72
f 152/12/72 165/14/73 151/12/73
f 173/11/8 170/11/8 172/11/8
f 170/11/8 173/11/8 171/11/8
f 171/11/8 173/11/8 174/11/8
f 171/11/8 174/11/8 175/11/8
f 175/11/8 174/11/8 176/11/8
f 175/11/8 176/11/8 177/11/8
f 167/14/74 152/12/72 153/12/74
f 152/12/72 167/14/74 166/14/72
f 170/11/69 158/15/73 172/11/73
f 158/15/73 170/11/69 157/15/69
f 171/11/67 161/15/68 159/15/67
f 161/15/68 171/11/67 175/11/68
f 174/11/74 160/15/72 162/15/74
f 160/15/72 174/11/74 173/11/72
f 172/11/73 160/15/72 173/11/72
f 160/15/72 172/11/73 158/15/73
f 156/14/69 151/12/73 165/14/73
f 151/12/73 156/14/69 150/12/69
f 149/14/68 154/12/71 147/12/68
f 154/12/71 149/14/68 169/14/71
f 175/11/68 163/15/71 161/15/68
f 163/15/71 175/11/68 177/11/71
f 163/15/71 176/11/70 164/15/70
f 176/11/70 163/15/71 177/11/71
f 176/11/70 162/15/74 164/15/70
f 162/15/74 176/11/70 174/11/74
f 168/14/70 153/12/74 155/12/70
f 153/12/74 168/14/70 167/14/74

